<svg width="2450" height="565" viewBox="0 0 2450 565" fill="none" xmlns="http://www.w3.org/2000/svg">
<path d="M2408.19 5.11157L2389.18 1M2408.19 5.11157H2351.84M2408.19 5.11157L2427.84 9.35892M2408.19 5.11157H2448.1M2389.18 1L2396.1 1.0016L2402.94 1.01051L2409.65 1.03554L2416.14 1.08483L2422.36 1.16483L2428.22 1.28525L2433.67 1.45253L2438.73 1.66585L2443.06 1.96082L2447.01 2.30265L2448.1 2.42238V5.11157M2389.18 1H2333.74M2333.74 1H2278.29M2333.74 1L2351.84 5.11157M2278.29 1H2222.85M2278.29 1L2295.5 5.11157M2222.85 1H2167.41M2222.85 1L2239.15 5.11157M2167.41 1H2111.96M2167.41 1L2182.8 5.11157M2111.96 1H2056.52M2111.96 1L2126.45 5.11157M2056.52 1H2001.08M2056.52 1L2070.1 5.11157M2001.08 1H1945.64M2001.08 1L2013.76 5.11157M1945.64 1H1890.19M1945.64 1L1957.41 5.11157M1890.19 1H1834.75M1890.19 1L1901.06 5.11157M1834.75 1H1779.31M1834.75 1L1844.71 5.11157M1779.31 1H1723.87M1779.31 1L1788.36 5.11157M1723.87 1H1668.42M1723.87 1L1725.88 2.01577L1728.93 3.55358L1732.01 5.11157M1668.42 1H1612.98M1668.42 1L1670.21 2.01577L1675.66 5.11157M1612.98 1H1557.54M1612.98 1L1619.32 5.11157M1557.54 1H1502.09M1557.54 1L1559.55 2.52647L1561.59 4.07075L1562.28 4.59036L1562.97 5.11157M1502.09 1H1446.65M1502.09 1L1503.77 2.52647L1504.34 3.03881L1504.91 3.55358L1506.62 5.11157M1446.65 1H1391.21M1446.65 1L1450.27 5.11157M1391.21 1L1391.54 1.50666L1391.88 2.01577L1393.58 4.59036L1393.92 5.11157M1391.21 1H1335.77M1335.77 1H1280.32M1335.77 1L1337.58 5.11157M1280.32 1H1224.88M1280.32 1L1280.66 2.52647L1281.23 5.11157M1224.88 1H1169.44M1224.88 1V5.11157M1169.44 1H1113.99M1169.44 1L1169.1 2.52647L1168.53 5.11157M1113.99 1H1058.55M1113.99 1L1112.18 5.11157M1058.55 1L1058.22 1.50666L1057.88 2.01577L1056.18 4.59036L1055.83 5.11157M1058.55 1H1003.11M1003.11 1H947.664M1003.11 1L999.945 4.59036L999.485 5.11157M947.664 1H892.222M947.664 1L945.985 2.52647L945.419 3.03881L944.283 4.07075L943.712 4.59036L943.137 5.11157M892.222 1H836.779M892.222 1L890.206 2.52647L888.164 4.07075L887.478 4.59036L886.789 5.11157M836.779 1H781.337M836.779 1L830.442 5.11157M781.337 1H725.893M781.337 1L779.548 2.01577L774.093 5.11157M725.893 1H670.451M725.893 1L717.745 5.11157M670.451 1H615.008M670.451 1L661.396 5.11157M615.008 1H559.564M615.008 1L605.048 5.11157M559.564 1H504.122M559.564 1L548.699 5.11157M504.122 1H448.68M504.122 1L492.351 5.11157M448.68 1H393.237M448.68 1L436.003 5.11157M393.237 1H337.793M393.237 1L379.654 5.11157M337.793 1H282.351M337.793 1L323.306 5.11157M282.351 1H226.908M282.351 1L266.957 5.11157M226.908 1H171.465M226.908 1L210.609 5.11157M171.465 1H116.022M171.465 1L154.262 5.11157M116.022 1H60.5798M116.022 1L97.9135 5.11157M60.5798 1L53.6609 1.0016L46.8134 1.01051L40.1086 1.03554L33.6141 1.08483L27.4012 1.16483L21.5361 1.28525L16.0889 1.45253L11.033 1.66585L6.69435 1.96082L2.74437 2.30265L1.65876 2.4224V5.11157M60.5798 1L41.565 5.11157M154.262 5.11157H210.609M154.262 5.11157H97.9135M154.262 5.11157L136.486 9.35892M210.609 5.11157L193.769 9.35892M210.609 5.11157H266.957M379.654 5.11157H436.003M379.654 5.11157H323.306M379.654 5.11157L376.19 6.16048L365.622 9.35892M436.003 5.11157L422.905 9.35892M436.003 5.11157H492.351M605.048 5.11157H661.396M605.048 5.11157H548.699M605.048 5.11157L602.507 6.16048L601.228 6.68736L594.756 9.35892M661.396 5.11157L660.243 5.63441L659.086 6.16048L652.041 9.35892M661.396 5.11157H717.745M830.442 5.11157L829.634 5.63441L823.892 9.35892M830.442 5.11157H886.789M830.442 5.11157H774.093M886.789 5.11157L885.404 6.16048L884.705 6.68736L884.006 7.21748L881.176 9.35892M886.789 5.11157H943.137M1055.83 5.11157H1112.18M1055.83 5.11157H999.485M1055.83 5.11157L1053.03 9.35892M1112.18 5.11157L1111.95 5.63441L1111.72 6.16048L1111.49 6.68736L1110.78 8.28335L1110.31 9.35892M1112.18 5.11157H1168.53M1281.23 5.11157H1337.58M1281.23 5.11157H1224.88M1281.23 5.11157L1282.16 9.35892M1337.58 5.11157L1337.81 5.63441L1338.04 6.16048L1338.27 6.68736L1339.45 9.35892M1337.58 5.11157H1393.92M1506.62 5.11157H1562.97M1506.62 5.11157H1450.27M1506.62 5.11157L1507.78 6.16048L1510.11 8.28335L1510.7 8.81993L1511.3 9.35892M1562.97 5.11157L1564.35 6.16048L1565.05 6.68736L1565.75 7.21748L1568.58 9.35892M1562.97 5.11157H1619.32M1732.01 5.11157H1788.36M1732.01 5.11157H1675.66M1732.01 5.11157L1734.09 6.16048L1735.14 6.68736L1740.43 9.35892M1788.36 5.11157L1789.51 5.63441L1790.67 6.16048L1797.72 9.35892M1788.36 5.11157H1844.71M1957.41 5.11157H2013.76M1957.41 5.11157H1901.06M1957.41 5.11157L1960.41 6.16048L1961.92 6.68736L1969.57 9.35892M2013.76 5.11157L2026.85 9.35892M2013.76 5.11157H2070.1M2182.8 5.11157H2239.15M2182.8 5.11157H2126.45M2182.8 5.11157L2198.7 9.35892M2239.15 5.11157L2255.99 9.35892M2239.15 5.11157H2295.5M1.46127 43.5607H1.65876M58.1766 43.5607L79.69 38.1344M58.1766 43.5607L35.8388 49.1947M58.1766 43.5607H122.993M58.1766 43.5607H1.65876M79.69 38.1344H16.0686M79.69 38.1344L100.425 32.9044M79.69 38.1344H143.311M16.0686 38.1344L37.9553 32.9044M16.0686 38.1344H1.65876M16.0686 38.1344L1.65876 41.5769M79.4326 22.9923H139.72M79.4326 22.9923L99.1036 18.2916M79.4326 22.9923H19.147M79.4326 22.9923L59.0622 27.8602M139.72 22.9923L158.356 18.2916M139.72 22.9923L120.422 27.8602M139.72 22.9923H200.006M99.1036 18.2916H158.356M99.1036 18.2916L118.111 13.7501M99.1036 18.2916H39.8525M158.356 18.2916H217.607M158.356 18.2916L176.361 13.7501M1.03823 129.211H1.65876M53.3385 129.211L81.0802 120.214M53.3385 129.211L24.2183 138.655M53.3385 129.211H137.021M53.3385 129.211H1.65876M81.0802 120.214L107.539 111.634M81.0802 120.214H162.78M81.0802 120.214H1.65876M27.7286 111.634H107.539M27.7286 111.634L54.7949 103.441M27.7286 111.634H1.65876M27.7286 111.634L1.65876 119.524M80.6635 95.6108H156.944M80.6635 95.6108L105.413 88.1198M80.6635 95.6108H4.38298M80.6635 95.6108L54.7949 103.441M156.944 95.6108L180.045 88.1198M156.944 95.6108L132.799 103.441M156.944 95.6108H233.226M105.413 88.1198H180.045M105.413 88.1198H30.7829M105.413 88.1198L129.116 80.9456M180.045 88.1198L202.166 80.9456M180.045 88.1198H254.676M173.631 67.4714H243.714M173.631 67.4714L194.559 61.1367M173.631 67.4714H103.548M173.631 67.4714L151.835 74.0687M243.714 67.4714L263.247 61.1367M243.714 67.4714L223.371 74.0687M243.714 67.4714H313.798M194.559 61.1367H263.247M194.559 61.1367H125.872M194.559 61.1367L214.671 55.0494M263.247 61.1367L282.018 55.0494M263.247 61.1367H331.936M252.627 43.5607H317.443M252.627 43.5607L270.554 38.1344M252.627 43.5607H187.81M252.627 43.5607L234.012 49.1947M317.443 43.5607L334.176 38.1344M317.443 43.5607L300.07 49.1947M317.443 43.5607H382.26M270.554 38.1344H334.176M270.554 38.1344H206.933M270.554 38.1344L287.834 32.9044M334.176 38.1344L350.303 32.9044M334.176 38.1344H397.797M320.579 22.9923H380.866M320.579 22.9923L336.109 18.2916M320.579 22.9923H260.293M320.579 22.9923L304.498 27.8602M380.866 22.9923L395.36 18.2916M380.866 22.9923L365.856 27.8602M380.866 22.9923H441.153M336.109 18.2916H395.36M336.109 18.2916L351.115 13.7501M336.109 18.2916H276.858M395.36 18.2916H454.612M395.36 18.2916L409.366 13.7501M44.5314 285.184L83.575 267.457M44.5314 285.184L2.72016 304.167M44.5314 285.184H162.566M44.5314 285.184H1.65876M83.575 267.457L120.12 250.865M83.575 267.457H197.705M83.575 267.457H1.65876M82.7825 220.676H186.61M82.7825 220.676L116.147 206.906M82.7825 220.676L47.3473 235.303M82.7825 220.676H1.65876M186.61 220.676L216.94 206.906M186.61 220.676L154.396 235.303M186.61 220.676H290.437M116.147 206.906H216.94M116.147 206.906H15.3537M116.147 206.906L147.618 193.916M216.94 206.906L245.551 193.916M216.94 206.906H317.735M205.487 170.03H298.16M205.487 170.03L232.152 159.024M205.487 170.03H112.815M205.487 170.03L177.351 181.644M298.16 170.03L322.4 159.024M298.16 170.03L272.58 181.644M298.16 170.03H390.831M232.152 159.024H322.4M232.152 159.024H141.904M232.152 159.024L257.456 148.58M322.4 159.024L345.404 148.58M322.4 159.024H412.647M304.383 129.211H388.065M304.383 129.211L326.18 120.214M304.383 129.211H220.702M304.383 129.211L281.504 138.655M388.065 129.211L407.88 120.214M388.065 129.211L367.264 138.655M388.065 129.211H471.746M326.18 120.214H407.88M326.18 120.214H244.481M326.18 120.214L346.969 111.634M407.88 120.214L426.779 111.634M407.88 120.214H489.58M385.788 95.6108H462.069M385.788 95.6108L403.938 88.1198M385.788 95.6108H309.506M385.788 95.6108L366.817 103.441M462.069 95.6108L478.569 88.1198M462.069 95.6108L444.823 103.441M462.069 95.6108H538.349M403.938 88.1198H478.569M403.938 88.1198H329.307M403.938 88.1198L421.319 80.9456M478.569 88.1198L494.371 80.9456M478.569 88.1198H553.2M453.964 67.4714H524.046M453.964 67.4714L469.311 61.1367M453.964 67.4714H383.881M453.964 67.4714L437.98 74.0687M524.046 67.4714L525.823 66.6657L537.999 61.1367M524.046 67.4714L509.517 74.0687M524.046 67.4714H594.131M469.311 61.1367H537.999M469.311 61.1367H400.624M469.311 61.1367L484.06 55.0494M537.999 61.1367L551.407 55.0494M537.999 61.1367H606.688M511.893 43.5607H576.711M511.893 43.5607L525.042 38.1344M511.893 43.5607H447.077M511.893 43.5607L498.243 49.1947M576.711 43.5607L588.663 38.1344M576.711 43.5607L572.113 45.6488L564.301 49.1947M576.711 43.5607H641.528M525.042 38.1344H588.663M525.042 38.1344H461.42M525.042 38.1344L537.712 32.9044M588.663 38.1344L600.182 32.9044M588.663 38.1344H652.284M561.725 22.9923H622.012M561.725 22.9923L573.114 18.2916M561.725 22.9923H501.44M561.725 22.9923L549.933 27.8602M622.012 22.9923L629.812 19.452L631.091 18.8702L632.366 18.2916M622.012 22.9923L611.291 27.8602M622.012 22.9923H682.299M573.114 18.2916H632.366M573.114 18.2916L584.118 13.7501M573.114 18.2916H513.863M632.366 18.2916H691.617M632.366 18.2916L642.369 13.7501M87.2969 487.12H249.809M87.2969 487.12L138.468 453.93M87.2969 487.12L31.067 523.592M87.2969 487.12L1.65876 487.121M249.809 487.12L293.671 453.93M249.809 487.12L201.612 523.592M249.809 487.12H412.321M138.468 453.93H293.671M138.468 453.93L185.235 423.598M138.468 453.93H1.65876M293.671 453.93L333.755 423.598M293.671 453.93H448.872M267.645 370.145H404.394M267.645 370.145L304.138 346.476M267.645 370.145H130.898M267.645 370.145L228.141 395.769M404.394 370.145L435.673 346.476M404.394 370.145L370.532 395.769M404.394 370.145H541.141M304.138 346.476H435.673M304.138 346.476H172.604M304.138 346.476L337.951 324.545M435.673 346.476L464.655 324.545M435.673 346.476H567.207M398.636 285.184H516.67M398.636 285.184L425.967 267.457M398.636 285.184H280.6M398.636 285.184L369.368 304.167M516.67 285.184L540.097 267.457M516.67 285.184L491.584 304.167M516.67 285.184H634.705M425.967 267.457H540.097M425.967 267.457H311.836M425.967 267.457L451.548 250.865M540.097 267.457L562.024 250.865M540.097 267.457H654.228M498.09 220.676H601.917M498.09 220.676L519.323 206.906M498.09 220.676H394.264M498.09 220.676L475.541 235.303M601.917 220.676L620.116 206.906M601.917 220.676L582.589 235.303M601.917 220.676H705.744M519.323 206.906H620.116M519.323 206.906H418.528M519.323 206.906L539.349 193.916M620.116 206.906L637.282 193.916M620.116 206.906H720.91M576.175 170.03H668.848M576.175 170.03L593.143 159.024M576.175 170.03H483.503M576.175 170.03L558.27 181.644M668.848 170.03L683.391 159.024M668.848 170.03L653.5 181.644M668.848 170.03H761.519M593.143 159.024H683.391M593.143 159.024H502.895M593.143 159.024L609.246 148.58M683.391 159.024L697.193 148.58M683.391 159.024H773.64M639.109 129.211H722.79M639.109 129.211L652.98 120.214M639.109 129.211H555.427M639.109 129.211L624.549 138.655M722.79 129.211L734.68 120.214M722.79 129.211L710.31 138.655M722.79 129.211H806.471M652.98 120.214H734.68M652.98 120.214H571.279M652.98 120.214L666.209 111.634M734.68 120.214L746.019 111.634M734.68 120.214H816.38M690.912 95.6108H767.193M690.912 95.6108L702.462 88.1198M690.912 95.6108H614.631M690.912 95.6108L678.84 103.441M767.193 95.6108L777.093 88.1198M767.193 95.6108L756.846 103.441M767.193 95.6108H843.474M702.462 88.1198H777.093M702.462 88.1198H627.83M702.462 88.1198L713.523 80.9456M777.093 88.1198L786.574 80.9456M777.093 88.1198H851.724M734.296 67.4714H804.381M734.296 67.4714L744.063 61.1367M734.296 67.4714H664.214M734.296 67.4714L724.125 74.0687M804.381 67.4714L803.309 68.2811L795.661 74.0687M804.381 67.4714L812.751 61.1367M804.381 67.4714H874.463M744.063 61.1367H812.751M744.063 61.1367H675.375M744.063 61.1367L753.449 55.0494M812.751 61.1367L820.796 55.0494M812.751 61.1367H881.44M771.161 43.5607H835.978M771.161 43.5607L779.528 38.1344M771.161 43.5607H706.345M771.161 43.5607L762.475 49.1947M835.978 43.5607L843.149 38.1344M835.978 43.5607L833.219 45.6488L831.358 47.0573L828.533 49.1947M835.978 43.5607H900.795M779.528 38.1344H843.149M779.528 38.1344H715.906M779.528 38.1344L787.591 32.9044M843.149 38.1344L845.771 36.1505L847.499 34.843L850.061 32.9044M843.149 38.1344H906.77M802.873 22.9923H863.159M802.873 22.9923L808.332 19.452L810.12 18.2916M802.873 22.9923H742.586M802.873 22.9923L796.32 27.242L795.368 27.8602M863.159 22.9923L867.839 19.452L868.606 18.8702L869.372 18.2916M863.159 22.9923L859.971 25.4044L856.727 27.8602M863.159 22.9923H923.446M810.12 18.2916H869.372M810.12 18.2916L817.122 13.7501M810.12 18.2916H750.868M869.372 18.2916H928.623M869.372 18.2916L875.373 13.7501M737.344 487.12H899.855M737.344 487.12L759.274 453.93M737.344 487.12H574.833M737.344 487.12L713.246 523.592M899.855 487.12L914.477 453.93M899.855 487.12L883.791 523.592M899.855 487.12H1062.37M759.274 453.93H914.477M759.274 453.93H604.073M759.274 453.93L779.317 423.598M914.477 453.93L927.838 423.598M914.477 453.93H1069.68M814.636 370.145H951.384M814.636 370.145L830.276 346.476M814.636 370.145H677.888M814.636 370.145L797.705 395.769M951.384 370.145L961.81 346.476M951.384 370.145L940.097 395.769M951.384 370.145H1088.13M830.276 346.476H961.81M830.276 346.476H698.741M830.276 346.476L844.767 324.545M961.81 346.476L971.471 324.545M961.81 346.476H1093.34M870.775 285.184H988.809M870.775 285.184L882.488 267.457M870.775 285.184H752.74M870.775 285.184L858.232 304.167M988.809 285.184L996.618 267.457M988.809 285.184L980.448 304.167M988.809 285.184H1106.84M882.488 267.457H996.618M882.488 267.457H768.358M882.488 267.457L893.451 250.865M996.618 267.457L1003.93 250.865M996.618 267.457H1110.75M913.399 220.676H1017.22M913.399 220.676L922.498 206.906M913.399 220.676H809.572M913.399 220.676L903.734 235.303M1017.22 220.676L1023.29 206.906M1017.22 220.676L1010.78 235.303M1017.22 220.676H1121.05M922.498 206.906H1023.29M922.498 206.906H821.704M922.498 206.906L931.081 193.916M1023.29 206.906L1029.01 193.916M1023.29 206.906H1124.09M946.863 170.03H1039.54M946.863 170.03L954.135 159.024M946.863 170.03H854.191M946.863 170.03L939.19 181.644M1039.54 170.03L1044.38 159.024M1039.54 170.03L1034.42 181.644M1039.54 170.03H1132.21M954.135 159.024H1044.38M954.135 159.024H863.888M954.135 159.024L961.037 148.58M1044.38 159.024L1048.98 148.58M1044.38 159.024H1134.63M973.835 129.211H1057.52M973.835 129.211L979.779 120.214M973.835 129.211H890.154M973.835 129.211L967.595 138.655M1057.52 129.211L1061.48 120.214M1057.52 129.211L1053.36 138.655M1057.52 129.211H1141.2M979.779 120.214H1061.48M979.779 120.214H898.079M979.779 120.214L981.937 116.949L985.449 111.634M1061.48 120.214L1065.26 111.634M1061.48 120.214H1143.18M996.036 95.6108H1072.32M996.036 95.6108L1000.99 88.1198M996.036 95.6108H919.754M996.036 95.6108L992.178 101.451L990.862 103.441M1072.32 95.6108L1073.57 92.7631L1075.62 88.1198M1072.32 95.6108L1068.87 103.441M1072.32 95.6108H1148.6M1000.99 88.1198L1001.59 87.2058L1005.73 80.9456M1000.99 88.1198H1075.62M1000.99 88.1198H926.355M1075.62 88.1198L1076.82 85.3933L1077.21 84.4939L1077.61 83.6002L1078.78 80.9456M1075.62 88.1198H1150.25M1014.63 67.4714H1084.71M1014.63 67.4714L1016.74 64.2721L1017.27 63.4826L1017.78 62.6964L1018.3 61.9149L1018.81 61.1367M1014.63 67.4714H944.546M1014.63 67.4714L1010.27 74.0687M1084.71 67.4714L1086.82 62.6964L1087.16 61.9149L1087.5 61.1367M1084.71 67.4714L1081.81 74.0687M1084.71 67.4714H1154.8M1018.81 61.1367H1087.5M1018.81 61.1367H950.127M1018.81 61.1367L1021.35 57.3039L1021.85 56.5484L1022.84 55.0494M1087.5 61.1367L1089.19 57.3039L1089.52 56.5484L1089.85 55.7969L1090.18 55.0494M1087.5 61.1367H1156.19M1030.43 43.5607H1095.25M1030.43 43.5607L1034.01 38.1344M1030.43 43.5607H965.611M1030.43 43.5607L1029.51 44.949L1028.12 47.0573L1026.71 49.1947M1095.25 43.5607L1094.94 44.2532L1093.08 48.4788L1092.76 49.1947M1095.25 43.5607L1097.64 38.1344M1095.25 43.5607H1160.06M1034.01 38.1344H1097.64M1034.01 38.1344H970.393M1034.01 38.1344L1037.47 32.9044M1097.64 38.1344L1098.51 36.1505L1098.8 35.4951L1099.09 34.843L1099.94 32.9044M1097.64 38.1344H1161.26M1044.02 22.9923H1104.31M1044.02 22.9923L1046.36 19.452L1047.12 18.2916M1044.02 22.9923H983.733M1044.02 22.9923L1042.83 24.7975L1042.43 25.4044L1042.02 26.0145L1040.8 27.8602M1104.31 22.9923L1104.57 22.3959L1105.09 21.2104L1105.61 20.0355L1106.38 18.2916M1104.31 22.9923L1103.24 25.4044L1102.97 26.0145L1102.43 27.242L1102.16 27.8602M1104.31 22.9923H1164.59M1047.12 18.2916H1106.38M1047.12 18.2916L1049.76 14.3093L1050.13 13.7501M1047.12 18.2916H987.874M1106.38 18.2916L1106.63 17.7154L1106.88 17.1417L1107.14 16.5703L1107.38 16.0015L1108.13 14.3093L1108.38 13.7501M1106.38 18.2916H1165.63M1387.39 487.12H1549.9M1387.39 487.12L1380.08 453.93M1387.39 487.12H1224.88M1387.39 487.12L1395.42 523.592M1549.9 487.12L1535.28 453.93M1549.9 487.12L1565.97 523.592M1549.9 487.12H1712.41M1380.08 453.93H1535.28M1380.08 453.93H1224.88M1380.08 453.93L1373.4 423.598M1535.28 453.93L1521.92 423.598M1535.28 453.93H1690.48M1361.63 370.145H1498.37M1361.63 370.145L1356.41 346.476M1361.63 370.145H1224.88M1361.63 370.145L1367.27 395.769M1498.37 370.145L1487.95 346.476M1498.37 370.145L1509.66 395.769M1498.37 370.145H1635.12M1356.41 346.476H1487.95M1356.41 346.476H1224.88M1356.41 346.476L1351.58 324.545M1487.95 346.476L1478.29 324.545M1487.95 346.476H1619.48M1342.91 285.184H1460.95M1342.91 285.184L1339.01 267.457M1342.91 285.184H1224.88M1342.91 285.184L1347.1 304.167M1460.95 285.184L1453.14 267.457M1460.95 285.184L1469.31 304.167M1460.95 285.184H1578.98M1339.01 267.457H1453.14M1339.01 267.457H1224.88M1339.01 267.457L1335.35 250.865M1453.14 267.457L1445.83 250.865M1453.14 267.457H1567.27M1328.71 220.676H1432.53M1328.71 220.676L1325.67 206.906M1328.71 220.676H1224.88M1328.71 220.676L1331.93 235.303M1432.53 220.676L1426.47 206.906M1432.53 220.676L1438.98 235.303M1432.53 220.676H1536.36M1325.67 206.906H1426.47M1325.67 206.906H1224.88M1325.67 206.906L1322.81 193.916M1426.47 206.906L1420.74 193.916M1426.47 206.906H1527.26M1317.55 170.03H1410.22M1317.55 170.03L1315.13 159.024M1317.55 170.03H1224.88M1317.55 170.03L1320.11 181.644M1410.22 170.03L1405.38 159.024M1410.22 170.03L1415.34 181.644M1410.22 170.03H1502.9M1315.13 159.024H1405.38M1315.13 159.024H1224.88M1315.13 159.024L1312.83 148.58M1405.38 159.024L1400.77 148.58M1405.38 159.024H1495.62M1308.56 129.211H1392.24M1308.56 129.211L1306.58 120.214M1308.56 129.211H1224.88M1308.56 129.211L1310.64 138.655M1392.24 129.211L1388.28 120.214M1392.24 129.211L1396.4 138.655M1392.24 129.211H1475.92M1306.58 120.214H1388.28M1306.58 120.214H1224.88M1306.58 120.214L1304.69 111.634M1388.28 120.214L1384.5 111.634M1388.28 120.214H1469.98M1301.16 95.6108H1377.44M1301.16 95.6108L1299.51 88.1198M1301.16 95.6108H1224.88M1301.16 95.6108L1302.88 103.441M1377.44 95.6108L1374.55 89.0386L1374.14 88.1198M1377.44 95.6108L1380.89 103.441M1377.44 95.6108H1453.72M1299.51 88.1198L1299.31 87.2058L1297.93 80.9456M1299.51 88.1198H1374.14M1299.51 88.1198H1224.88M1374.14 88.1198L1372.94 85.3933L1372.54 84.4939L1372.15 83.6002L1370.98 80.9456M1374.14 88.1198H1448.77M1294.96 67.4714H1365.05M1294.96 67.4714L1293.57 61.1367M1294.96 67.4714H1224.88M1294.96 67.4714L1295.5 69.9135L1295.68 70.7361L1295.86 71.5628L1296.23 73.2291L1296.42 74.0687M1365.05 67.4714L1362.94 62.6964L1362.25 61.1367M1365.05 67.4714L1367.95 74.0687M1365.05 67.4714H1435.13M1293.57 61.1367H1362.25M1293.57 61.1367H1224.88M1293.57 61.1367L1292.23 55.0494M1362.25 61.1367L1360.57 57.3039L1360.23 56.5484L1359.9 55.7969L1359.57 55.0494M1362.25 61.1367H1430.94M1289.7 43.5607H1354.51M1289.7 43.5607L1288.5 38.1344M1289.7 43.5607H1224.88M1289.7 43.5607L1290.94 49.1947M1354.51 43.5607L1354.82 44.2532L1356.68 48.4788L1356.99 49.1947M1354.51 43.5607L1352.12 38.1344M1354.51 43.5607H1419.33M1288.5 38.1344H1352.12M1288.5 38.1344H1224.88M1288.5 38.1344L1287.35 32.9044M1352.12 38.1344L1351.25 36.1505L1350.96 35.4951L1350.67 34.843L1349.82 32.9044M1352.12 38.1344H1415.74M1285.17 22.9923H1345.45M1285.17 22.9923L1284.13 18.2916M1285.17 22.9923H1224.88M1285.17 22.9923L1286.24 27.8602M1345.45 22.9923L1345.19 22.3959L1344.67 21.2104L1344.41 20.6213L1343.89 19.452L1343.64 18.8702L1343.38 18.2916M1345.45 22.9923L1346.52 25.4044L1346.78 26.0145L1347.32 27.242L1347.6 27.8602M1345.45 22.9923H1405.74M1284.13 18.2916L1284 17.7154L1283.88 17.1417L1283.75 16.5703L1283.13 13.7501M1284.13 18.2916H1343.38M1284.13 18.2916H1224.88M1343.38 18.2916H1402.63M1343.38 18.2916L1342.88 17.1417L1342.62 16.5703L1342.37 16.0015L1341.63 14.3093L1341.38 13.7501M2037.44 487.12H2199.95M2037.44 487.12L2000.89 453.93M2037.44 487.12H1874.93M2037.44 487.12L2077.6 523.592M2199.95 487.12L2156.09 453.93M2199.95 487.12L2248.15 523.592M2199.95 487.12H2362.46M2000.89 453.93H2156.09M2000.89 453.93H1845.69M2000.89 453.93L1967.48 423.598M2156.09 453.93L2116 423.598M2156.09 453.93H2311.29M1908.62 370.145H2045.37M1908.62 370.145L1882.55 346.476M1908.62 370.145H1771.87M1908.62 370.145L1936.84 395.769M2045.37 370.145L2014.09 346.476M2045.37 370.145L2079.23 395.769M2045.37 370.145H2182.11M1882.55 346.476H2014.09M1882.55 346.476H1751.02M1882.55 346.476L1858.4 324.545M2014.09 346.476L1985.1 324.545M2014.09 346.476H2145.62M1815.05 285.184H1933.09M1815.05 285.184L1795.53 267.457M1815.05 285.184H1697.02M1815.05 285.184L1835.96 304.167M1933.09 285.184L1909.66 267.457M1933.09 285.184L1958.17 304.167M1933.09 285.184H2051.12M1795.53 267.457H1909.66M1795.53 267.457H1681.4M1795.53 267.457L1777.26 250.865M1909.66 267.457L1887.73 250.865M1909.66 267.457H2023.79M1744.01 220.676H1847.84M1744.01 220.676L1728.85 206.906M1744.01 220.676H1640.19M1744.01 220.676L1760.12 235.303M1847.84 220.676L1829.64 206.906M1847.84 220.676L1867.17 235.303M1847.84 220.676H1951.67M1728.85 206.906H1829.64M1728.85 206.906H1628.05M1728.85 206.906L1714.54 193.916M1829.64 206.906L1812.48 193.916M1829.64 206.906H1930.43M1688.24 170.03H1780.91M1688.24 170.03L1676.12 159.024M1688.24 170.03H1595.57M1688.24 170.03L1701.03 181.644M1780.91 170.03L1766.37 159.024M1780.91 170.03L1796.26 181.644M1780.91 170.03H1873.58M1676.12 159.024H1766.37M1676.12 159.024H1585.87M1676.12 159.024L1664.62 148.58M1766.37 159.024L1752.56 148.58M1766.37 159.024H1856.62M1643.29 129.211H1726.97M1643.29 129.211L1633.38 120.214M1643.29 129.211H1559.6M1643.29 129.211L1653.69 138.655M1726.97 129.211L1715.08 120.214M1726.97 129.211L1739.45 138.655M1726.97 129.211H1810.65M1633.38 120.214H1715.08M1633.38 120.214H1551.68M1633.38 120.214L1623.93 111.634M1715.08 120.214L1703.74 111.634M1715.08 120.214H1796.78M1606.28 95.6108L1607.34 96.5709L1608.4 97.5357L1614.91 103.441M1606.28 95.6108H1682.56M1606.28 95.6108L1598.03 88.1198M1606.28 95.6108H1530M1682.56 95.6108L1672.67 88.1198M1682.56 95.6108L1692.91 103.441M1682.56 95.6108H1758.85M1598.03 88.1198H1672.67M1598.03 88.1198H1523.4M1598.03 88.1198L1590.13 80.9456M1672.67 88.1198L1663.18 80.9456M1672.67 88.1198H1747.3M1575.29 67.4714H1645.38M1575.29 67.4714L1568.32 61.1367M1575.29 67.4714H1505.21M1575.29 67.4714L1582.56 74.0687M1645.38 67.4714L1640.11 63.4826L1637.01 61.1367M1645.38 67.4714L1654.1 74.0687M1645.38 67.4714H1715.46M1568.32 61.1367H1637.01M1568.32 61.1367H1499.63M1568.32 61.1367L1562.44 55.7969L1561.62 55.0494M1637.01 61.1367L1628.96 55.0494M1637.01 61.1367H1705.69M1548.96 43.5607H1613.78M1548.96 43.5607L1547.45 42.1845L1542.99 38.1344M1548.96 43.5607H1484.15M1548.96 43.5607L1550.49 44.949L1553.6 47.766L1555.17 49.1947M1613.78 43.5607L1606.61 38.1344M1613.78 43.5607L1616.54 45.6488L1618.4 47.0573L1621.23 49.1947M1613.78 43.5607H1678.6M1542.99 38.1344H1606.61M1542.99 38.1344H1479.36M1542.99 38.1344L1538.65 34.1933L1537.23 32.9044M1606.61 38.1344L1603.99 36.1505L1602.26 34.843L1599.7 32.9044M1606.61 38.1344H1670.23M1526.31 22.9923H1586.6M1526.31 22.9923L1523.06 20.0355L1521.14 18.2916M1526.31 22.9923H1466.03M1526.31 22.9923L1531.67 27.8602M1586.6 22.9923L1581.92 19.452L1581.15 18.8702L1580.39 18.2916M1586.6 22.9923L1589.79 25.4044L1593.03 27.8602M1586.6 22.9923H1646.88M1521.14 18.2916H1580.39M1521.14 18.2916L1518.61 16.0015L1517.37 14.8709L1516.75 14.3093L1516.13 13.7501M1521.14 18.2916H1461.88M1580.39 18.2916H1639.64M1580.39 18.2916L1574.38 13.7501M2408.69 346.476H2277.15M2408.69 346.476L2365.22 324.545M2408.69 346.476H2448.1M2408.69 346.476L2448.1 366.357M2287.19 285.184H2405.23M2287.19 285.184L2252.05 267.457M2287.19 285.184H2169.16M2287.19 285.184L2324.82 304.167M2405.23 285.184L2366.18 267.457M2405.23 285.184L2447.04 304.167M2405.23 285.184H2448.1M2252.05 267.457H2366.18M2252.05 267.457H2137.92M2252.05 267.457L2219.16 250.865M2366.18 267.457L2329.64 250.865M2366.18 267.457H2448.1M2159.32 220.676H2263.15M2159.32 220.676L2132.02 206.906M2159.32 220.676H2055.49M2159.32 220.676L2188.31 235.303M2263.15 220.676L2232.82 206.906M2263.15 220.676L2295.36 235.303M2263.15 220.676H2366.98M2132.02 206.906H2232.82M2132.02 206.906H2031.23M2132.02 206.906L2106.27 193.916M2232.82 206.906L2204.21 193.916M2232.82 206.906H2333.61M2058.93 170.03H2151.6M2058.93 170.03L2037.11 159.024M2058.93 170.03H1966.26M2058.93 170.03L2081.95 181.644M2151.6 170.03L2127.36 159.024M2151.6 170.03L2177.18 181.644M2151.6 170.03H2244.27M2037.11 159.024H2127.36M2037.11 159.024H1946.86M2037.11 159.024L2016.41 148.58M2127.36 159.024L2104.35 148.58M2127.36 159.024H2217.61M1978.01 129.211H2061.69M1978.01 129.211L1960.18 120.214M1978.01 129.211H1894.33M1978.01 129.211L1996.73 138.655M2061.69 129.211L2041.88 120.214M2061.69 129.211L2082.49 138.655M2061.69 129.211H2145.37M1960.18 120.214H2041.88M1960.18 120.214H1878.48M1960.18 120.214L1943.17 111.634M2041.88 120.214L2022.98 111.634M2041.88 120.214H2123.58M1911.41 95.6108H1987.69M1911.41 95.6108L1896.56 88.1198M1911.41 95.6108H1835.13M1911.41 95.6108L1926.93 103.441M1987.69 95.6108L1971.19 88.1198M1987.69 95.6108L2004.94 103.441M1987.69 95.6108H2063.97M1896.56 88.1198H1971.19M1896.56 88.1198H1821.93M1896.56 88.1198L1882.34 80.9456M1971.19 88.1198L1955.39 80.9456M1971.19 88.1198H2045.82M1855.63 67.4714H1925.71M1855.63 67.4714L1843.07 61.1367M1855.63 67.4714H1785.54M1855.63 67.4714L1868.71 74.0687M1925.71 67.4714L1911.76 61.1367M1925.71 67.4714L1940.24 74.0687M1925.71 67.4714H1995.79M1843.07 61.1367H1911.76M1843.07 61.1367H1774.38M1843.07 61.1367L1831 55.0494M1911.76 61.1367L1898.35 55.0494M1911.76 61.1367H1980.45M1808.23 43.5607H1873.05M1808.23 43.5607L1797.47 38.1344M1808.23 43.5607H1743.41M1808.23 43.5607L1810.98 44.949L1812.37 45.6488L1819.4 49.1947M1873.05 43.5607L1861.1 38.1344M1873.05 43.5607L1885.46 49.1947M1873.05 43.5607H1937.86M1797.47 38.1344H1861.1M1797.47 38.1344H1733.85M1797.47 38.1344L1787.11 32.9044M1861.1 38.1344L1849.58 32.9044M1861.1 38.1344H1924.72M1767.46 22.9923H1827.75M1767.46 22.9923L1758.14 18.2916M1767.46 22.9923H1707.17M1767.46 22.9923L1777.11 27.8602M1827.75 22.9923L1819.95 19.452L1818.67 18.8702L1817.39 18.2916M1827.75 22.9923L1838.47 27.8602M1827.75 22.9923H1888.03M1758.14 18.2916H1817.39M1758.14 18.2916L1750.25 14.3093L1749.14 13.7501M1758.14 18.2916H1698.89M1817.39 18.2916H1876.64M1817.39 18.2916L1807.39 13.7501M2429.61 170.03L2398.1 159.024M2429.61 170.03H2336.94M2429.61 170.03L2448.1 176.486M2429.61 170.03H2448.1M2398.1 159.024H2307.85M2398.1 159.024L2368.2 148.58M2398.1 159.024H2448.1M2312.74 129.211H2396.42M2312.74 129.211L2286.98 120.214M2312.74 129.211H2229.06M2312.74 129.211L2339.78 138.655M2396.42 129.211L2368.68 120.214M2396.42 129.211L2425.54 138.655M2396.42 129.211H2448.1M2286.98 120.214H2368.68M2286.98 120.214H2205.28M2286.98 120.214L2262.41 111.634M2368.68 120.214L2342.22 111.634M2368.68 120.214H2448.1M2216.53 95.6108H2292.81M2216.53 95.6108L2195.08 88.1198M2216.53 95.6108H2140.25M2216.53 95.6108L2238.95 103.441M2292.81 95.6108L2269.71 88.1198M2292.81 95.6108L2316.96 103.441M2292.81 95.6108H2369.09M2195.08 88.1198H2269.71M2195.08 88.1198H2120.45M2195.08 88.1198L2174.54 80.9456M2269.71 88.1198L2247.59 80.9456M2269.71 88.1198H2344.34M2135.96 67.4714H2206.04M2135.96 67.4714L2117.82 61.1367M2135.96 67.4714H2065.88M2135.96 67.4714L2154.85 74.0687M2206.04 67.4714L2186.51 61.1367M2206.04 67.4714L2226.39 74.0687M2206.04 67.4714H2276.13M2117.82 61.1367H2186.51M2117.82 61.1367H2049.13M2117.82 61.1367L2100.39 55.0494M2186.51 61.1367L2167.74 55.0494M2186.51 61.1367H2255.2M2067.5 43.5607H2132.31M2067.5 43.5607L2051.96 38.1344M2067.5 43.5607H2002.68M2067.5 43.5607L2083.63 49.1947M2132.31 43.5607L2115.58 38.1344M2132.31 43.5607L2149.69 49.1947M2132.31 43.5607H2197.13M2051.96 38.1344H2115.58M2051.96 38.1344H1988.34M2051.96 38.1344L2036.99 32.9044M2115.58 38.1344L2099.45 32.9044M2115.58 38.1344H2179.2M2008.61 22.9923H2068.89M2008.61 22.9923L1995.15 18.2916M2008.61 22.9923H1948.32M2008.61 22.9923L2022.54 27.8602M2068.89 22.9923L2054.4 18.2916M2068.89 22.9923L2083.9 27.8602M2068.89 22.9923H2129.18M1995.15 18.2916H2054.4M1995.15 18.2916L1982.14 13.7501M1995.15 18.2916H1935.89M2054.4 18.2916H2113.65M2054.4 18.2916L2040.39 13.7501M2416.29 67.4714L2392.57 61.1367M2416.29 67.4714H2346.21M2416.29 67.4714L2441 74.0687M2416.29 67.4714H2448.1M2392.57 61.1367H2323.89M2392.57 61.1367L2369.78 55.0494M2392.57 61.1367H2448.1M2326.76 43.5607H2391.58M2326.76 43.5607L2306.45 38.1344M2326.76 43.5607H2261.95M2326.76 43.5607L2347.86 49.1947M2391.58 43.5607L2370.07 38.1344M2391.58 43.5607L2413.92 49.1947M2391.58 43.5607H2448.1M2306.45 38.1344H2370.07M2306.45 38.1344H2242.83M2306.45 38.1344L2286.86 32.9044M2370.07 38.1344L2349.33 32.9044M2370.07 38.1344H2433.69M2249.75 22.9923H2310.04M2249.75 22.9923L2232.15 18.2916M2249.75 22.9923H2189.46M2249.75 22.9923L2267.98 27.8602M2310.04 22.9923L2291.4 18.2916M2310.04 22.9923L2329.34 27.8602M2310.04 22.9923H2370.33M2232.15 18.2916H2291.4M2232.15 18.2916L2215.15 13.7501M2232.15 18.2916H2172.9M2291.4 18.2916H2350.65M2291.4 18.2916L2273.4 13.7501M2329.34 27.8602L2349.33 32.9044M2329.34 27.8602H2390.7M2329.34 27.8602H2267.98M2370.33 22.9923L2350.65 18.2916M2370.33 22.9923L2390.7 27.8602M2370.33 22.9923H2430.61M2350.65 18.2916H2409.91M2350.65 18.2916L2331.65 13.7501M2273.4 13.7501H2215.15M2273.4 13.7501H2331.65M2273.4 13.7501L2255.99 9.35892M2390.7 27.8602L2411.8 32.9044M2390.7 27.8602H2448.1M2430.61 22.9923L2409.91 18.2916M2430.61 22.9923L2448.1 26.9621M2430.61 22.9923H2448.1M2409.91 18.2916L2389.9 13.7501M2409.91 18.2916H2448.1M2331.65 13.7501H2389.9M2331.65 13.7501L2313.27 9.35892M2389.9 13.7501L2370.56 9.35892M2389.9 13.7501H2448.1M2349.33 32.9044H2411.8M2349.33 32.9044H2286.86M2433.69 38.1344L2411.8 32.9044M2433.69 38.1344L2448.1 41.5769M2433.69 38.1344H2448.1M2411.8 32.9044H2448.1M2286.86 32.9044H2224.39M2286.86 32.9044L2267.98 27.8602M2267.98 27.8602H2206.62M2413.92 49.1947L2437.13 55.0494M2413.92 49.1947H2347.86M2413.92 49.1947H2448.1M2448.3 43.5607H2448.1M2437.13 55.0494H2369.78M2437.13 55.0494L2448.1 57.8163M2437.13 55.0494H2448.1M2369.78 55.0494H2302.43M2369.78 55.0494L2347.86 49.1947M2347.86 49.1947H2281.8M2083.9 27.8602L2099.45 32.9044M2083.9 27.8602H2145.26M2083.9 27.8602H2022.54M2129.18 22.9923L2113.65 18.2916M2129.18 22.9923L2145.26 27.8602M2129.18 22.9923H2189.46M2113.65 18.2916H2172.9M2113.65 18.2916L2098.64 13.7501M2040.39 13.7501H2098.64M2040.39 13.7501L2026.85 9.35892M2040.39 13.7501H1982.14M2145.26 27.8602L2161.92 32.9044M2145.26 27.8602H2206.62M2189.46 22.9923L2172.9 18.2916M2189.46 22.9923L2206.62 27.8602M2172.9 18.2916L2156.9 13.7501M2098.64 13.7501H2156.9M2098.64 13.7501L2084.14 9.35892M2206.62 27.8602L2224.39 32.9044M2215.15 13.7501H2156.9M2215.15 13.7501L2198.7 9.35892M2156.9 13.7501L2141.42 9.35892M2099.45 32.9044H2161.92M2099.45 32.9044H2036.99M2179.2 38.1344L2161.92 32.9044M2179.2 38.1344L2197.13 43.5607M2179.2 38.1344H2242.83M2161.92 32.9044H2224.39M2036.99 32.9044H1974.52M2036.99 32.9044L2022.54 27.8602M2224.39 32.9044L2242.83 38.1344M2022.54 27.8602H1961.18M2197.13 43.5607L2215.75 49.1947M2197.13 43.5607H2261.95M2242.83 38.1344L2261.95 43.5607M2261.95 43.5607L2281.8 49.1947M2149.69 49.1947L2167.74 55.0494M2149.69 49.1947H2215.75M2149.69 49.1947H2083.63M2215.75 49.1947L2235.09 55.0494M2215.75 49.1947H2281.8M2281.8 49.1947L2302.43 55.0494M2167.74 55.0494H2235.09M2167.74 55.0494H2100.39M2255.2 61.1367L2235.09 55.0494M2255.2 61.1367L2276.13 67.4714M2255.2 61.1367H2323.89M2235.09 55.0494H2302.43M2100.39 55.0494H2033.05M2100.39 55.0494L2083.63 49.1947M2302.43 55.0494L2323.89 61.1367M2083.63 49.1947H2017.57M2276.13 67.4714L2297.92 74.0687M2276.13 67.4714H2346.21M2323.89 61.1367L2346.21 67.4714M2346.21 67.4714L2369.46 74.0687M2226.39 74.0687L2247.59 80.9456M2226.39 74.0687H2297.92M2226.39 74.0687H2154.85M2297.92 74.0687L2320.64 80.9456M2297.92 74.0687H2369.46M2369.46 74.0687L2393.69 80.9456M2369.46 74.0687H2441M2441 74.0687H2448.1M2441 74.0687L2448.1 75.9655M2247.59 80.9456H2320.64M2247.59 80.9456H2174.54M2344.34 88.1198L2320.64 80.9456M2344.34 88.1198L2369.09 95.6108M2344.34 88.1198H2418.98M2320.64 80.9456H2393.69M2174.54 80.9456H2101.49M2174.54 80.9456L2154.85 74.0687M2393.69 80.9456L2418.98 88.1198M2393.69 80.9456H2448.1M2154.85 74.0687H2083.31M2369.09 95.6108L2394.96 103.441M2369.09 95.6108H2445.38M2418.98 88.1198L2445.38 95.6108M2418.98 88.1198H2448.1M2448.48 80.9456H2448.1M2445.38 95.6108L2448.1 96.3839M2445.38 95.6108H2448.1M2316.96 103.441L2342.22 111.634M2316.96 103.441H2394.96M2316.96 103.441H2238.95M2394.96 103.441L2422.03 111.634M2394.96 103.441H2448.1M2448.76 96.5709L2448.1 96.3839M2342.22 111.634H2422.03M2342.22 111.634H2262.41M2422.03 111.634H2448.1M2422.03 111.634L2448.1 119.524M2262.41 111.634H2182.6M2262.41 111.634L2238.95 103.441M2238.95 103.441H2160.95M2425.54 138.655H2339.78M2425.54 138.655L2448.1 145.971M2425.54 138.655H2448.1M2448.72 129.211H2448.1M2339.78 138.655H2254.02M2339.78 138.655L2368.2 148.58M2448.35 146.051L2448.1 145.971M1838.47 27.8602L1849.58 32.9044M1838.47 27.8602H1899.83M1838.47 27.8602H1777.11M1888.03 22.9923L1876.64 18.2916M1888.03 22.9923L1899.83 27.8602M1888.03 22.9923H1948.32M1876.64 18.2916H1935.89M1876.64 18.2916L1865.64 13.7501M1807.39 13.7501H1865.64M1807.39 13.7501L1803.72 12.0862L1797.72 9.35892M1807.39 13.7501H1749.14M1899.83 27.8602L1912.05 32.9044M1899.83 27.8602H1961.18M1948.32 22.9923L1935.89 18.2916M1948.32 22.9923L1961.18 27.8602M1935.89 18.2916L1923.89 13.7501M1865.64 13.7501H1923.89M1865.64 13.7501L1855 9.35892M1961.18 27.8602L1974.52 32.9044M1982.14 13.7501L1969.57 9.35892M1982.14 13.7501H1923.89M1923.89 13.7501L1922.42 13.1925L1919.49 12.0862L1912.29 9.35892M1849.58 32.9044H1912.05M1849.58 32.9044H1787.11M1924.72 38.1344L1912.05 32.9044M1924.72 38.1344L1937.86 43.5607M1924.72 38.1344H1988.34M1912.05 32.9044H1974.52M1787.11 32.9044H1724.64M1787.11 32.9044L1777.11 27.8602M1974.52 32.9044L1988.34 38.1344M1777.11 27.8602H1715.75M1937.86 43.5607L1951.52 49.1947M1937.86 43.5607H2002.68M1988.34 38.1344L1990.1 38.801L2002.68 43.5607M2002.68 43.5607L2017.57 49.1947M1885.46 49.1947L1887.04 49.9147L1898.35 55.0494M1885.46 49.1947H1951.52M1885.46 49.1947H1819.4M1951.52 49.1947L1965.7 55.0494M1951.52 49.1947H2017.57M2017.57 49.1947L2033.05 55.0494M1898.35 55.0494H1965.7M1898.35 55.0494H1831M1980.45 61.1367L1965.7 55.0494M1980.45 61.1367L1995.79 67.4714M1980.45 61.1367H2049.13M1965.7 55.0494H2033.05M1831 55.0494H1763.66M1831 55.0494L1819.4 49.1947M2033.05 55.0494L2049.13 61.1367M1819.4 49.1947H1753.34M1995.79 67.4714L2011.78 74.0687M1995.79 67.4714H2065.88M2049.13 61.1367L2065.88 67.4714M2065.88 67.4714L2083.31 74.0687M1940.24 74.0687L1955.39 80.9456M1940.24 74.0687H2011.78M1940.24 74.0687H1868.71M2011.78 74.0687L2028.44 80.9456M2011.78 74.0687H2083.31M2083.31 74.0687L2101.49 80.9456M1955.39 80.9456H2028.44M1955.39 80.9456H1882.34M2045.82 88.1198L2028.44 80.9456M2045.82 88.1198L2063.97 95.6108M2045.82 88.1198H2120.45M2028.44 80.9456H2101.49M1882.34 80.9456H1809.29M1882.34 80.9456L1868.71 74.0687M2101.49 80.9456L2120.45 88.1198M1868.71 74.0687H1797.17M2063.97 95.6108L2082.94 103.441M2063.97 95.6108H2140.25M2120.45 88.1198L2140.25 95.6108M2140.25 95.6108L2160.95 103.441M2004.94 103.441L2022.98 111.634M2004.94 103.441H2082.94M2004.94 103.441H1926.93M2082.94 103.441L2102.79 111.634M2082.94 103.441H2160.95M2160.95 103.441L2182.6 111.634M2022.98 111.634H2102.79M2022.98 111.634H1943.17M2123.58 120.214L2102.79 111.634M2123.58 120.214L2145.37 129.211M2123.58 120.214H2205.28M2102.79 111.634H2182.6M1943.17 111.634H1863.36M1943.17 111.634L1926.93 103.441M2182.6 111.634L2205.28 120.214M1926.93 103.441H1848.92M2145.37 129.211L2168.25 138.655M2145.37 129.211H2229.06M2205.28 120.214L2229.06 129.211M2229.06 129.211L2254.02 138.655M2082.49 138.655L2104.35 148.58M2082.49 138.655H2168.25M2082.49 138.655H1996.73M2168.25 138.655L2192.3 148.58M2168.25 138.655H2254.02M2254.02 138.655L2280.25 148.58M2104.35 148.58H2192.3M2104.35 148.58H2016.41M2217.61 159.024L2192.3 148.58M2217.61 159.024L2244.27 170.03M2217.61 159.024H2307.85M2192.3 148.58H2280.25M2016.41 148.58H1928.46M2016.41 148.58L1996.73 138.655M2280.25 148.58L2307.85 159.024M2280.25 148.58H2368.2M1996.73 138.655H1910.97M2244.27 170.03L2272.41 181.644M2244.27 170.03H2336.94M2307.85 159.024L2336.94 170.03M2368.2 148.58H2448.1M2336.94 170.03L2367.64 181.644M2177.18 181.644L2204.21 193.916M2177.18 181.644H2272.41M2177.18 181.644H2081.95M2272.41 181.644L2302.14 193.916M2272.41 181.644H2367.64M2367.64 181.644L2400.07 193.916M2367.64 181.644H2448.1M2204.21 193.916H2302.14M2204.21 193.916H2106.27M2333.61 206.906L2302.14 193.916M2333.61 206.906L2366.98 220.676M2333.61 206.906H2434.4M2302.14 193.916H2400.07M2106.27 193.916H2008.34M2106.27 193.916L2081.95 181.644M2400.07 193.916L2434.4 206.906M2400.07 193.916H2448.1M2081.95 181.644H1986.72M2366.98 220.676L2402.41 235.303M2366.98 220.676H2448.1M2434.4 206.906H2448.1M2434.4 206.906L2448.1 212.087M2295.36 235.303L2329.64 250.865M2295.36 235.303H2402.41M2295.36 235.303H2188.31M2402.41 235.303L2440.11 250.865M2402.41 235.303H2448.1M2329.64 250.865H2440.11M2329.64 250.865H2219.16M2440.11 250.865L2448.1 254.161M2440.11 250.865H2448.1M2219.16 250.865H2108.69M2219.16 250.865L2188.31 235.303M2188.31 235.303H2081.27M2447.04 304.167H2324.82M2447.04 304.167H2448.1M2447.04 304.167L2448.1 304.649M2324.82 304.167H2202.61M2324.82 304.167L2365.22 324.545M1593.03 27.8602L1595.5 29.7302L1596.33 30.3597L1599.7 32.9044M1593.03 27.8602H1654.39M1593.03 27.8602H1531.67M1646.88 22.9923L1641.43 19.452L1639.64 18.2916M1646.88 22.9923L1653.44 27.242L1654.39 27.8602M1646.88 22.9923H1707.17M1639.64 18.2916H1698.89M1639.64 18.2916L1632.64 13.7501M1574.38 13.7501H1632.64M1574.38 13.7501L1572.19 12.0862L1568.58 9.35892M1574.38 13.7501H1516.13M1654.39 27.8602L1656.31 29.1039L1662.17 32.9044M1654.39 27.8602H1715.75M1707.17 22.9923L1698.89 18.2916M1707.17 22.9923L1715.75 27.8602M1698.89 18.2916L1692.86 14.8709L1690.89 13.7501M1632.64 13.7501H1690.89M1632.64 13.7501L1625.87 9.35892M1715.75 27.8602L1724.64 32.9044M1749.14 13.7501L1748.03 13.1925L1740.43 9.35892M1749.14 13.7501H1690.89M1690.89 13.7501L1687.95 12.0862L1683.15 9.35892M1599.7 32.9044H1662.17M1599.7 32.9044H1537.23M1670.23 38.1344L1662.17 32.9044M1670.23 38.1344L1678.6 43.5607M1670.23 38.1344H1733.85M1662.17 32.9044H1724.64M1537.23 32.9044H1474.76M1537.23 32.9044L1531.67 27.8602M1724.64 32.9044L1733.85 38.1344M1531.67 27.8602H1470.31M1678.6 43.5607L1683.99 47.0573L1685.08 47.766L1687.28 49.1947M1678.6 43.5607H1743.41M1733.85 38.1344L1743.41 43.5607M1743.41 43.5607L1753.34 49.1947M1621.23 49.1947L1628.96 55.0494M1621.23 49.1947H1687.28M1621.23 49.1947H1555.17M1687.28 49.1947L1696.31 55.0494M1687.28 49.1947H1753.34M1753.34 49.1947L1763.66 55.0494M1628.96 55.0494H1696.31M1628.96 55.0494H1561.62M1705.69 61.1367L1699.79 57.3039L1698.62 56.5484L1696.31 55.0494M1705.69 61.1367L1715.46 67.4714M1705.69 61.1367H1774.38M1696.31 55.0494H1763.66M1561.62 55.0494H1494.27M1561.62 55.0494L1555.17 49.1947M1763.66 55.0494L1774.38 61.1367M1555.17 49.1947H1489.11M1715.46 67.4714L1725.63 74.0687M1715.46 67.4714H1785.54M1774.38 61.1367L1785.54 67.4714M1785.54 67.4714L1797.17 74.0687M1654.1 74.0687L1658.59 77.4707L1659.73 78.333L1663.18 80.9456M1654.1 74.0687H1725.63M1654.1 74.0687H1582.56M1725.63 74.0687L1736.23 80.9456M1725.63 74.0687H1797.17M1797.17 74.0687L1809.29 80.9456M1663.18 80.9456H1736.23M1663.18 80.9456H1590.13M1747.3 88.1198L1736.23 80.9456M1747.3 88.1198L1758.85 95.6108M1747.3 88.1198H1821.93M1736.23 80.9456H1809.29M1590.13 80.9456H1517.08M1590.13 80.9456L1588.21 79.1993L1582.56 74.0687M1809.29 80.9456L1821.93 88.1198M1582.56 74.0687H1511.02M1758.85 95.6108L1770.92 103.441M1758.85 95.6108H1835.13M1821.93 88.1198L1835.13 95.6108M1835.13 95.6108L1848.92 103.441M1692.91 103.441L1703.74 111.634M1692.91 103.441H1770.92M1692.91 103.441H1614.91M1770.92 103.441L1783.55 111.634M1770.92 103.441H1848.92M1848.92 103.441L1863.36 111.634M1703.74 111.634H1783.55M1703.74 111.634H1623.93M1796.78 120.214L1783.55 111.634M1796.78 120.214L1810.65 129.211M1796.78 120.214H1878.48M1783.55 111.634H1863.36M1623.93 111.634H1544.12M1623.93 111.634L1614.91 103.441M1863.36 111.634L1878.48 120.214M1614.91 103.441H1536.9M1810.65 129.211L1825.21 138.655M1810.65 129.211H1894.33M1878.48 120.214L1894.33 129.211M1894.33 129.211L1910.97 138.655M1739.45 138.655L1752.56 148.58M1739.45 138.655H1825.21M1739.45 138.655H1653.69M1825.21 138.655L1840.51 148.58M1825.21 138.655H1910.97M1910.97 138.655L1928.46 148.58M1752.56 148.58H1840.51M1752.56 148.58H1664.62M1856.62 159.024L1840.51 148.58M1856.62 159.024L1873.58 170.03M1856.62 159.024H1946.86M1840.51 148.58H1928.46M1664.62 148.58H1576.67M1664.62 148.58L1653.69 138.655M1928.46 148.58L1946.86 159.024M1653.69 138.655H1567.92M1873.58 170.03L1891.49 181.644M1873.58 170.03H1966.26M1946.86 159.024L1966.26 170.03M1966.26 170.03L1986.72 181.644M1796.26 181.644L1812.48 193.916M1796.26 181.644H1891.49M1796.26 181.644H1701.03M1891.49 181.644L1910.41 193.916M1891.49 181.644H1986.72M1986.72 181.644L2008.34 193.916M1812.48 193.916H1910.41M1812.48 193.916H1714.54M1930.43 206.906L1910.41 193.916M1930.43 206.906L1951.67 220.676M1930.43 206.906H2031.23M1910.41 193.916H2008.34M1714.54 193.916H1616.61M1714.54 193.916L1701.03 181.644M2008.34 193.916L2031.23 206.906M1701.03 181.644H1605.8M1951.67 220.676L1974.22 235.303M1951.67 220.676H2055.49M2031.23 206.906L2055.49 220.676M2055.49 220.676L2081.27 235.303M1867.17 235.303L1887.73 250.865M1867.17 235.303H1974.22M1867.17 235.303H1760.12M1974.22 235.303L1998.21 250.865M1974.22 235.303H2081.27M2081.27 235.303L2108.69 250.865M1887.73 250.865H1998.21M1887.73 250.865H1777.26M2023.79 267.457L1998.21 250.865M2023.79 267.457L2051.12 285.184M2023.79 267.457H2137.92M1998.21 250.865H2108.69M1777.26 250.865H1666.78M1777.26 250.865L1760.12 235.303M2108.69 250.865L2137.92 267.457M1760.12 235.303H1653.07M2051.12 285.184L2080.39 304.167M2051.12 285.184H2169.16M2137.92 267.457L2169.16 285.184M2169.16 285.184L2202.61 304.167M1958.17 304.167L1985.1 324.545M1958.17 304.167H2080.39M1958.17 304.167H1835.96M2080.39 304.167L2111.81 324.545M2080.39 304.167H2202.61M2202.61 304.167L2238.51 324.545M1985.1 324.545H2111.81M1985.1 324.545H1858.4M2145.62 346.476L2111.81 324.545M2145.62 346.476L2182.11 370.145M2145.62 346.476H2277.15M2111.81 324.545H2238.51M1858.4 324.545H1731.69M1858.4 324.545L1835.96 304.167M2238.51 324.545L2277.15 346.476M2238.51 324.545H2365.22M1835.96 304.167H1713.74M2182.11 370.145L2221.62 395.769M2182.11 370.145H2318.86M2277.15 346.476L2318.86 370.145M2365.22 324.545H2448.1M2318.86 370.145L2364.01 395.769M2318.86 370.145H2448.1M2079.23 395.769L2116 423.598M2079.23 395.769H2221.62M2079.23 395.769H1936.84M2221.62 395.769L2264.52 423.598M2221.62 395.769H2364.01M2364.01 395.769L2413.04 423.598M2364.01 395.769H2448.1M2116 423.598H2264.52M2116 423.598H1967.48M2311.29 453.93L2264.52 423.598M2311.29 453.93L2362.46 487.12M2311.29 453.93H2448.1M2264.52 423.598H2413.04M1967.48 423.598H1818.96M1967.48 423.598L1936.84 395.769M2413.04 423.598H2448.1M2413.04 423.598L2448.1 443.493M1936.84 395.769H1794.44M2362.46 487.12L2418.69 523.592M2362.46 487.12H2448.1M2248.15 523.592L2301.36 563.857M2248.15 523.592H2418.69M2248.15 523.592H2077.6M2418.69 523.592L2448.1 542.667M2418.69 523.592H2448.1M2301.36 563.857H2121.94M2301.36 563.857L2448.1 563.856M2121.94 563.857H1942.53M2121.94 563.857L2077.6 523.592M2077.6 523.592H1907.06M1347.6 27.8602L1347.87 28.4808L1348.14 29.1039L1348.42 29.7302L1348.7 30.3597L1349.54 32.2635L1349.82 32.9044M1347.6 27.8602H1408.96M1347.6 27.8602H1286.24M1405.74 22.9923L1403.4 19.452L1402.63 18.2916M1405.74 22.9923L1407.74 26.0145L1408.96 27.8602M1405.74 22.9923H1466.03M1402.63 18.2916H1461.88M1402.63 18.2916L1400.37 14.8709L1399.63 13.7501M1341.38 13.7501L1341.14 13.1925L1340.17 10.988L1339.45 9.35892M1341.38 13.7501H1399.63M1341.38 13.7501H1283.13M1408.96 27.8602L1409.36 28.4808L1409.78 29.1039L1410.19 29.7302L1410.61 30.3597L1412.29 32.9044M1408.96 27.8602H1470.31M1466.03 22.9923L1462.91 19.452L1461.88 18.2916M1466.03 22.9923L1470.31 27.8602M1461.88 18.2916L1459.87 16.0015L1458.38 14.3093L1457.88 13.7501M1399.63 13.7501L1399.26 13.1925L1398.53 12.0862L1397.81 10.988L1397.45 10.4426L1396.73 9.35892M1399.63 13.7501H1457.88M1470.31 27.8602L1473.63 31.6259L1474.76 32.9044M1516.13 13.7501L1512.49 10.4426L1511.3 9.35892M1516.13 13.7501H1457.88M1457.88 13.7501L1454.49 9.89954L1454.01 9.35892M1349.82 32.9044H1412.29M1349.82 32.9044H1287.35M1415.74 38.1344L1412.29 32.9044M1415.74 38.1344L1419.33 43.5607M1415.74 38.1344H1479.36M1412.29 32.9044H1474.76M1287.35 32.9044H1224.88M1287.35 32.9044L1286.24 27.8602M1474.76 32.9044L1479.36 38.1344M1286.24 27.8602H1224.88M1419.33 43.5607L1420.25 44.949L1421.64 47.0573L1423.05 49.1947M1419.33 43.5607H1484.15M1479.36 38.1344L1479.95 38.801L1484.15 43.5607M1484.15 43.5607L1484.76 44.2532L1485.37 44.949L1485.99 45.6488L1489.11 49.1947M1356.99 49.1947L1359.57 55.0494M1356.99 49.1947H1423.05M1356.99 49.1947H1290.94M1423.05 49.1947L1426.92 55.0494M1423.05 49.1947H1489.11M1489.11 49.1947L1492.96 53.5641L1493.61 54.3051L1494.27 55.0494M1359.57 55.0494H1426.92M1359.57 55.0494H1292.23M1430.94 61.1367L1431.46 61.9149L1431.97 62.6964L1432.49 63.4826L1435.13 67.4714M1430.94 61.1367L1428.91 58.0627L1428.41 57.3039L1427.91 56.5484L1426.92 55.0494M1430.94 61.1367H1499.63M1426.92 55.0494H1494.27M1292.23 55.0494H1224.88M1292.23 55.0494L1290.94 49.1947M1494.27 55.0494L1499.63 61.1367M1290.94 49.1947H1224.88M1435.13 67.4714L1438.93 73.2291L1439.49 74.0687M1435.13 67.4714H1505.21M1499.63 61.1367L1501.01 62.6964L1505.21 67.4714M1505.21 67.4714L1507.36 69.9135L1511.02 74.0687M1367.95 74.0687L1369.45 77.4707L1369.83 78.333L1370.98 80.9456M1367.95 74.0687H1439.49M1367.95 74.0687H1296.42M1439.49 74.0687L1444.03 80.9456M1439.49 74.0687H1511.02M1511.02 74.0687L1517.08 80.9456M1370.98 80.9456H1444.03M1370.98 80.9456H1297.93M1448.77 88.1198L1444.03 80.9456M1448.77 88.1198L1453.72 95.6108M1448.77 88.1198H1523.4M1444.03 80.9456H1517.08M1297.93 80.9456H1224.88M1297.93 80.9456L1297.54 79.1993L1296.79 75.7608L1296.42 74.0687M1517.08 80.9456L1523.4 88.1198M1296.42 74.0687H1224.88M1453.72 95.6108L1457.58 101.451L1458.9 103.441M1453.72 95.6108H1530M1523.4 88.1198L1530 95.6108M1530 95.6108L1533.41 99.4824L1536.9 103.441M1380.89 103.441L1384.5 111.634M1380.89 103.441H1458.9M1380.89 103.441H1302.88M1458.9 103.441L1464.31 111.634M1458.9 103.441H1536.9M1536.9 103.441L1544.12 111.634M1384.5 111.634H1464.31M1384.5 111.634H1304.69M1469.98 120.214L1468.54 118.031L1464.31 111.634M1469.98 120.214L1475.92 129.211M1469.98 120.214H1551.68M1464.31 111.634H1544.12M1304.69 111.634H1224.88M1304.69 111.634L1302.88 103.441M1544.12 111.634L1551.68 120.214M1302.88 103.441H1224.88M1475.92 129.211L1482.16 138.655M1475.92 129.211H1559.6M1551.68 120.214L1559.6 129.211M1559.6 129.211L1567.92 138.655M1396.4 138.655L1400.77 148.58M1396.4 138.655H1482.16M1396.4 138.655H1310.64M1482.16 138.655L1488.72 148.58M1482.16 138.655H1567.92M1567.92 138.655L1576.67 148.58M1400.77 148.58H1488.72M1400.77 148.58H1312.83M1495.62 159.024L1488.72 148.58M1495.62 159.024L1502.9 170.03M1495.62 159.024H1585.87M1488.72 148.58H1576.67M1312.83 148.58H1224.88M1312.83 148.58L1310.91 139.869L1310.64 138.655M1576.67 148.58L1585.87 159.024M1310.64 138.655H1224.88M1502.9 170.03L1510.57 181.644M1502.9 170.03H1595.57M1585.87 159.024L1593.09 167.224L1595.57 170.03M1595.57 170.03L1605.8 181.644M1415.34 181.644L1420.74 193.916M1415.34 181.644H1510.57M1415.34 181.644H1320.11M1510.57 181.644L1518.68 193.916M1510.57 181.644H1605.8M1605.8 181.644L1616.61 193.916M1420.74 193.916H1518.68M1420.74 193.916H1322.81M1527.26 206.906L1518.68 193.916M1527.26 206.906L1536.36 220.676M1527.26 206.906H1628.05M1518.68 193.916H1616.61M1322.81 193.916H1224.88M1322.81 193.916L1320.11 181.644M1616.61 193.916L1628.05 206.906M1320.11 181.644H1224.88M1536.36 220.676L1546.02 235.303M1536.36 220.676H1640.19M1628.05 206.906L1640.19 220.676M1640.19 220.676L1653.07 235.303M1438.98 235.303L1445.83 250.865M1438.98 235.303H1546.02M1438.98 235.303H1331.93M1546.02 235.303L1556.31 250.865M1546.02 235.303H1653.07M1653.07 235.303L1666.78 250.865M1445.83 250.865H1556.31M1445.83 250.865H1335.35M1567.27 267.457L1556.31 250.865M1567.27 267.457L1578.98 285.184M1567.27 267.457H1681.4M1556.31 250.865H1666.78M1335.35 250.865H1224.88M1335.35 250.865L1331.93 235.303M1666.78 250.865L1681.4 267.457M1331.93 235.303H1224.88M1578.98 285.184L1591.53 304.167M1578.98 285.184H1697.02M1681.4 267.457L1697.02 285.184M1697.02 285.184L1713.74 304.167M1469.31 304.167L1478.29 324.545M1469.31 304.167H1591.53M1469.31 304.167H1347.1M1591.53 304.167L1604.99 324.545M1591.53 304.167H1713.74M1713.74 304.167L1731.69 324.545M1478.29 324.545H1604.99M1478.29 324.545H1351.58M1619.48 346.476L1604.99 324.545M1619.48 346.476L1635.12 370.145M1619.48 346.476H1751.02M1604.99 324.545H1731.69M1351.58 324.545H1224.88M1351.58 324.545L1347.1 304.167M1731.69 324.545L1751.02 346.476M1347.1 304.167H1224.88M1635.12 370.145L1652.05 395.769M1635.12 370.145H1771.87M1751.02 346.476L1771.87 370.145M1771.87 370.145L1794.44 395.769M1509.66 395.769L1521.92 423.598M1509.66 395.769H1652.05M1509.66 395.769H1367.27M1652.05 395.769L1670.44 423.598M1652.05 395.769H1794.44M1794.44 395.769L1818.96 423.598M1521.92 423.598H1670.44M1521.92 423.598H1373.4M1690.48 453.93L1670.44 423.598M1690.48 453.93L1712.41 487.12M1690.48 453.93H1845.69M1670.44 423.598H1818.96M1373.4 423.598H1224.88M1373.4 423.598L1367.27 395.769M1818.96 423.598L1845.69 453.93M1367.27 395.769H1224.88M1712.41 487.12L1736.51 523.592M1712.41 487.12H1874.93M1845.69 453.93L1874.93 487.12M1874.93 487.12L1907.06 523.592M1565.97 523.592L1583.7 563.857M1565.97 523.592H1736.51M1565.97 523.592H1395.42M1736.51 523.592L1763.12 563.857M1736.51 523.592H1907.06M1907.06 523.592L1942.53 563.857M1763.12 563.857H1583.7M1763.12 563.857H1942.53M1583.7 563.857H1404.29M1404.29 563.857H1224.88M1404.29 563.857L1395.42 523.592M1395.42 523.592H1224.88M1102.16 27.8602L1101.89 28.4808L1101.61 29.1039L1101.34 29.7302L1101.06 30.3597L1100.5 31.6259L1100.22 32.2635L1099.94 32.9044M1102.16 27.8602H1163.52M1102.16 27.8602H1040.8M1164.59 22.9923L1165.63 18.2916M1164.59 22.9923L1163.52 27.8602M1164.59 22.9923H1224.88M1165.63 18.2916L1165.75 17.7154L1165.88 17.1417L1166.01 16.5703L1166.63 13.7501M1165.63 18.2916H1224.88M1108.38 13.7501L1108.62 13.1925L1109.59 10.988L1110.31 9.35892M1108.38 13.7501H1166.63M1108.38 13.7501H1050.13M1163.52 27.8602L1163.38 28.4808L1163.25 29.1039L1163.11 29.7302L1162.41 32.9044M1163.52 27.8602H1224.88M1224.88 22.9923V18.2916M1224.88 22.9923V27.8602M1224.88 18.2916V13.7501M1166.63 13.7501H1224.88M1166.63 13.7501L1166.99 12.0862L1167.12 11.5359L1167.6 9.35892M1224.88 27.8602V32.9044M1283.13 13.7501L1282.76 12.0862L1282.64 11.5359L1282.52 10.988L1282.4 10.4426L1282.28 9.89954L1282.16 9.35892M1283.13 13.7501H1224.88M1224.88 13.7501V9.35892M1099.94 32.9044H1162.41M1099.94 32.9044H1037.47M1161.26 38.1344L1161.11 38.801L1160.96 39.4717L1160.06 43.5607M1161.26 38.1344L1162.41 32.9044M1161.26 38.1344H1224.88M1162.41 32.9044H1224.88M1037.47 32.9044H975.001M1037.47 32.9044L1038.31 31.6259L1038.73 30.9916L1039.15 30.3597L1039.57 29.7302L1039.98 29.1039L1040.39 28.4808L1040.8 27.8602M1224.88 32.9044V38.1344M1040.8 27.8602H979.444M1160.06 43.5607L1158.82 49.1947M1160.06 43.5607H1224.88M1224.88 38.1344V43.5607M1224.88 43.5607V49.1947M1092.76 49.1947L1090.18 55.0494M1092.76 49.1947H1158.82M1092.76 49.1947H1026.71M1158.82 49.1947L1157.53 55.0494M1158.82 49.1947H1224.88M1224.88 49.1947V55.0494M1090.18 55.0494H1157.53M1090.18 55.0494H1022.84M1156.19 61.1367L1157.53 55.0494M1156.19 61.1367L1154.8 67.4714M1156.19 61.1367H1224.88M1157.53 55.0494H1224.88M1022.84 55.0494H955.49M1022.84 55.0494L1026.71 49.1947M1224.88 55.0494V61.1367M1026.71 49.1947H960.648M1154.8 67.4714L1154.26 69.9135L1153.71 72.3935L1153.34 74.0687M1154.8 67.4714H1224.88M1224.88 61.1367V67.4714M1224.88 67.4714V74.0687M1081.81 74.0687L1080.31 77.4707L1079.93 78.333L1078.78 80.9456M1081.81 74.0687H1153.34M1081.81 74.0687H1010.27M1153.34 74.0687L1152.97 75.7608L1152.21 79.1993L1151.83 80.9456M1153.34 74.0687H1224.88M1224.88 74.0687V80.9456M1078.78 80.9456H1151.83M1078.78 80.9456H1005.73M1150.25 88.1198L1150.45 87.2058L1151.83 80.9456M1150.25 88.1198L1148.6 95.6108M1150.25 88.1198H1224.88M1151.83 80.9456H1224.88M1005.73 80.9456H932.676M1005.73 80.9456L1010.27 74.0687M1224.88 80.9456V88.1198M1010.27 74.0687H938.733M1148.6 95.6108L1146.87 103.441M1148.6 95.6108H1224.88M1224.88 88.1198V95.6108M1224.88 95.6108V103.441M1068.87 103.441L1065.26 111.634M1068.87 103.441H1146.87M1068.87 103.441H990.862M1146.87 103.441L1145.07 111.634M1146.87 103.441H1224.88M1224.88 103.441V111.634M1065.26 111.634H1145.07M1065.26 111.634H985.449M1143.18 120.214L1145.07 111.634M1143.18 120.214L1141.2 129.211M1143.18 120.214H1224.88M1145.07 111.634H1224.88M985.449 111.634H905.639M985.449 111.634L990.862 103.441M1224.88 111.634V120.214M990.862 103.441H912.856M1141.2 129.211L1139.12 138.655M1141.2 129.211H1224.88M1224.88 120.214V129.211M1224.88 129.211V138.655M1053.36 138.655L1048.98 148.58M1053.36 138.655H1139.12M1053.36 138.655H967.595M1139.12 138.655L1136.93 148.58M1139.12 138.655H1224.88M1224.88 138.655V148.58M1048.98 148.58H1136.93M1048.98 148.58H961.037M1134.63 159.024L1136.93 148.58M1134.63 159.024L1132.21 170.03M1134.63 159.024H1224.88M1136.93 148.58H1224.88M961.037 148.58H873.089M961.037 148.58L967.595 138.655M1224.88 148.58V159.024M967.595 138.655H881.833M1132.21 170.03L1129.65 181.644M1132.21 170.03H1224.88M1224.88 159.024V170.03M1224.88 170.03V181.644M1034.42 181.644L1029.01 193.916M1034.42 181.644H1129.65M1034.42 181.644H939.19M1129.65 181.644L1126.95 193.916M1129.65 181.644H1224.88M1224.88 181.644V193.916M1029.01 193.916H1126.95M1029.01 193.916H931.081M1124.09 206.906L1126.95 193.916M1124.09 206.906L1121.05 220.676M1124.09 206.906H1224.88M1126.95 193.916H1224.88M931.081 193.916H833.148M931.081 193.916L939.19 181.644M1224.88 193.916V206.906M939.19 181.644H843.959M1121.05 220.676L1117.83 235.303M1121.05 220.676H1224.88M1224.88 206.906V220.676M1224.88 220.676V235.303M1010.78 235.303L1003.93 250.865M1010.78 235.303H1117.83M1010.78 235.303H903.734M1117.83 235.303L1114.4 250.865M1117.83 235.303H1224.88M1224.88 235.303V250.865M1003.93 250.865H1114.4M1003.93 250.865H893.451M1110.75 267.457L1114.4 250.865M1110.75 267.457L1106.84 285.184M1110.75 267.457H1224.88M1114.4 250.865H1224.88M893.451 250.865H782.975M893.451 250.865L903.734 235.303M1224.88 250.865V267.457M903.734 235.303H796.686M1106.84 285.184L1102.66 304.167M1106.84 285.184H1224.88M1224.88 267.457V285.184M1224.88 285.184V304.167M980.448 304.167L971.471 324.545M980.448 304.167H1102.66M980.448 304.167H858.232M1102.66 304.167L1098.18 324.545M1102.66 304.167H1224.88M1224.88 304.167V324.545M971.471 324.545H1098.18M971.471 324.545H844.767M1093.34 346.476L1098.18 324.545M1093.34 346.476L1088.13 370.145M1093.34 346.476H1224.88M1098.18 324.545H1224.88M844.767 324.545H718.063M844.767 324.545L858.232 304.167M1224.88 324.545V346.476M858.232 304.167H736.015M1088.13 370.145L1082.49 395.769M1088.13 370.145H1224.88M1224.88 346.476V370.145M1224.88 370.145V395.769M940.097 395.769L927.838 423.598M940.097 395.769H1082.49M940.097 395.769H797.705M1082.49 395.769L1076.36 423.598M1082.49 395.769H1224.88M1224.88 395.769V423.598M927.838 423.598H1076.36M927.838 423.598H779.317M1069.68 453.93L1076.36 423.598M1069.68 453.93L1062.37 487.12M1069.68 453.93H1224.88M1076.36 423.598H1224.88M779.317 423.598H630.797M779.317 423.598L797.705 395.769M1224.88 423.598V453.93M797.705 395.769H655.315M1062.37 487.12L1054.33 523.592M1062.37 487.12H1224.88M1224.88 453.93V487.12M1224.88 487.12V523.592M883.791 523.592L866.054 563.857M883.791 523.592H1054.33M883.791 523.592H713.246M1054.33 523.592L1045.47 563.857M1054.33 523.592H1224.88M1224.88 523.592V563.857M1045.47 563.857H866.054M1045.47 563.857H1224.88M866.054 563.857H686.641M686.641 563.857H507.227M686.641 563.857L713.246 523.592M713.246 523.592H542.701M856.727 27.8602L853.424 30.3597L850.061 32.9044M856.727 27.8602H918.085M856.727 27.8602H795.368M923.446 22.9923L928.623 18.2916M923.446 22.9923L918.085 27.8602M923.446 22.9923H983.733M928.623 18.2916H987.874M928.623 18.2916L932.389 14.8709L933.624 13.7501M875.373 13.7501H933.624M875.373 13.7501L877.572 12.0862L881.176 9.35892M875.373 13.7501H817.122M918.085 27.8602L912.531 32.9044M918.085 27.8602H979.444M983.733 22.9923L987.874 18.2916M983.733 22.9923L979.444 27.8602M987.874 18.2916L989.892 16.0015L991.383 14.3093L991.875 13.7501M933.624 13.7501H991.875M933.624 13.7501L937.266 10.4426L938.459 9.35892M979.444 27.8602L976.126 31.6259L975.001 32.9044M1050.13 13.7501L1050.49 13.1925L1051.23 12.0862L1052.31 10.4426L1053.03 9.35892M1050.13 13.7501H991.875M991.875 13.7501L992.365 13.1925L993.341 12.0862L995.743 9.35892M850.061 32.9044H912.531M850.061 32.9044H787.591M906.77 38.1344L907.503 37.4701L908.231 36.8083L911.11 34.1933L912.531 32.9044M906.77 38.1344L902.31 42.1845L900.795 43.5607M906.77 38.1344H970.393M912.531 32.9044H975.001M787.591 32.9044H725.121M787.591 32.9044L793.449 29.1039L795.368 27.8602M975.001 32.9044L970.393 38.1344M795.368 27.8602H734.008M900.795 43.5607L900.033 44.2532L899.265 44.949L896.945 47.0573L896.163 47.766L894.59 49.1947M900.795 43.5607H965.611M970.393 38.1344L969.805 38.801L965.611 43.5607M965.611 43.5607L965.002 44.2532L964.388 44.949L963.773 45.6488L960.648 49.1947M828.533 49.1947L820.796 55.0494M828.533 49.1947H894.59M828.533 49.1947H762.475M894.59 49.1947L888.143 55.0494M894.59 49.1947H960.648M960.648 49.1947L955.49 55.0494M820.796 55.0494H888.143M820.796 55.0494H753.449M881.44 61.1367L888.143 55.0494M881.44 61.1367L874.463 67.4714M881.44 61.1367H950.127M888.143 55.0494H955.49M753.449 55.0494H686.101M753.449 55.0494L762.475 49.1947M955.49 55.0494L950.127 61.1367M762.475 49.1947H696.416M874.463 67.4714L867.198 74.0687M874.463 67.4714H944.546M950.127 61.1367L948.752 62.6964L944.546 67.4714M944.546 67.4714L942.394 69.9135L940.209 72.3935L938.733 74.0687M795.661 74.0687L791.165 77.4707L786.574 80.9456M795.661 74.0687H867.198M795.661 74.0687H724.125M867.198 74.0687L859.624 80.9456M867.198 74.0687H938.733M938.733 74.0687L932.676 80.9456M786.574 80.9456H859.624M786.574 80.9456H713.523M851.724 88.1198L859.624 80.9456M851.724 88.1198L843.474 95.6108M851.724 88.1198H926.355M859.624 80.9456H932.676M713.523 80.9456H640.471M713.523 80.9456L724.125 74.0687M932.676 80.9456L926.355 88.1198M724.125 74.0687H652.589M843.474 95.6108L841.354 97.5357L834.851 103.441M843.474 95.6108H919.754M926.355 88.1198L919.754 95.6108M919.754 95.6108L918.91 96.5709L916.345 99.4824L912.856 103.441M756.846 103.441L746.019 111.634M756.846 103.441H834.851M756.846 103.441H678.84M834.851 103.441L825.829 111.634M834.851 103.441H912.856M912.856 103.441L905.639 111.634M746.019 111.634H825.829M746.019 111.634H666.209M816.38 120.214L822.338 114.805L825.829 111.634M816.38 120.214L806.471 129.211M816.38 120.214H898.079M825.829 111.634H905.639M666.209 111.634H586.399M666.209 111.634L678.84 103.441M905.639 111.634L898.079 120.214M678.84 103.441H600.834M806.471 129.211L796.072 138.655M806.471 129.211H890.154M898.079 120.214L890.154 129.211M890.154 129.211L881.833 138.655M710.31 138.655L697.193 148.58M710.31 138.655H796.072M710.31 138.655H624.549M796.072 138.655L785.142 148.58M796.072 138.655H881.833M881.833 138.655L873.089 148.58M697.193 148.58H785.142M697.193 148.58H609.246M773.64 159.024L785.142 148.58M773.64 159.024L761.519 170.03M773.64 159.024H863.888M785.142 148.58H873.089M609.246 148.58H521.299M609.246 148.58L624.549 138.655M873.089 148.58L863.888 159.024M624.549 138.655H538.788M761.519 170.03L748.73 181.644M761.519 170.03H854.191M863.888 159.024L854.191 170.03M854.191 170.03L843.959 181.644M653.5 181.644L637.282 193.916M653.5 181.644H748.73M653.5 181.644H558.27M748.73 181.644L735.215 193.916M748.73 181.644H843.959M843.959 181.644L833.148 193.916M637.282 193.916H735.215M637.282 193.916H539.349M720.91 206.906L735.215 193.916M720.91 206.906L705.744 220.676M720.91 206.906H821.704M735.215 193.916H833.148M539.349 193.916H441.417M539.349 193.916L558.27 181.644M833.148 193.916L821.704 206.906M558.27 181.644H463.041M705.744 220.676L689.637 235.303M705.744 220.676H809.572M821.704 206.906L809.572 220.676M809.572 220.676L796.686 235.303M582.589 235.303L562.024 250.865M582.589 235.303H689.637M582.589 235.303H475.541M689.637 235.303L672.5 250.865M689.637 235.303H796.686M796.686 235.303L782.975 250.865M562.024 250.865H672.5M562.024 250.865H451.548M654.228 267.457L672.5 250.865M654.228 267.457L634.705 285.184M654.228 267.457H768.358M672.5 250.865H782.975M451.548 250.865H341.072M451.548 250.865L475.541 235.303M782.975 250.865L768.358 267.457M475.541 235.303H368.492M634.705 285.184L613.8 304.167M634.705 285.184H752.74M768.358 267.457L752.74 285.184M752.74 285.184L736.015 304.167M491.584 304.167L464.655 324.545M491.584 304.167H613.8M491.584 304.167H369.368M613.8 304.167L591.359 324.545M613.8 304.167H736.015M736.015 304.167L718.063 324.545M464.655 324.545H591.359M464.655 324.545H337.951M567.207 346.476L591.359 324.545M567.207 346.476L541.141 370.145M567.207 346.476H698.741M591.359 324.545H718.063M337.951 324.545H211.247M337.951 324.545L369.368 304.167M718.063 324.545L698.741 346.476M369.368 304.167H247.151M541.141 370.145L512.923 395.769M541.141 370.145H677.888M698.741 346.476L677.888 370.145M677.888 370.145L655.315 395.769M370.532 395.769L333.755 423.598M370.532 395.769H512.923M370.532 395.769H228.141M512.923 395.769L482.276 423.598M512.923 395.769H655.315M655.315 395.769L630.797 423.598M333.755 423.598H482.276M333.755 423.598H185.235M448.872 453.93L482.276 423.598M448.872 453.93L412.321 487.12M448.872 453.93H604.073M482.276 423.598H630.797M185.235 423.598H36.7142M185.235 423.598L228.141 395.769M630.797 423.598L604.073 453.93M228.141 395.769H85.7501M412.321 487.12L372.157 523.592M412.321 487.12H574.833M604.073 453.93L574.833 487.12M574.833 487.12L542.701 523.592M201.612 523.592L148.402 563.857M201.612 523.592H372.157M201.612 523.592H31.067M372.157 523.592L327.815 563.857M372.157 523.592H542.701M542.701 523.592L507.227 563.857M327.815 563.857H148.402M327.815 563.857H507.227M148.402 563.857L1.65876 563.856M31.067 523.592L1.65876 542.667M31.067 523.592H1.65876M611.291 27.8602L600.182 32.9044M611.291 27.8602H672.65M611.291 27.8602H549.933M682.299 22.9923L691.617 18.2916M682.299 22.9923L672.65 27.8602M682.299 22.9923H742.586M691.617 18.2916H750.868M691.617 18.2916L700.621 13.7501M642.369 13.7501H700.621M642.369 13.7501L646.035 12.0862L652.041 9.35892M642.369 13.7501H584.118M672.65 27.8602L662.651 32.9044M672.65 27.8602H734.008M742.586 22.9923L750.868 18.2916M742.586 22.9923L734.008 27.8602M750.868 18.2916L756.897 14.8709L758.872 13.7501M700.621 13.7501L701.724 13.1925L709.325 9.35892M700.621 13.7501H758.872M734.008 27.8602L725.121 32.9044M817.122 13.7501L823.892 9.35892M817.122 13.7501H758.872M758.872 13.7501L761.804 12.0862L766.609 9.35892M600.182 32.9044H662.651M600.182 32.9044H537.712M652.284 38.1344L662.651 32.9044M652.284 38.1344L641.528 43.5607M652.284 38.1344H715.906M662.651 32.9044H725.121M537.712 32.9044H475.242M537.712 32.9044L549.933 27.8602M725.121 32.9044L715.906 38.1344M549.933 27.8602H488.574M641.528 43.5607L638.774 44.949L630.358 49.1947M641.528 43.5607H706.345M715.906 38.1344L706.345 43.5607M706.345 43.5607L696.416 49.1947M564.301 49.1947L562.717 49.9147L551.407 55.0494M564.301 49.1947H630.358M564.301 49.1947H498.243M630.358 49.1947L618.754 55.0494M630.358 49.1947H696.416M696.416 49.1947L695.15 49.9147L686.101 55.0494M551.407 55.0494H618.754M551.407 55.0494H484.06M606.688 61.1367L618.754 55.0494M606.688 61.1367L594.131 67.4714M606.688 61.1367H675.375M618.754 55.0494H686.101M484.06 55.0494H416.713M484.06 55.0494L498.243 49.1947M686.101 55.0494L675.375 61.1367M498.243 49.1947H432.185M594.131 67.4714L581.052 74.0687M594.131 67.4714H664.214M675.375 61.1367L664.214 67.4714M664.214 67.4714L652.589 74.0687M509.517 74.0687L494.371 80.9456M509.517 74.0687H581.052M509.517 74.0687H437.98M581.052 74.0687L567.421 80.9456M581.052 74.0687H652.589M652.589 74.0687L640.471 80.9456M494.371 80.9456H567.421M494.371 80.9456H421.319M553.2 88.1198L567.421 80.9456M553.2 88.1198L538.349 95.6108M553.2 88.1198H627.83M567.421 80.9456H640.471M421.319 80.9456H348.268M421.319 80.9456L437.98 74.0687M640.471 80.9456L627.83 88.1198M437.98 74.0687H366.443M538.349 95.6108L522.828 103.441M538.349 95.6108H614.631M627.83 88.1198L614.631 95.6108M614.631 95.6108L600.834 103.441M444.823 103.441L426.779 111.634M444.823 103.441H522.828M444.823 103.441H366.817M522.828 103.441L506.589 111.634M522.828 103.441H600.834M600.834 103.441L586.399 111.634M426.779 111.634H506.589M426.779 111.634H346.969M489.58 120.214L506.589 111.634M489.58 120.214L471.746 129.211M489.58 120.214H571.279M506.589 111.634H586.399M346.969 111.634H267.159M346.969 111.634L366.817 103.441M586.399 111.634L571.279 120.214M366.817 103.441H288.811M471.746 129.211L453.026 138.655M471.746 129.211H555.427M571.279 120.214L555.427 129.211M555.427 129.211L538.788 138.655M367.264 138.655L345.404 148.58M367.264 138.655H453.026M367.264 138.655H281.504M453.026 138.655L433.351 148.58M453.026 138.655H538.788M538.788 138.655L521.299 148.58M345.404 148.58H433.351M345.404 148.58H257.456M412.647 159.024L433.351 148.58M412.647 159.024L390.831 170.03M412.647 159.024H502.895M433.351 148.58H521.299M257.456 148.58H169.509M257.456 148.58L281.504 138.655M521.299 148.58L502.895 159.024M281.504 138.655H195.742M390.831 170.03L367.811 181.644M390.831 170.03H483.503M502.895 159.024L483.503 170.03M483.503 170.03L463.041 181.644M272.58 181.644L245.551 193.916M272.58 181.644H367.811M272.58 181.644H177.351M367.811 181.644L343.484 193.916M367.811 181.644H463.041M463.041 181.644L441.417 193.916M245.551 193.916H343.484M245.551 193.916H147.618M317.735 206.906L343.484 193.916M317.735 206.906L290.437 220.676M317.735 206.906H418.528M343.484 193.916H441.417M147.618 193.916H49.6854M147.618 193.916L177.351 181.644M441.417 193.916L418.528 206.906M177.351 181.644H82.1212M290.437 220.676L261.444 235.303M290.437 220.676H394.264M418.528 206.906L394.264 220.676M394.264 220.676L368.492 235.303M154.396 235.303L120.12 250.865M154.396 235.303H261.444M154.396 235.303H47.3473M261.444 235.303L230.596 250.865M261.444 235.303H368.492M368.492 235.303L341.072 250.865M120.12 250.865H230.596M120.12 250.865H9.6441M197.705 267.457L230.596 250.865M197.705 267.457L162.566 285.184M197.705 267.457H311.836M230.596 250.865H341.072M9.6441 250.865L47.3473 235.303M9.6441 250.865H1.65876M9.6441 250.865L1.65876 254.161M341.072 250.865L311.836 267.457M47.3473 235.303H1.65876M162.566 285.184L124.936 304.167M162.566 285.184H280.6M311.836 267.457L280.6 285.184M280.6 285.184L247.151 304.167M2.72016 304.167H124.936M2.72016 304.167H1.65876M2.72016 304.167L1.65876 304.649M124.936 304.167L84.5421 324.545M124.936 304.167H247.151M247.151 304.167L211.247 324.545M41.0694 346.476L84.5421 324.545M41.0694 346.476H172.604M41.0694 346.476H1.65876M41.0694 346.476L1.65876 366.357M84.5421 324.545H211.247M84.5421 324.545H1.65876M211.247 324.545L172.604 346.476M172.604 346.476L130.898 370.145M130.898 370.145L85.7501 395.769M130.898 370.145H1.65876M85.7501 395.769L36.7142 423.598M85.7501 395.769H1.65876M36.7142 423.598H1.65876M36.7142 423.598L1.65876 443.493M365.856 27.8602L350.303 32.9044M365.856 27.8602H427.216M365.856 27.8602H304.498M441.153 22.9923L454.612 18.2916M441.153 22.9923L427.216 27.8602M441.153 22.9923H501.44M454.612 18.2916H513.863M454.612 18.2916L467.616 13.7501M409.366 13.7501H467.616M409.366 13.7501L422.905 9.35892M409.366 13.7501H351.115M427.216 27.8602L412.773 32.9044M427.216 27.8602H488.574M501.44 22.9923L513.863 18.2916M501.44 22.9923L488.574 27.8602M513.863 18.2916L525.867 13.7501M467.616 13.7501L469.211 13.1925L480.189 9.35892M467.616 13.7501H525.867M488.574 27.8602L475.242 32.9044M584.118 13.7501L594.756 9.35892M584.118 13.7501H525.867M525.867 13.7501L527.339 13.1925L537.473 9.35892M350.303 32.9044H412.773M350.303 32.9044H287.834M397.797 38.1344L412.773 32.9044M397.797 38.1344L382.26 43.5607M397.797 38.1344H461.42M412.773 32.9044H475.242M287.834 32.9044H225.364M287.834 32.9044L304.498 27.8602M475.242 32.9044L461.42 38.1344M304.498 27.8602H243.139M382.26 43.5607L366.127 49.1947M382.26 43.5607H447.077M461.42 38.1344L459.655 38.801L447.077 43.5607M447.077 43.5607L432.185 49.1947M300.07 49.1947L282.018 55.0494M300.07 49.1947H366.127M300.07 49.1947H234.012M366.127 49.1947L349.366 55.0494M366.127 49.1947H432.185M432.185 49.1947L416.713 55.0494M282.018 55.0494H349.366M282.018 55.0494H214.671M331.936 61.1367L349.366 55.0494M331.936 61.1367L313.798 67.4714M331.936 61.1367H400.624M349.366 55.0494H416.713M214.671 55.0494H147.324M214.671 55.0494L234.012 49.1947M416.713 55.0494L400.624 61.1367M234.012 49.1947H167.954M313.798 67.4714L294.908 74.0687M313.798 67.4714H383.881M400.624 61.1367L383.881 67.4714M383.881 67.4714L366.443 74.0687M223.371 74.0687L202.166 80.9456M223.371 74.0687H294.908M223.371 74.0687H151.835M294.908 74.0687L275.218 80.9456M294.908 74.0687H366.443M366.443 74.0687L348.268 80.9456M202.166 80.9456H275.218M202.166 80.9456H129.116M254.676 88.1198L275.218 80.9456M254.676 88.1198L233.226 95.6108M254.676 88.1198H329.307M275.218 80.9456H348.268M129.116 80.9456H56.0653M129.116 80.9456L151.835 74.0687M348.268 80.9456L329.307 88.1198M151.835 74.0687H80.2991M233.226 95.6108L210.805 103.441M233.226 95.6108H309.506M329.307 88.1198L309.506 95.6108M309.506 95.6108L288.811 103.441M132.799 103.441L107.539 111.634M132.799 103.441H210.805M132.799 103.441H54.7949M210.805 103.441L187.349 111.634M210.805 103.441H288.811M288.811 103.441L267.159 111.634M107.539 111.634H187.349M162.78 120.214L187.349 111.634M162.78 120.214L137.021 129.211M162.78 120.214H244.481M187.349 111.634H267.159M267.159 111.634L244.481 120.214M54.7949 103.441H1.65876M137.021 129.211L109.98 138.655M137.021 129.211H220.702M244.481 120.214L220.702 129.211M220.702 129.211L195.742 138.655M24.2183 138.655H109.98M24.2183 138.655H1.65876M24.2183 138.655L1.65876 145.971M109.98 138.655L81.5605 148.58M109.98 138.655H195.742M195.742 138.655L169.509 148.58M51.6553 159.024L81.5605 148.58M51.6553 159.024L20.1434 170.03M51.6553 159.024H141.904M51.6553 159.024H1.65876M81.5605 148.58H169.509M81.5605 148.58H1.65876M169.509 148.58L141.904 159.024M1.4103 146.051L1.65876 145.971M20.1434 170.03H112.815M20.1434 170.03H1.65876M20.1434 170.03L1.65876 176.486M141.904 159.024L112.815 170.03M112.815 170.03L82.1212 181.644M82.1212 181.644L49.6854 193.916M82.1212 181.644H1.65876M15.3537 206.906L49.6854 193.916M15.3537 206.906H1.65876M15.3537 206.906L1.65876 212.087M49.6854 193.916H1.65876M120.422 27.8602L100.425 32.9044M120.422 27.8602H181.781M120.422 27.8602H59.0622M200.006 22.9923L217.607 18.2916M200.006 22.9923L181.781 27.8602M200.006 22.9923H260.293M217.607 18.2916H276.858M217.607 18.2916L234.612 13.7501M176.361 13.7501H234.612M176.361 13.7501L193.769 9.35892M176.361 13.7501H118.111M181.781 27.8602L162.894 32.9044M181.781 27.8602H243.139M260.293 22.9923L276.858 18.2916M260.293 22.9923L243.139 27.8602M276.858 18.2916L292.863 13.7501M234.612 13.7501H292.863M234.612 13.7501L251.054 9.35892M243.139 27.8602L225.364 32.9044M351.115 13.7501L365.622 9.35892M351.115 13.7501H292.863M292.863 13.7501L308.338 9.35892M100.425 32.9044H162.894M100.425 32.9044H37.9553M143.311 38.1344L162.894 32.9044M143.311 38.1344L122.993 43.5607M143.311 38.1344H206.933M162.894 32.9044H225.364M37.9553 32.9044L59.0622 27.8602M37.9553 32.9044H1.65876M225.364 32.9044L206.933 38.1344M59.0622 27.8602H1.65876M122.993 43.5607L101.897 49.1947M122.993 43.5607H187.81M206.933 38.1344L187.81 43.5607M187.81 43.5607L167.954 49.1947M35.8388 49.1947L12.6295 55.0494M35.8388 49.1947H101.897M35.8388 49.1947H1.65876M101.897 49.1947L79.9767 55.0494M101.897 49.1947H167.954M167.954 49.1947L147.324 55.0494M57.184 61.1367L79.9767 55.0494M57.184 61.1367L33.465 67.4714M57.184 61.1367H125.872M57.184 61.1367H1.65876M79.9767 55.0494H12.6295M79.9767 55.0494H147.324M12.6295 55.0494L1.65876 57.8163M12.6295 55.0494H1.65876M147.324 55.0494L125.872 61.1367M33.465 67.4714L8.76236 74.0687M33.465 67.4714H103.548M33.465 67.4714H1.65876M125.872 61.1367L103.548 67.4714M103.548 67.4714L80.2991 74.0687M8.76236 74.0687H80.2991M8.76236 74.0687L1.65876 75.9655M8.76236 74.0687H1.65876M80.2991 74.0687L56.0653 80.9456M30.7829 88.1198L56.0653 80.9456M30.7829 88.1198L4.38298 95.6108M30.7829 88.1198H1.65876M56.0653 80.9456H1.65876M1.2765 80.9456H1.65876M4.38298 95.6108H1.65876M4.38298 95.6108L1.65876 96.3839M1 96.5709L1.65876 96.3839M19.147 22.9923L39.8525 18.2916M19.147 22.9923H1.65876M19.147 22.9923L1.65876 26.9621M39.8525 18.2916L59.8598 13.7501M39.8525 18.2916H1.65876M118.111 13.7501L136.486 9.35892M118.111 13.7501H59.8598M59.8598 13.7501L79.202 9.35892M59.8598 13.7501H1.65876M2026.85 9.35892H2084.14M2026.85 9.35892H1969.57M2070.1 5.11157L2073.57 6.16048L2084.14 9.35892M2070.1 5.11157H2126.45M2084.14 9.35892H2141.42M2126.45 5.11157L2130.15 6.16048L2132.01 6.68736L2141.42 9.35892M2141.42 9.35892H2198.7M2198.7 9.35892H2255.99M1969.57 9.35892H1912.29M2255.99 9.35892H2313.27M2313.27 9.35892L2295.5 5.11157M2313.27 9.35892H2370.56M2295.5 5.11157H2351.84M1797.72 9.35892H1855M1797.72 9.35892H1740.43M1844.71 5.11157L1847.25 6.16048L1848.53 6.68736L1855 9.35892M1844.71 5.11157H1901.06M1855 9.35892H1912.29M1901.06 5.11157L1912.29 9.35892M1740.43 9.35892H1683.15M1568.58 9.35892H1625.87M1568.58 9.35892H1511.3M1619.32 5.11157L1620.12 5.63441L1620.93 6.16048L1621.75 6.68736L1625.87 9.35892M1619.32 5.11157H1675.66M1625.87 9.35892H1683.15M1675.66 5.11157L1683.15 9.35892M1511.3 9.35892H1454.01M1339.45 9.35892H1396.73M1339.45 9.35892H1282.16M1393.92 5.11157L1396.73 9.35892M1393.92 5.11157H1450.27M1396.73 9.35892H1454.01M1450.27 5.11157L1450.73 5.63441L1451.2 6.16048L1451.66 6.68736L1454.01 9.35892M1282.16 9.35892H1224.88M1110.31 9.35892H1167.6M1110.31 9.35892H1053.03M1168.53 5.11157L1167.6 9.35892M1168.53 5.11157H1224.88M1167.6 9.35892H1224.88M1224.88 5.11157V9.35892M1053.03 9.35892H995.743M881.176 9.35892H938.459M881.176 9.35892H823.892M943.137 5.11157L941.983 6.16048L939.643 8.28335L938.459 9.35892M943.137 5.11157H999.485M938.459 9.35892H995.743M999.485 5.11157L999.024 5.63441L998.562 6.16048L998.097 6.68736L995.743 9.35892M823.892 9.35892H766.609M652.041 9.35892H709.325M652.041 9.35892H594.756M717.745 5.11157L715.665 6.16048L714.619 6.68736L709.325 9.35892M717.745 5.11157H774.093M709.325 9.35892H766.609M774.093 5.11157L773.171 5.63441L766.609 9.35892M594.756 9.35892H537.473M422.905 9.35892H480.189M422.905 9.35892H365.622M492.351 5.11157L489.348 6.16048L487.837 6.68736L480.189 9.35892M492.351 5.11157H548.699M480.189 9.35892H537.473M548.699 5.11157L547.316 5.63441L537.473 9.35892M365.622 9.35892H308.338M193.769 9.35892H251.054M193.769 9.35892H136.486M266.957 5.11157L251.054 9.35892M266.957 5.11157H323.306M251.054 9.35892H308.338M323.306 5.11157L319.611 6.16048L317.75 6.68736L308.338 9.35892M136.486 9.35892H79.202M41.565 5.11157L21.9183 9.35892M41.565 5.11157H97.9135M41.565 5.11157H1.65876M21.9183 9.35892H79.202M21.9183 9.35892L1.65876 13.7394M21.9183 9.35892H1.65876M97.9135 5.11157L93.2933 6.16048L79.202 9.35892M2351.84 5.11157L2356.46 6.16048L2370.56 9.35892M2370.56 9.35892H2427.84M2427.84 9.35892L2448.1 13.7394M2427.84 9.35892H2448.1M2448.1 212.087V206.906M2448.1 212.087V220.676M2448.1 206.906V193.916M2448.1 220.676V223.243V235.303M2448.1 235.303V250.865M2448.1 111.634V103.441M2448.1 111.634V119.524M2448.1 5.11157V9.35892M2448.1 9.35892V13.7394M2448.1 13.7394L2448.15 13.7501H2448.1M2448.1 13.7394V13.7501M2448.1 13.7501V18.2916M2448.1 18.2916V22.9923M2448.1 22.9923V26.9621M2448.1 26.9621V27.8602M2448.1 27.8602V32.9044M2448.1 32.9044V38.1344M2448.1 38.1344V41.5769M2448.1 41.5769V43.5607M2448.1 43.5607V49.1947M2448.1 49.1947V55.0494M2448.1 55.0494V57.8163M2448.1 57.8163V61.1367M2448.1 61.1367V67.4714M2448.1 67.4714V74.0687M2448.1 74.0687V75.9655M2448.1 75.9655V80.9456M2448.1 80.9456V88.1198M2448.1 88.1198V95.6108M2448.1 95.6108V96.3839M2448.1 96.3839V103.441M2448.1 120.214V129.211M2448.1 120.214V119.524M2448.1 129.211V138.655M2448.1 138.655V145.971M2448.1 145.971V148.58M2448.1 148.58V159.024M2448.1 159.024V170.03M2448.1 170.03V176.486M2448.1 176.486V181.644M2448.1 181.644V193.916M2448.1 250.865V254.161M2448.1 254.161V267.457M2448.1 267.457V285.184M2448.1 285.184V304.167M2448.1 304.167V304.649M2448.1 304.649V324.545M2448.1 324.545V346.476M2448.1 346.476V366.357M2448.1 366.357V370.145M2448.1 370.145V395.769M2448.1 395.769V423.598M2448.1 423.598V443.493M2448.1 443.493V453.93M2448.1 453.93V487.12M2448.1 487.12V523.592M2448.1 523.592V542.667M2448.1 542.667V563.856M2448.1 563.856V564H1.65876V563.856M1.65876 120.214V129.211M1.65876 120.214V119.524M1.65876 119.524V111.634M1.65876 111.634V103.441M1.65876 103.441V96.3839M1.65876 96.3839V95.6108M1.65876 95.6108V88.1198M1.65876 88.1198V80.9456M1.65876 80.9456V75.9655M1.65876 75.9655V74.0687M1.65876 74.0687V67.4714M1.65876 67.4714V61.1367M1.65876 61.1367V57.8163M1.65876 57.8163V55.0494M1.65876 55.0494V49.1947M1.65876 49.1947V43.5607M1.65876 43.5607V41.5769M1.65876 41.5769V38.1344M1.65876 38.1344V32.9044M1.65876 32.9044V27.8602M1.65876 27.8602V26.9621M1.65876 26.9621V22.9923M1.65876 22.9923V18.2916M1.65876 18.2916V13.7501M1.65876 13.7501H1.60907L1.65876 13.7394M1.65876 13.7501V13.7394M1.65876 13.7394V9.35892M1.65876 9.35892V5.11157M1.65876 563.856V542.667M1.65876 542.667V523.592M1.65876 523.592V487.121M1.65876 487.121V453.93M1.65876 453.93V443.493M1.65876 443.493V423.598M1.65876 423.598V395.769M1.65876 395.769V370.145M1.65876 370.145V366.357M1.65876 366.357V346.476M1.65876 346.476V324.545M1.65876 324.545V304.649M1.65876 304.649V304.167M1.65876 304.167V285.184M1.65876 285.184V267.457M1.65876 267.457V254.161M1.65876 254.161V250.865M1.65876 250.865V235.303M1.65876 235.303V220.676M1.65876 220.676V212.087M1.65876 212.087V206.906M1.65876 206.906V193.916M1.65876 193.916V181.644M1.65876 181.644V176.486M1.65876 176.486V170.03M1.65876 170.03V159.024M1.65876 159.024V148.58M1.65876 148.58V145.971M1.65876 145.971V138.655M1.65876 138.655V129.211" stroke="url(#paint0_radial_10616_98)" stroke-opacity="0.6" stroke-width="1.47954" stroke-miterlimit="10" stroke-linecap="round" stroke-linejoin="round"/>
<defs>
<radialGradient id="paint0_radial_10616_98" cx="0" cy="0" r="1" gradientUnits="userSpaceOnUse" gradientTransform="translate(1224.88 543.25) rotate(-90) scale(881.302 3831.64)">
<stop stop-color="#525252"/>
<stop offset="0.489074" stop-color="#CED2DF" stop-opacity="0"/>
</radialGradient>
</defs>
</svg>
