<svg width="1833" height="847" viewBox="0 0 1833 847" fill="none" xmlns="http://www.w3.org/2000/svg">
<g style="mix-blend-mode:soft-light" opacity="0.7">
<path d="M53.4278 12.3301H12.3291V53.4287M53.4278 12.3301V53.4287M53.4278 12.3301H94.5264M53.4278 53.4287H12.3291M53.4278 53.4287V94.5274M53.4278 53.4287H94.5264M12.3291 53.4287V94.5274M53.4278 94.5274H12.3291M53.4278 94.5274V135.626M53.4278 94.5274H94.5264M12.3291 94.5274V135.626M53.4278 135.626H12.3291M53.4278 135.626V176.725M53.4278 135.626H94.5264M12.3291 135.626V176.725M53.4278 176.725H12.3291M53.4278 176.725V217.823M53.4278 176.725H94.5264M12.3291 176.725V217.823M53.4278 217.823H12.3291M53.4278 217.823V258.922M53.4278 217.823H94.5264M12.3291 217.823V258.922M53.4278 258.922H12.3291M53.4278 258.922V300.021M53.4278 258.922H94.5264M12.3291 258.922V300.021M53.4278 300.021H12.3291M53.4278 300.021V341.119M53.4278 300.021H94.5264M12.3291 300.021V341.119M53.4278 341.119H12.3291M53.4278 341.119V382.218M53.4278 341.119H94.5264M12.3291 341.119V382.218M53.4278 382.218H12.3291M53.4278 382.218V423.317M53.4278 382.218H94.5264M12.3291 382.218V423.317M53.4278 423.317H12.3291M53.4278 423.317V464.415M53.4278 423.317H94.5264M12.3291 423.317V464.415M53.4278 464.415H12.3291M53.4278 464.415V505.514M53.4278 464.415H94.5264M12.3291 464.415V505.514M53.4278 505.514H12.3291M53.4278 505.514V546.613M53.4278 505.514H94.5264M12.3291 505.514V546.613M53.4278 546.613H12.3291M53.4278 546.613V587.711M53.4278 546.613H94.5264M12.3291 546.613V587.711M53.4278 587.711H12.3291M53.4278 587.711V628.81M53.4278 587.711H94.5264M12.3291 587.711V628.81M53.4278 628.81H12.3291M53.4278 628.81V669.909M53.4278 628.81H94.5264M12.3291 628.81V669.909M53.4278 669.909H12.3291M53.4278 669.909V711.007M53.4278 669.909H94.5264M12.3291 669.909V711.007M53.4278 711.007H12.3291M53.4278 711.007V752.106M53.4278 711.007H94.5264M12.3291 711.007V752.106M53.4278 752.106H12.3291M53.4278 752.106V793.205M53.4278 752.106H94.5264M12.3291 752.106V793.205M53.4278 793.205H12.3291M53.4278 793.205V834.303M53.4278 793.205H94.5264M12.3291 793.205V834.303H53.4278M53.4278 834.303H94.5264M94.5264 12.3301V53.4287M94.5264 12.3301H135.625M94.5264 53.4287V94.5274M94.5264 53.4287H135.625M94.5264 94.5274V135.626M94.5264 94.5274H135.625M94.5264 135.626V176.725M94.5264 135.626H135.625M94.5264 176.725V217.823M94.5264 176.725H135.625M94.5264 217.823V258.922M94.5264 217.823H135.625M94.5264 258.922V300.021M94.5264 258.922H135.625M94.5264 300.021V341.119M94.5264 300.021H135.625M94.5264 341.119V382.218M94.5264 341.119H135.625M94.5264 382.218V423.317M94.5264 382.218H135.625M94.5264 423.317V464.415M94.5264 423.317H135.625M94.5264 464.415V505.514M94.5264 464.415H135.625M94.5264 505.514V546.613M94.5264 505.514H135.625M94.5264 546.613V587.711M94.5264 546.613H135.625M94.5264 587.711V628.81M94.5264 587.711H135.625M94.5264 628.81V669.909M94.5264 628.81H135.625M94.5264 669.909V711.007M94.5264 669.909H135.625M94.5264 711.007V752.106M94.5264 711.007H135.625M94.5264 752.106V793.205M94.5264 752.106H135.625M94.5264 793.205V834.303M94.5264 793.205H135.625M94.5264 834.303H135.625M135.625 12.3301V53.4287M135.625 12.3301H176.724M135.625 53.4287V94.5274M135.625 53.4287H176.724M135.625 94.5274V135.626M135.625 94.5274H176.724M135.625 135.626V176.725M135.625 135.626H176.724M135.625 176.725V217.823M135.625 176.725H176.724M135.625 217.823V258.922M135.625 217.823H176.724M135.625 258.922V300.021M135.625 258.922H176.724M135.625 300.021V341.119M135.625 300.021H176.724M135.625 341.119V382.218M135.625 341.119H176.724M135.625 382.218V423.317M135.625 382.218H176.724M135.625 423.317V464.415M135.625 423.317H176.724M135.625 464.415V505.514M135.625 464.415H176.724M135.625 505.514V546.613M135.625 505.514H176.724M135.625 546.613V587.711M135.625 546.613H176.724M135.625 587.711V628.81M135.625 587.711H176.724M135.625 628.81V669.909M135.625 628.81H176.724M135.625 669.909V711.007M135.625 669.909H176.724M135.625 711.007V752.106M135.625 711.007H176.724M135.625 752.106V793.205M135.625 752.106H176.724M135.625 793.205V834.303M135.625 793.205H176.724M135.625 834.303H176.724M176.724 12.3301V53.4287M176.724 12.3301H217.822M176.724 53.4287V94.5274M176.724 53.4287H217.822M176.724 94.5274V135.626M176.724 94.5274H217.822M176.724 135.626V176.725M176.724 135.626H217.822M176.724 176.725V217.823M176.724 176.725H217.822M176.724 217.823V258.922M176.724 217.823H217.822M176.724 258.922V300.021M176.724 258.922H217.822M176.724 300.021V341.119M176.724 300.021H217.822M176.724 341.119V382.218M176.724 341.119H217.822M176.724 382.218V423.317M176.724 382.218H217.822M176.724 423.317V464.415M176.724 423.317H217.822M176.724 464.415V505.514M176.724 464.415H217.822M176.724 505.514V546.613M176.724 505.514H217.822M176.724 546.613V587.711M176.724 546.613H217.822M176.724 587.711V628.81M176.724 587.711H217.822M176.724 628.81V669.909M176.724 628.81H217.822M176.724 669.909V711.007M176.724 669.909H217.822M176.724 711.007V752.106M176.724 711.007H217.822M176.724 752.106V793.205M176.724 752.106H217.822M176.724 793.205V834.303M176.724 793.205H217.822M176.724 834.303H217.822M217.822 12.3301V53.4287M217.822 12.3301H258.921M217.822 53.4287V94.5274M217.822 53.4287H258.921M217.822 94.5274V135.626M217.822 94.5274H258.921M217.822 135.626V176.725M217.822 135.626H258.921M217.822 176.725V217.823M217.822 176.725H258.921M217.822 217.823V258.922M217.822 217.823H258.921M217.822 258.922V300.021M217.822 258.922H258.921M217.822 300.021V341.119M217.822 300.021H258.921M217.822 341.119V382.218M217.822 341.119H258.921M217.822 382.218V423.317M217.822 382.218H258.921M217.822 423.317V464.415M217.822 423.317H258.921M217.822 464.415V505.514M217.822 464.415H258.921M217.822 505.514V546.613M217.822 505.514H258.921M217.822 546.613V587.711M217.822 546.613H258.921M217.822 587.711V628.81M217.822 587.711H258.921M217.822 628.81V669.909M217.822 628.81H258.921M217.822 669.909V711.007M217.822 669.909H258.921M217.822 711.007V752.106M217.822 711.007H258.921M217.822 752.106V793.205M217.822 752.106H258.921M217.822 793.205V834.303M217.822 793.205H258.921M217.822 834.303H258.921M258.921 12.3301V53.4287M258.921 12.3301H300.02M258.921 53.4287V94.5274M258.921 53.4287H300.02M258.921 94.5274V135.626M258.921 94.5274H300.02M258.921 135.626V176.725M258.921 135.626H300.02M258.921 176.725V217.823M258.921 176.725H300.02M258.921 217.823V258.922M258.921 217.823H300.02M258.921 258.922V300.021M258.921 258.922H300.02M258.921 300.021V341.119M258.921 300.021H300.02M258.921 341.119V382.218M258.921 341.119H300.02M258.921 382.218V423.317M258.921 382.218H300.02M258.921 423.317V464.415M258.921 423.317H300.02M258.921 464.415V505.514M258.921 464.415H300.02M258.921 505.514V546.613M258.921 505.514H300.02M258.921 546.613V587.711M258.921 546.613H300.02M258.921 587.711V628.81M258.921 587.711H300.02M258.921 628.81V669.909M258.921 628.81H300.02M258.921 669.909V711.007M258.921 669.909H300.02M258.921 711.007V752.106M258.921 711.007H300.02M258.921 752.106V793.205M258.921 752.106H300.02M258.921 793.205V834.303M258.921 793.205H300.02M258.921 834.303H300.02M300.02 12.3301V53.4287M300.02 12.3301H341.118M300.02 53.4287V94.5274M300.02 53.4287H341.118M300.02 94.5274V135.626M300.02 94.5274H341.118M300.02 135.626V176.725M300.02 135.626H341.118M300.02 176.725V217.823M300.02 176.725H341.118M300.02 217.823V258.922M300.02 217.823H341.118M300.02 258.922V300.021M300.02 258.922H341.118M300.02 300.021V341.119M300.02 300.021H341.118M300.02 341.119V382.218M300.02 341.119H341.118M300.02 382.218V423.317M300.02 382.218H341.118M300.02 423.317V464.415M300.02 423.317H341.118M300.02 464.415V505.514M300.02 464.415H341.118M300.02 505.514V546.613M300.02 505.514H341.118M300.02 546.613V587.711M300.02 546.613H341.118M300.02 587.711V628.81M300.02 587.711H341.118M300.02 628.81V669.909M300.02 628.81H341.118M300.02 669.909V711.007M300.02 669.909H341.118M300.02 711.007V752.106M300.02 711.007H341.118M300.02 752.106V793.205M300.02 752.106H341.118M300.02 793.205V834.303M300.02 793.205H341.118M300.02 834.303H341.118M341.118 12.3301V53.4287M341.118 12.3301H382.217M341.118 53.4287V94.5274M341.118 53.4287H382.217M341.118 94.5274V135.626M341.118 94.5274H382.217M341.118 135.626V176.725M341.118 135.626H382.217M341.118 176.725V217.823M341.118 176.725H382.217M341.118 217.823V258.922M341.118 217.823H382.217M341.118 258.922V300.021M341.118 258.922H382.217M341.118 300.021V341.119M341.118 300.021H382.217M341.118 341.119V382.218M341.118 341.119H382.217M341.118 382.218V423.317M341.118 382.218H382.217M341.118 423.317V464.415M341.118 423.317H382.217M341.118 464.415V505.514M341.118 464.415H382.217M341.118 505.514V546.613M341.118 505.514H382.217M341.118 546.613V587.711M341.118 546.613H382.217M341.118 587.711V628.81M341.118 587.711H382.217M341.118 628.81V669.909M341.118 628.81H382.217M341.118 669.909V711.007M341.118 669.909H382.217M341.118 711.007V752.106M341.118 711.007H382.217M341.118 752.106V793.205M341.118 752.106H382.217M341.118 793.205V834.303M341.118 793.205H382.217M341.118 834.303H382.217M382.217 12.3301V53.4287M382.217 12.3301H423.316M382.217 53.4287V94.5274M382.217 53.4287H423.316M382.217 94.5274V135.626M382.217 94.5274H423.316M382.217 135.626V176.725M382.217 135.626H423.316M382.217 176.725V217.823M382.217 176.725H423.316M382.217 217.823V258.922M382.217 217.823H423.316M382.217 258.922V300.021M382.217 258.922H423.316M382.217 300.021V341.119M382.217 300.021H423.316M382.217 341.119V382.218M382.217 341.119H423.316M382.217 382.218V423.317M382.217 382.218H423.316M382.217 423.317V464.415M382.217 423.317H423.316M382.217 464.415V505.514M382.217 464.415H423.316M382.217 505.514V546.613M382.217 505.514H423.316M382.217 546.613V587.711M382.217 546.613H423.316M382.217 587.711V628.81M382.217 587.711H423.316M382.217 628.81V669.909M382.217 628.81H423.316M382.217 669.909V711.007M382.217 669.909H423.316M382.217 711.007V752.106M382.217 711.007H423.316M382.217 752.106V793.205M382.217 752.106H423.316M382.217 793.205V834.303M382.217 793.205H423.316M382.217 834.303H423.316M423.316 12.3301V53.4287M423.316 12.3301H464.414M423.316 53.4287V94.5274M423.316 53.4287H464.414M423.316 94.5274V135.626M423.316 94.5274H464.414M423.316 135.626V176.725M423.316 135.626H464.414M423.316 176.725V217.823M423.316 176.725H464.414M423.316 217.823V258.922M423.316 217.823H464.414M423.316 258.922V300.021M423.316 258.922H464.414M423.316 300.021V341.119M423.316 300.021H464.414M423.316 341.119V382.218M423.316 341.119H464.414M423.316 382.218V423.317M423.316 382.218H464.414M423.316 423.317V464.415M423.316 423.317H464.414M423.316 464.415V505.514M423.316 464.415H464.414M423.316 505.514V546.613M423.316 505.514H464.414M423.316 546.613V587.711M423.316 546.613H464.414M423.316 587.711V628.81M423.316 587.711H464.414M423.316 628.81V669.909M423.316 628.81H464.414M423.316 669.909V711.007M423.316 669.909H464.414M423.316 711.007V752.106M423.316 711.007H464.414M423.316 752.106V793.205M423.316 752.106H464.414M423.316 793.205V834.303M423.316 793.205H464.414M423.316 834.303H464.414M464.414 12.3301V53.4287M464.414 12.3301H505.513M464.414 53.4287V94.5274M464.414 53.4287H505.513M464.414 94.5274V135.626M464.414 94.5274H505.513M464.414 135.626V176.725M464.414 135.626H505.513M464.414 176.725V217.823M464.414 176.725H505.513M464.414 217.823V258.922M464.414 217.823H505.513M464.414 258.922V300.021M464.414 258.922H505.513M464.414 300.021V341.119M464.414 300.021H505.513M464.414 341.119V382.218M464.414 341.119H505.513M464.414 382.218V423.317M464.414 382.218H505.513M464.414 423.317V464.415M464.414 423.317H505.513M464.414 464.415V505.514M464.414 464.415H505.513M464.414 505.514V546.613M464.414 505.514H505.513M464.414 546.613V587.711M464.414 546.613H505.513M464.414 587.711V628.81M464.414 587.711H505.513M464.414 628.81V669.909M464.414 628.81H505.513M464.414 669.909V711.007M464.414 669.909H505.513M464.414 711.007V752.106M464.414 711.007H505.513M464.414 752.106V793.205M464.414 752.106H505.513M464.414 793.205V834.303M464.414 793.205H505.513M464.414 834.303H505.513M505.513 12.3301V53.4287M505.513 12.3301H546.612M505.513 53.4287V94.5274M505.513 53.4287H546.612M505.513 94.5274V135.626M505.513 94.5274H546.612M505.513 135.626V176.725M505.513 135.626H546.612M505.513 176.725V217.823M505.513 176.725H546.612M505.513 217.823V258.922M505.513 217.823H546.612M505.513 258.922V300.021M505.513 258.922H546.612M505.513 300.021V341.119M505.513 300.021H546.612M505.513 341.119V382.218M505.513 341.119H546.612M505.513 382.218V423.317M505.513 382.218H546.612M505.513 423.317V464.415M505.513 423.317H546.612M505.513 464.415V505.514M505.513 464.415H546.612M505.513 505.514V546.613M505.513 505.514H546.612M505.513 546.613V587.711M505.513 546.613H546.612M505.513 587.711V628.81M505.513 587.711H546.612M505.513 628.81V669.909M505.513 628.81H546.612M505.513 669.909V711.007M505.513 669.909H546.612M505.513 711.007V752.106M505.513 711.007H546.612M505.513 752.106V793.205M505.513 752.106H546.612M505.513 793.205V834.303M505.513 793.205H546.612M505.513 834.303H546.612M546.612 12.3301V53.4287M546.612 12.3301H587.71M546.612 53.4287V94.5274M546.612 53.4287H587.71M546.612 94.5274V135.626M546.612 94.5274H587.71M546.612 135.626V176.725M546.612 135.626H587.71M546.612 176.725V217.823M546.612 176.725H587.71M546.612 217.823V258.922M546.612 217.823H587.71M546.612 258.922V300.021M546.612 258.922H587.71M546.612 300.021V341.119M546.612 300.021H587.71M546.612 341.119V382.218M546.612 341.119H587.71M546.612 382.218V423.317M546.612 382.218H587.71M546.612 423.317V464.415M546.612 423.317H587.71M546.612 464.415V505.514M546.612 464.415H587.71M546.612 505.514V546.613M546.612 505.514H587.71M546.612 546.613V587.711M546.612 546.613H587.71M546.612 587.711V628.81M546.612 587.711H587.71M546.612 628.81V669.909M546.612 628.81H587.71M546.612 669.909V711.007M546.612 669.909H587.71M546.612 711.007V752.106M546.612 711.007H587.71M546.612 752.106V793.205M546.612 752.106H587.71M546.612 793.205V834.303M546.612 793.205H587.71M546.612 834.303H587.71M587.71 12.3301V53.4287M587.71 12.3301H628.809M587.71 53.4287V94.5274M587.71 53.4287H628.809M587.71 94.5274V135.626M587.71 94.5274H628.809M587.71 135.626V176.725M587.71 135.626H628.809M587.71 176.725V217.823M587.71 176.725H628.809M587.71 217.823V258.922M587.71 217.823H628.809M587.71 258.922V300.021M587.71 258.922H628.809M587.71 300.021V341.119M587.71 300.021H628.809M587.71 341.119V382.218M587.71 341.119H628.809M587.71 382.218V423.317M587.71 382.218H628.809M587.71 423.317V464.415M587.71 423.317H628.809M587.71 464.415V505.514M587.71 464.415H628.809M587.71 505.514V546.613M587.71 505.514H628.809M587.71 546.613V587.711M587.71 546.613H628.809M587.71 587.711V628.81M587.71 587.711H628.809M587.71 628.81V669.909M587.71 628.81H628.809M587.71 669.909V711.007M587.71 669.909H628.809M587.71 711.007V752.106M587.71 711.007H628.809M587.71 752.106V793.205M587.71 752.106H628.809M587.71 793.205V834.303M587.71 793.205H628.809M587.71 834.303H628.809M628.809 12.3301V53.4287M628.809 12.3301H669.908M628.809 53.4287V94.5274M628.809 53.4287H669.908M628.809 94.5274V135.626M628.809 94.5274H669.908M628.809 135.626V176.725M628.809 135.626H669.908M628.809 176.725V217.823M628.809 176.725H669.908M628.809 217.823V258.922M628.809 217.823H669.908M628.809 258.922V300.021M628.809 258.922H669.908M628.809 300.021V341.119M628.809 300.021H669.908M628.809 341.119V382.218M628.809 341.119H669.908M628.809 382.218V423.317M628.809 382.218H669.908M628.809 423.317V464.415M628.809 423.317H669.908M628.809 464.415V505.514M628.809 464.415H669.908M628.809 505.514V546.613M628.809 505.514H669.908M628.809 546.613V587.711M628.809 546.613H669.908M628.809 587.711V628.81M628.809 587.711H669.908M628.809 628.81V669.909M628.809 628.81H669.908M628.809 669.909V711.007M628.809 669.909H669.908M628.809 711.007V752.106M628.809 711.007H669.908M628.809 752.106V793.205M628.809 752.106H669.908M628.809 793.205V834.303M628.809 793.205H669.908M628.809 834.303H669.908M669.908 12.3301V53.4287M669.908 12.3301H711.006M669.908 53.4287V94.5274M669.908 53.4287H711.006M669.908 94.5274V135.626M669.908 94.5274H711.006M669.908 135.626V176.725M669.908 135.626H711.006M669.908 176.725V217.823M669.908 176.725H711.006M669.908 217.823V258.922M669.908 217.823H711.006M669.908 258.922V300.021M669.908 258.922H711.006M669.908 300.021V341.119M669.908 300.021H711.006M669.908 341.119V382.218M669.908 341.119H711.006M669.908 382.218V423.317M669.908 382.218H711.006M669.908 423.317V464.415M669.908 423.317H711.006M669.908 464.415V505.514M669.908 464.415H711.006M669.908 505.514V546.613M669.908 505.514H711.006M669.908 546.613V587.711M669.908 546.613H711.006M669.908 587.711V628.81M669.908 587.711H711.006M669.908 628.81V669.909M669.908 628.81H711.006M669.908 669.909V711.007M669.908 669.909H711.006M669.908 711.007V752.106M669.908 711.007H711.006M669.908 752.106V793.205M669.908 752.106H711.006M669.908 793.205V834.303M669.908 793.205H711.006M669.908 834.303H711.006M711.006 12.3301V53.4287M711.006 12.3301H752.105M711.006 53.4287V94.5274M711.006 53.4287H752.105M711.006 94.5274V135.626M711.006 94.5274H752.105M711.006 135.626V176.725M711.006 135.626H752.105M711.006 176.725V217.823M711.006 176.725H752.105M711.006 217.823V258.922M711.006 217.823H752.105M711.006 258.922V300.021M711.006 258.922H752.105M711.006 300.021V341.119M711.006 300.021H752.105M711.006 341.119V382.218M711.006 341.119H752.105M711.006 382.218V423.317M711.006 382.218H752.105M711.006 423.317V464.415M711.006 423.317H752.105M711.006 464.415V505.514M711.006 464.415H752.105M711.006 505.514V546.613M711.006 505.514H752.105M711.006 546.613V587.711M711.006 546.613H752.105M711.006 587.711V628.81M711.006 587.711H752.105M711.006 628.81V669.909M711.006 628.81H752.105M711.006 669.909V711.007M711.006 669.909H752.105M711.006 711.007V752.106M711.006 711.007H752.105M711.006 752.106V793.205M711.006 752.106H752.105M711.006 793.205V834.303M711.006 793.205H752.105M711.006 834.303H752.105M752.105 12.3301V53.4287M752.105 12.3301H793.204M752.105 53.4287V94.5274M752.105 53.4287H793.204M752.105 94.5274V135.626M752.105 94.5274H793.204M752.105 135.626V176.725M752.105 135.626H793.204M752.105 176.725V217.823M752.105 176.725H793.204M752.105 217.823V258.922M752.105 217.823H793.204M752.105 258.922V300.021M752.105 258.922H793.204M752.105 300.021V341.119M752.105 300.021H793.204M752.105 341.119V382.218M752.105 341.119H793.204M752.105 382.218V423.317M752.105 382.218H793.204M752.105 423.317V464.415M752.105 423.317H793.204M752.105 464.415V505.514M752.105 464.415H793.204M752.105 505.514V546.613M752.105 505.514H793.204M752.105 546.613V587.711M752.105 546.613H793.204M752.105 587.711V628.81M752.105 587.711H793.204M752.105 628.81V669.909M752.105 628.81H793.204M752.105 669.909V711.007M752.105 669.909H793.204M752.105 711.007V752.106M752.105 711.007H793.204M752.105 752.106V793.205M752.105 752.106H793.204M752.105 793.205V834.303M752.105 793.205H793.204M752.105 834.303H793.204M793.204 12.3301V53.4287M793.204 12.3301H834.302M793.204 53.4287V94.5274M793.204 53.4287H834.302M793.204 94.5274V135.626M793.204 94.5274H834.302M793.204 135.626V176.725M793.204 135.626H834.302M793.204 176.725V217.823M793.204 176.725H834.302M793.204 217.823V258.922M793.204 217.823H834.302M793.204 258.922V300.021M793.204 258.922H834.302M793.204 300.021V341.119M793.204 300.021H834.302M793.204 341.119V382.218M793.204 341.119H834.302M793.204 382.218V423.317M793.204 382.218H834.302M793.204 423.317V464.415M793.204 423.317H834.302M793.204 464.415V505.514M793.204 464.415H834.302M793.204 505.514V546.613M793.204 505.514H834.302M793.204 546.613V587.711M793.204 546.613H834.302M793.204 587.711V628.81M793.204 587.711H834.302M793.204 628.81V669.909M793.204 628.81H834.302M793.204 669.909V711.007M793.204 669.909H834.302M793.204 711.007V752.106M793.204 711.007H834.302M793.204 752.106V793.205M793.204 752.106H834.302M793.204 793.205V834.303M793.204 793.205H834.302M793.204 834.303H834.302M834.302 12.3301V53.4287M834.302 12.3301H875.401M834.302 53.4287V94.5274M834.302 53.4287H875.401M834.302 94.5274V135.626M834.302 94.5274H875.401M834.302 135.626V176.725M834.302 135.626H875.401M834.302 176.725V217.823M834.302 176.725H875.401M834.302 217.823V258.922M834.302 217.823H875.401M834.302 258.922V300.021M834.302 258.922H875.401M834.302 300.021V341.119M834.302 300.021H875.401M834.302 341.119V382.218M834.302 341.119H875.401M834.302 382.218V423.317M834.302 382.218H875.401M834.302 423.317V464.415M834.302 423.317H875.401M834.302 464.415V505.514M834.302 464.415H875.401M834.302 505.514V546.613M834.302 505.514H875.401M834.302 546.613V587.711M834.302 546.613H875.401M834.302 587.711V628.81M834.302 587.711H875.401M834.302 628.81V669.909M834.302 628.81H875.401M834.302 669.909V711.007M834.302 669.909H875.401M834.302 711.007V752.106M834.302 711.007H875.401M834.302 752.106V793.205M834.302 752.106H875.401M834.302 793.205V834.303M834.302 793.205H875.401M834.302 834.303H875.401M875.401 12.3301V53.4287M875.401 12.3301H916.5M875.401 53.4287V94.5274M875.401 53.4287H916.5M875.401 94.5274V135.626M875.401 94.5274H916.5M875.401 135.626V176.725M875.401 135.626H916.5M875.401 176.725V217.823M875.401 176.725H916.5M875.401 217.823V258.922M875.401 217.823H916.5M875.401 258.922V300.021M875.401 258.922H916.5M875.401 300.021V341.119M875.401 300.021H916.5M875.401 341.119V382.218M875.401 341.119H916.5M875.401 382.218V423.317M875.401 382.218H916.5M875.401 423.317V464.415M875.401 423.317H916.5M875.401 464.415V505.514M875.401 464.415H916.5M875.401 505.514V546.613M875.401 505.514H916.5M875.401 546.613V587.711M875.401 546.613H916.5M875.401 587.711V628.81M875.401 587.711H916.5M875.401 628.81V669.909M875.401 628.81H916.5M875.401 669.909V711.007M875.401 669.909H916.5M875.401 711.007V752.106M875.401 711.007H916.5M875.401 752.106V793.205M875.401 752.106H916.5M875.401 793.205V834.303M875.401 793.205H916.5M875.401 834.303H916.5M916.5 12.3301V53.4287M916.5 12.3301H957.598M916.5 53.4287V94.5274M916.5 53.4287H957.598M916.5 94.5274V135.626M916.5 94.5274H957.598M916.5 135.626V176.725M916.5 135.626H957.598M916.5 176.725V217.823M916.5 176.725H957.598M916.5 217.823V258.922M916.5 217.823H957.598M916.5 258.922V300.021M916.5 258.922H957.598M916.5 300.021V341.119M916.5 300.021H957.598M916.5 341.119V382.218M916.5 341.119H957.598M916.5 382.218V423.317M916.5 382.218H957.598M916.5 423.317V464.415M916.5 423.317H957.598M916.5 464.415V505.514M916.5 464.415H957.598M916.5 505.514V546.613M916.5 505.514H957.598M916.5 546.613V587.711M916.5 546.613H957.598M916.5 587.711V628.81M916.5 587.711H957.598M916.5 628.81V669.909M916.5 628.81H957.598M916.5 669.909V711.007M916.5 669.909H957.598M916.5 711.007V752.106M916.5 711.007H957.598M916.5 752.106V793.205M916.5 752.106H957.598M916.5 793.205V834.303M916.5 793.205H957.598M916.5 834.303H957.598M957.598 12.3301V53.4287M957.598 12.3301H998.697M957.598 53.4287V94.5274M957.598 53.4287H998.697M957.598 94.5274V135.626M957.598 94.5274H998.697M957.598 135.626V176.725M957.598 135.626H998.697M957.598 176.725V217.823M957.598 176.725H998.697M957.598 217.823V258.922M957.598 217.823H998.697M957.598 258.922V300.021M957.598 258.922H998.697M957.598 300.021V341.119M957.598 300.021H998.697M957.598 341.119V382.218M957.598 341.119H998.697M957.598 382.218V423.317M957.598 382.218H998.697M957.598 423.317V464.415M957.598 423.317H998.697M957.598 464.415V505.514M957.598 464.415H998.697M957.598 505.514V546.613M957.598 505.514H998.697M957.598 546.613V587.711M957.598 546.613H998.697M957.598 587.711V628.81M957.598 587.711H998.697M957.598 628.81V669.909M957.598 628.81H998.697M957.598 669.909V711.007M957.598 669.909H998.697M957.598 711.007V752.106M957.598 711.007H998.697M957.598 752.106V793.205M957.598 752.106H998.697M957.598 793.205V834.303M957.598 793.205H998.697M957.598 834.303H998.697M998.697 12.3301V53.4287M998.697 12.3301H1039.8M998.697 53.4287V94.5274M998.697 53.4287H1039.8M998.697 94.5274V135.626M998.697 94.5274H1039.8M998.697 135.626V176.725M998.697 135.626H1039.8M998.697 176.725V217.823M998.697 176.725H1039.8M998.697 217.823V258.922M998.697 217.823H1039.8M998.697 258.922V300.021M998.697 258.922H1039.8M998.697 300.021V341.119M998.697 300.021H1039.8M998.697 341.119V382.218M998.697 341.119H1039.8M998.697 382.218V423.317M998.697 382.218H1039.8M998.697 423.317V464.415M998.697 423.317H1039.8M998.697 464.415V505.514M998.697 464.415H1039.8M998.697 505.514V546.613M998.697 505.514H1039.8M998.697 546.613V587.711M998.697 546.613H1039.8M998.697 587.711V628.81M998.697 587.711H1039.8M998.697 628.81V669.909M998.697 628.81H1039.8M998.697 669.909V711.007M998.697 669.909H1039.8M998.697 711.007V752.106M998.697 711.007H1039.8M998.697 752.106V793.205M998.697 752.106H1039.8M998.697 793.205V834.303M998.697 793.205H1039.8M998.697 834.303H1039.8M1039.8 12.3301V53.4287M1039.8 12.3301H1080.89M1039.8 53.4287V94.5274M1039.8 53.4287H1080.89M1039.8 94.5274V135.626M1039.8 94.5274H1080.89M1039.8 135.626V176.725M1039.8 135.626H1080.89M1039.8 176.725V217.823M1039.8 176.725H1080.89M1039.8 217.823V258.922M1039.8 217.823H1080.89M1039.8 258.922V300.021M1039.8 258.922H1080.89M1039.8 300.021V341.119M1039.8 300.021H1080.89M1039.8 341.119V382.218M1039.8 341.119H1080.89M1039.8 382.218V423.317M1039.8 382.218H1080.89M1039.8 423.317V464.415M1039.8 423.317H1080.89M1039.8 464.415V505.514M1039.8 464.415H1080.89M1039.8 505.514V546.613M1039.8 505.514H1080.89M1039.8 546.613V587.711M1039.8 546.613H1080.89M1039.8 587.711V628.81M1039.8 587.711H1080.89M1039.8 628.81V669.909M1039.8 628.81H1080.89M1039.8 669.909V711.007M1039.8 669.909H1080.89M1039.8 711.007V752.106M1039.8 711.007H1080.89M1039.8 752.106V793.205M1039.8 752.106H1080.89M1039.8 793.205V834.303M1039.8 793.205H1080.89M1039.8 834.303H1080.89M1080.89 12.3301V53.4287M1080.89 12.3301H1121.99M1080.89 53.4287V94.5274M1080.89 53.4287H1121.99M1080.89 94.5274V135.626M1080.89 94.5274H1121.99M1080.89 135.626V176.725M1080.89 135.626H1121.99M1080.89 176.725V217.823M1080.89 176.725H1121.99M1080.89 217.823V258.922M1080.89 217.823H1121.99M1080.89 258.922V300.021M1080.89 258.922H1121.99M1080.89 300.021V341.119M1080.89 300.021H1121.99M1080.89 341.119V382.218M1080.89 341.119H1121.99M1080.89 382.218V423.317M1080.89 382.218H1121.99M1080.89 423.317V464.415M1080.89 423.317H1121.99M1080.89 464.415V505.514M1080.89 464.415H1121.99M1080.89 505.514V546.613M1080.89 505.514H1121.99M1080.89 546.613V587.711M1080.89 546.613H1121.99M1080.89 587.711V628.81M1080.89 587.711H1121.99M1080.89 628.81V669.909M1080.89 628.81H1121.99M1080.89 669.909V711.007M1080.89 669.909H1121.99M1080.89 711.007V752.106M1080.89 711.007H1121.99M1080.89 752.106V793.205M1080.89 752.106H1121.99M1080.89 793.205V834.303M1080.89 793.205H1121.99M1080.89 834.303H1121.99M1121.99 12.3301V53.4287M1121.99 12.3301H1163.09M1121.99 53.4287V94.5274M1121.99 53.4287H1163.09M1121.99 94.5274V135.626M1121.99 94.5274H1163.09M1121.99 135.626V176.725M1121.99 135.626H1163.09M1121.99 176.725V217.823M1121.99 176.725H1163.09M1121.99 217.823V258.922M1121.99 217.823H1163.09M1121.99 258.922V300.021M1121.99 258.922H1163.09M1121.99 300.021V341.119M1121.99 300.021H1163.09M1121.99 341.119V382.218M1121.99 341.119H1163.09M1121.99 382.218V423.317M1121.99 382.218H1163.09M1121.99 423.317V464.415M1121.99 423.317H1163.09M1121.99 464.415V505.514M1121.99 464.415H1163.09M1121.99 505.514V546.613M1121.99 505.514H1163.09M1121.99 546.613V587.711M1121.99 546.613H1163.09M1121.99 587.711V628.81M1121.99 587.711H1163.09M1121.99 628.81V669.909M1121.99 628.81H1163.09M1121.99 669.909V711.007M1121.99 669.909H1163.09M1121.99 711.007V752.106M1121.99 711.007H1163.09M1121.99 752.106V793.205M1121.99 752.106H1163.09M1121.99 793.205V834.303M1121.99 793.205H1163.09M1121.99 834.303H1163.09M1163.09 12.3301V53.4287M1163.09 12.3301H1204.19M1163.09 53.4287V94.5274M1163.09 53.4287H1204.19M1163.09 94.5274V135.626M1163.09 94.5274H1204.19M1163.09 135.626V176.725M1163.09 135.626H1204.19M1163.09 176.725V217.823M1163.09 176.725H1204.19M1163.09 217.823V258.922M1163.09 217.823H1204.19M1163.09 258.922V300.021M1163.09 258.922H1204.19M1163.09 300.021V341.119M1163.09 300.021H1204.19M1163.09 341.119V382.218M1163.09 341.119H1204.19M1163.09 382.218V423.317M1163.09 382.218H1204.19M1163.09 423.317V464.415M1163.09 423.317H1204.19M1163.09 464.415V505.514M1163.09 464.415H1204.19M1163.09 505.514V546.613M1163.09 505.514H1204.19M1163.09 546.613V587.711M1163.09 546.613H1204.19M1163.09 587.711V628.81M1163.09 587.711H1204.19M1163.09 628.81V669.909M1163.09 628.81H1204.19M1163.09 669.909V711.007M1163.09 669.909H1204.19M1163.09 711.007V752.106M1163.09 711.007H1204.19M1163.09 752.106V793.205M1163.09 752.106H1204.19M1163.09 793.205V834.303M1163.09 793.205H1204.19M1163.09 834.303H1204.19M1204.19 12.3301V53.4287M1204.19 12.3301H1245.29M1204.19 53.4287V94.5274M1204.19 53.4287H1245.29M1204.19 94.5274V135.626M1204.19 94.5274H1245.29M1204.19 135.626V176.725M1204.19 135.626H1245.29M1204.19 176.725V217.823M1204.19 176.725H1245.29M1204.19 217.823V258.922M1204.19 217.823H1245.29M1204.19 258.922V300.021M1204.19 258.922H1245.29M1204.19 300.021V341.119M1204.19 300.021H1245.29M1204.19 341.119V382.218M1204.19 341.119H1245.29M1204.19 382.218V423.317M1204.19 382.218H1245.29M1204.19 423.317V464.415M1204.19 423.317H1245.29M1204.19 464.415V505.514M1204.19 464.415H1245.29M1204.19 505.514V546.613M1204.19 505.514H1245.29M1204.19 546.613V587.711M1204.19 546.613H1245.29M1204.19 587.711V628.81M1204.19 587.711H1245.29M1204.19 628.81V669.909M1204.19 628.81H1245.29M1204.19 669.909V711.007M1204.19 669.909H1245.29M1204.19 711.007V752.106M1204.19 711.007H1245.29M1204.19 752.106V793.205M1204.19 752.106H1245.29M1204.19 793.205V834.303M1204.19 793.205H1245.29M1204.19 834.303H1245.29M1245.29 12.3301V53.4287M1245.29 12.3301H1286.39M1245.29 53.4287V94.5274M1245.29 53.4287H1286.39M1245.29 94.5274V135.626M1245.29 94.5274H1286.39M1245.29 135.626V176.725M1245.29 135.626H1286.39M1245.29 176.725V217.823M1245.29 176.725H1286.39M1245.29 217.823V258.922M1245.29 217.823H1286.39M1245.29 258.922V300.021M1245.29 258.922H1286.39M1245.29 300.021V341.119M1245.29 300.021H1286.39M1245.29 341.119V382.218M1245.29 341.119H1286.39M1245.29 382.218V423.317M1245.29 382.218H1286.39M1245.29 423.317V464.415M1245.29 423.317H1286.39M1245.29 464.415V505.514M1245.29 464.415H1286.39M1245.29 505.514V546.613M1245.29 505.514H1286.39M1245.29 546.613V587.711M1245.29 546.613H1286.39M1245.29 587.711V628.81M1245.29 587.711H1286.39M1245.29 628.81V669.909M1245.29 628.81H1286.39M1245.29 669.909V711.007M1245.29 669.909H1286.39M1245.29 711.007V752.106M1245.29 711.007H1286.39M1245.29 752.106V793.205M1245.29 752.106H1286.39M1245.29 793.205V834.303M1245.29 793.205H1286.39M1245.29 834.303H1286.39M1286.39 12.3301V53.4287M1286.39 12.3301H1327.49M1286.39 53.4287V94.5274M1286.39 53.4287H1327.49M1286.39 94.5274V135.626M1286.39 94.5274H1327.49M1286.39 135.626V176.725M1286.39 135.626H1327.49M1286.39 176.725V217.823M1286.39 176.725H1327.49M1286.39 217.823V258.922M1286.39 217.823H1327.49M1286.39 258.922V300.021M1286.39 258.922H1327.49M1286.39 300.021V341.119M1286.39 300.021H1327.49M1286.39 341.119V382.218M1286.39 341.119H1327.49M1286.39 382.218V423.317M1286.39 382.218H1327.49M1286.39 423.317V464.415M1286.39 423.317H1327.49M1286.39 464.415V505.514M1286.39 464.415H1327.49M1286.39 505.514V546.613M1286.39 505.514H1327.49M1286.39 546.613V587.711M1286.39 546.613H1327.49M1286.39 587.711V628.81M1286.39 587.711H1327.49M1286.39 628.81V669.909M1286.39 628.81H1327.49M1286.39 669.909V711.007M1286.39 669.909H1327.49M1286.39 711.007V752.106M1286.39 711.007H1327.49M1286.39 752.106V793.205M1286.39 752.106H1327.49M1286.39 793.205V834.303M1286.39 793.205H1327.49M1286.39 834.303H1327.49M1327.49 12.3301V53.4287M1327.49 12.3301H1368.58M1327.49 53.4287V94.5274M1327.49 53.4287H1368.58M1327.49 94.5274V135.626M1327.49 94.5274H1368.58M1327.49 135.626V176.725M1327.49 135.626H1368.58M1327.49 176.725V217.823M1327.49 176.725H1368.58M1327.49 217.823V258.922M1327.49 217.823H1368.58M1327.49 258.922V300.021M1327.49 258.922H1368.58M1327.49 300.021V341.119M1327.49 300.021H1368.58M1327.49 341.119V382.218M1327.49 341.119H1368.58M1327.49 382.218V423.317M1327.49 382.218H1368.58M1327.49 423.317V464.415M1327.49 423.317H1368.58M1327.49 464.415V505.514M1327.49 464.415H1368.58M1327.49 505.514V546.613M1327.49 505.514H1368.58M1327.49 546.613V587.711M1327.49 546.613H1368.58M1327.49 587.711V628.81M1327.49 587.711H1368.58M1327.49 628.81V669.909M1327.49 628.81H1368.58M1327.49 669.909V711.007M1327.49 669.909H1368.58M1327.49 711.007V752.106M1327.49 711.007H1368.58M1327.49 752.106V793.205M1327.49 752.106H1368.58M1327.49 793.205V834.303M1327.49 793.205H1368.58M1327.49 834.303H1368.58M1368.58 12.3301V53.4287M1368.58 12.3301H1409.68M1368.58 53.4287V94.5274M1368.58 53.4287H1409.68M1368.58 94.5274V135.626M1368.58 94.5274H1409.68M1368.58 135.626V176.725M1368.58 135.626H1409.68M1368.58 176.725V217.823M1368.58 176.725H1409.68M1368.58 217.823V258.922M1368.58 217.823H1409.68M1368.58 258.922V300.021M1368.58 258.922H1409.68M1368.58 300.021V341.119M1368.58 300.021H1409.68M1368.58 341.119V382.218M1368.58 341.119H1409.68M1368.58 382.218V423.317M1368.58 382.218H1409.68M1368.58 423.317V464.415M1368.58 423.317H1409.68M1368.58 464.415V505.514M1368.58 464.415H1409.68M1368.58 505.514V546.613M1368.58 505.514H1409.68M1368.58 546.613V587.711M1368.58 546.613H1409.68M1368.58 587.711V628.81M1368.58 587.711H1409.68M1368.58 628.81V669.909M1368.58 628.81H1409.68M1368.58 669.909V711.007M1368.58 669.909H1409.68M1368.58 711.007V752.106M1368.58 711.007H1409.68M1368.58 752.106V793.205M1368.58 752.106H1409.68M1368.58 793.205V834.303M1368.58 793.205H1409.68M1368.58 834.303H1409.68M1409.68 12.3301V53.4287M1409.68 12.3301H1450.78M1409.68 53.4287V94.5274M1409.68 53.4287H1450.78M1409.68 94.5274V135.626M1409.68 94.5274H1450.78M1409.68 135.626V176.725M1409.68 135.626H1450.78M1409.68 176.725V217.823M1409.68 176.725H1450.78M1409.68 217.823V258.922M1409.68 217.823H1450.78M1409.68 258.922V300.021M1409.68 258.922H1450.78M1409.68 300.021V341.119M1409.68 300.021H1450.78M1409.68 341.119V382.218M1409.68 341.119H1450.78M1409.68 382.218V423.317M1409.68 382.218H1450.78M1409.68 423.317V464.415M1409.68 423.317H1450.78M1409.68 464.415V505.514M1409.68 464.415H1450.78M1409.68 505.514V546.613M1409.68 505.514H1450.78M1409.68 546.613V587.711M1409.68 546.613H1450.78M1409.68 587.711V628.81M1409.68 587.711H1450.78M1409.68 628.81V669.909M1409.68 628.81H1450.78M1409.68 669.909V711.007M1409.68 669.909H1450.78M1409.68 711.007V752.106M1409.68 711.007H1450.78M1409.68 752.106V793.205M1409.68 752.106H1450.78M1409.68 793.205V834.303M1409.68 793.205H1450.78M1409.68 834.303H1450.78M1450.78 12.3301V53.4287M1450.78 12.3301H1491.88M1450.78 53.4287V94.5274M1450.78 53.4287H1491.88M1450.78 94.5274V135.626M1450.78 94.5274H1491.88M1450.78 135.626V176.725M1450.78 135.626H1491.88M1450.78 176.725V217.823M1450.78 176.725H1491.88M1450.78 217.823V258.922M1450.78 217.823H1491.88M1450.78 258.922V300.021M1450.78 258.922H1491.88M1450.78 300.021V341.119M1450.78 300.021H1491.88M1450.78 341.119V382.218M1450.78 341.119H1491.88M1450.78 382.218V423.317M1450.78 382.218H1491.88M1450.78 423.317V464.415M1450.78 423.317H1491.88M1450.78 464.415V505.514M1450.78 464.415H1491.88M1450.78 505.514V546.613M1450.78 505.514H1491.88M1450.78 546.613V587.711M1450.78 546.613H1491.88M1450.78 587.711V628.81M1450.78 587.711H1491.88M1450.78 628.81V669.909M1450.78 628.81H1491.88M1450.78 669.909V711.007M1450.78 669.909H1491.88M1450.78 711.007V752.106M1450.78 711.007H1491.88M1450.78 752.106V793.205M1450.78 752.106H1491.88M1450.78 793.205V834.303M1450.78 793.205H1491.88M1450.78 834.303H1491.88M1491.88 12.3301V53.4287M1491.88 12.3301H1532.98M1491.88 53.4287V94.5274M1491.88 53.4287H1532.98M1491.88 94.5274V135.626M1491.88 94.5274H1532.98M1491.88 135.626V176.725M1491.88 135.626H1532.98M1491.88 176.725V217.823M1491.88 176.725H1532.98M1491.88 217.823V258.922M1491.88 217.823H1532.98M1491.88 258.922V300.021M1491.88 258.922H1532.98M1491.88 300.021V341.119M1491.88 300.021H1532.98M1491.88 341.119V382.218M1491.88 341.119H1532.98M1491.88 382.218V423.317M1491.88 382.218H1532.98M1491.88 423.317V464.415M1491.88 423.317H1532.98M1491.88 464.415V505.514M1491.88 464.415H1532.98M1491.88 505.514V546.613M1491.88 505.514H1532.98M1491.88 546.613V587.711M1491.88 546.613H1532.98M1491.88 587.711V628.81M1491.88 587.711H1532.98M1491.88 628.81V669.909M1491.88 628.81H1532.98M1491.88 669.909V711.007M1491.88 669.909H1532.98M1491.88 711.007V752.106M1491.88 711.007H1532.98M1491.88 752.106V793.205M1491.88 752.106H1532.98M1491.88 793.205V834.303M1491.88 793.205H1532.98M1491.88 834.303H1532.98M1532.98 12.3301V53.4287M1532.98 12.3301H1574.08M1532.98 53.4287V94.5274M1532.98 53.4287H1574.08M1532.98 94.5274V135.626M1532.98 94.5274H1574.08M1532.98 135.626V176.725M1532.98 135.626H1574.08M1532.98 176.725V217.823M1532.98 176.725H1574.08M1532.98 217.823V258.922M1532.98 217.823H1574.08M1532.98 258.922V300.021M1532.98 258.922H1574.08M1532.98 300.021V341.119M1532.98 300.021H1574.08M1532.98 341.119V382.218M1532.98 341.119H1574.08M1532.98 382.218V423.317M1532.98 382.218H1574.08M1532.98 423.317V464.415M1532.98 423.317H1574.08M1532.98 464.415V505.514M1532.98 464.415H1574.08M1532.98 505.514V546.613M1532.98 505.514H1574.08M1532.98 546.613V587.711M1532.98 546.613H1574.08M1532.98 587.711V628.81M1532.98 587.711H1574.08M1532.98 628.81V669.909M1532.98 628.81H1574.08M1532.98 669.909V711.007M1532.98 669.909H1574.08M1532.98 711.007V752.106M1532.98 711.007H1574.08M1532.98 752.106V793.205M1532.98 752.106H1574.08M1532.98 793.205V834.303M1532.98 793.205H1574.08M1532.98 834.303H1574.08M1574.08 12.3301V53.4287M1574.08 12.3301H1615.18M1574.08 53.4287V94.5274M1574.08 53.4287H1615.18M1574.08 94.5274V135.626M1574.08 94.5274H1615.18M1574.08 135.626V176.725M1574.08 135.626H1615.18M1574.08 176.725V217.823M1574.08 176.725H1615.18M1574.08 217.823V258.922M1574.08 217.823H1615.18M1574.08 258.922V300.021M1574.08 258.922H1615.18M1574.08 300.021V341.119M1574.08 300.021H1615.18M1574.08 341.119V382.218M1574.08 341.119H1615.18M1574.08 382.218V423.317M1574.08 382.218H1615.18M1574.08 423.317V464.415M1574.08 423.317H1615.18M1574.08 464.415V505.514M1574.08 464.415H1615.18M1574.08 505.514V546.613M1574.08 505.514H1615.18M1574.08 546.613V587.711M1574.08 546.613H1615.18M1574.08 587.711V628.81M1574.08 587.711H1615.18M1574.08 628.81V669.909M1574.08 628.81H1615.18M1574.08 669.909V711.007M1574.08 669.909H1615.18M1574.08 711.007V752.106M1574.08 711.007H1615.18M1574.08 752.106V793.205M1574.08 752.106H1615.18M1574.08 793.205V834.303M1574.08 793.205H1615.18M1574.08 834.303H1615.18M1615.18 12.3301V53.4287M1615.18 12.3301H1656.28M1615.18 53.4287V94.5274M1615.18 53.4287H1656.28M1615.18 94.5274V135.626M1615.18 94.5274H1656.28M1615.18 135.626V176.725M1615.18 135.626H1656.28M1615.18 176.725V217.823M1615.18 176.725H1656.28M1615.18 217.823V258.922M1615.18 217.823H1656.28M1615.18 258.922V300.021M1615.18 258.922H1656.28M1615.18 300.021V341.119M1615.18 300.021H1656.28M1615.18 341.119V382.218M1615.18 341.119H1656.28M1615.18 382.218V423.317M1615.18 382.218H1656.28M1615.18 423.317V464.415M1615.18 423.317H1656.28M1615.18 464.415V505.514M1615.18 464.415H1656.28M1615.18 505.514V546.613M1615.18 505.514H1656.28M1615.18 546.613V587.711M1615.18 546.613H1656.28M1615.18 587.711V628.81M1615.18 587.711H1656.28M1615.18 628.81V669.909M1615.18 628.81H1656.28M1615.18 669.909V711.007M1615.18 669.909H1656.28M1615.18 711.007V752.106M1615.18 711.007H1656.28M1615.18 752.106V793.205M1615.18 752.106H1656.28M1615.18 793.205V834.303M1615.18 793.205H1656.28M1615.18 834.303H1656.28M1656.28 12.3301V53.4287M1656.28 12.3301H1697.37M1656.28 53.4287V94.5274M1656.28 53.4287H1697.37M1656.28 94.5274V135.626M1656.28 94.5274H1697.37M1656.28 135.626V176.725M1656.28 135.626H1697.37M1656.28 176.725V217.823M1656.28 176.725H1697.37M1656.28 217.823V258.922M1656.28 217.823H1697.37M1656.28 258.922V300.021M1656.28 258.922H1697.37M1656.28 300.021V341.119M1656.28 300.021H1697.37M1656.28 341.119V382.218M1656.28 341.119H1697.37M1656.28 382.218V423.317M1656.28 382.218H1697.37M1656.28 423.317V464.415M1656.28 423.317H1697.37M1656.28 464.415V505.514M1656.28 464.415H1697.37M1656.28 505.514V546.613M1656.28 505.514H1697.37M1656.28 546.613V587.711M1656.28 546.613H1697.37M1656.28 587.711V628.81M1656.28 587.711H1697.37M1656.28 628.81V669.909M1656.28 628.81H1697.37M1656.28 669.909V711.007M1656.28 669.909H1697.37M1656.28 711.007V752.106M1656.28 711.007H1697.37M1656.28 752.106V793.205M1656.28 752.106H1697.37M1656.28 793.205V834.303M1656.28 793.205H1697.37M1656.28 834.303H1697.37M1697.37 12.3301V53.4287M1697.37 12.3301H1738.47M1697.37 53.4287V94.5274M1697.37 53.4287H1738.47M1697.37 94.5274V135.626M1697.37 94.5274H1738.47M1697.37 135.626V176.725M1697.37 135.626H1738.47M1697.37 176.725V217.823M1697.37 176.725H1738.47M1697.37 217.823V258.922M1697.37 217.823H1738.47M1697.37 258.922V300.021M1697.37 258.922H1738.47M1697.37 300.021V341.119M1697.37 300.021H1738.47M1697.37 341.119V382.218M1697.37 341.119H1738.47M1697.37 382.218V423.317M1697.37 382.218H1738.47M1697.37 423.317V464.415M1697.37 423.317H1738.47M1697.37 464.415V505.514M1697.37 464.415H1738.47M1697.37 505.514V546.613M1697.37 505.514H1738.47M1697.37 546.613V587.711M1697.37 546.613H1738.47M1697.37 587.711V628.81M1697.37 587.711H1738.47M1697.37 628.81V669.909M1697.37 628.81H1738.47M1697.37 669.909V711.007M1697.37 669.909H1738.47M1697.37 711.007V752.106M1697.37 711.007H1738.47M1697.37 752.106V793.205M1697.37 752.106H1738.47M1697.37 793.205V834.303M1697.37 793.205H1738.47M1697.37 834.303H1738.47M1738.47 12.3301V53.4287M1738.47 12.3301H1779.57M1738.47 53.4287V94.5274M1738.47 53.4287H1779.57M1738.47 94.5274V135.626M1738.47 94.5274H1779.57M1738.47 135.626V176.725M1738.47 135.626H1779.57M1738.47 176.725V217.823M1738.47 176.725H1779.57M1738.47 217.823V258.922M1738.47 217.823H1779.57M1738.47 258.922V300.021M1738.47 258.922H1779.57M1738.47 300.021V341.119M1738.47 300.021H1779.57M1738.47 341.119V382.218M1738.47 341.119H1779.57M1738.47 382.218V423.317M1738.47 382.218H1779.57M1738.47 423.317V464.415M1738.47 423.317H1779.57M1738.47 464.415V505.514M1738.47 464.415H1779.57M1738.47 505.514V546.613M1738.47 505.514H1779.57M1738.47 546.613V587.711M1738.47 546.613H1779.57M1738.47 587.711V628.81M1738.47 587.711H1779.57M1738.47 628.81V669.909M1738.47 628.81H1779.57M1738.47 669.909V711.007M1738.47 669.909H1779.57M1738.47 711.007V752.106M1738.47 711.007H1779.57M1738.47 752.106V793.205M1738.47 752.106H1779.57M1738.47 793.205V834.303M1738.47 793.205H1779.57M1738.47 834.303H1779.57M1779.57 12.3301V53.4287M1779.57 12.3301H1820.67V53.4287M1779.57 53.4287V94.5274M1779.57 53.4287H1820.67M1779.57 94.5274V135.626M1779.57 94.5274H1820.67M1779.57 135.626V176.725M1779.57 135.626H1820.67M1779.57 176.725V217.823M1779.57 176.725H1820.67M1779.57 217.823V258.922M1779.57 217.823H1820.67M1779.57 258.922V300.021M1779.57 258.922H1820.67M1779.57 300.021V341.119M1779.57 300.021H1820.67M1779.57 341.119V382.218M1779.57 341.119H1820.67M1779.57 382.218V423.317M1779.57 382.218H1820.67M1779.57 423.317V464.415M1779.57 423.317H1820.67M1779.57 464.415V505.514M1779.57 464.415H1820.67M1779.57 505.514V546.613M1779.57 505.514H1820.67M1779.57 546.613V587.711M1779.57 546.613H1820.67M1779.57 587.711V628.81M1779.57 587.711H1820.67M1779.57 628.81V669.909M1779.57 628.81H1820.67M1779.57 669.909V711.007M1779.57 669.909H1820.67M1779.57 711.007V752.106M1779.57 711.007H1820.67M1779.57 752.106V793.205M1779.57 752.106H1820.67M1779.57 793.205V834.303M1779.57 793.205H1820.67M1779.57 834.303H1820.67V793.205M1820.67 53.4287V94.5274M1820.67 94.5274V135.626M1820.67 135.626V176.725M1820.67 176.725V217.823M1820.67 217.823V258.922M1820.67 258.922V300.021M1820.67 300.021V341.119M1820.67 341.119V382.218M1820.67 382.218V423.317M1820.67 423.317V464.415M1820.67 464.415V505.514M1820.67 505.514V546.613M1820.67 546.613V587.711M1820.67 587.711V628.81M1820.67 628.81V669.909M1820.67 669.909V711.007M1820.67 711.007V752.106M1820.67 752.106V793.205" stroke="white" stroke-opacity="0.6" stroke-width="0.513733"/>
</g>
<g style="mix-blend-mode:soft-light" opacity="0.8">
<path d="M176.724 164.395V176.724M176.724 176.724V189.054M176.724 176.724H164.395M176.724 176.724H189.054M176.724 493.184V505.513M176.724 505.513V517.843M176.724 505.513H164.395M176.724 505.513H189.054M176.724 821.973V834.302M176.724 834.302V846.632M176.724 834.302H164.395M176.724 834.302H189.054M505.514 164.395V176.724M505.514 176.724V189.054M505.514 176.724H493.184M505.514 176.724H517.843M505.514 493.184V505.513M505.514 505.513V517.843M505.514 505.513H493.184M505.514 505.513H517.843M505.514 821.973V834.302M505.514 834.302V846.632M505.514 834.302H493.184M505.514 834.302H517.843M834.303 164.395V176.724M834.303 176.724V189.054M834.303 176.724H821.973M834.303 176.724H846.632M834.303 493.184V505.513M834.303 505.513V517.843M834.303 505.513H821.973M834.303 505.513H846.632M834.303 821.973V834.302M834.303 834.302V846.632M834.303 834.302H821.973M834.303 834.302H846.632M1163.09 164.395V176.724M1163.09 176.724V189.054M1163.09 176.724H1150.76M1163.09 176.724H1175.42M1163.09 493.184V505.513M1163.09 505.513V517.843M1163.09 505.513H1150.76M1163.09 505.513H1175.42M1163.09 821.973V834.302M1163.09 834.302V846.632M1163.09 834.302H1150.76M1163.09 834.302H1175.42M1491.88 164.395V176.724M1491.88 176.724V189.054M1491.88 176.724H1479.55M1491.88 176.724H1504.21M1491.88 493.184V505.513M1491.88 505.513V517.843M1491.88 505.513H1479.55M1491.88 505.513H1504.21M1491.88 821.973V834.302M1491.88 834.302V846.632M1491.88 834.302H1479.55M1491.88 834.302H1504.21M1820.67 164.395V176.724M1820.67 176.724V189.054M1820.67 176.724H1808.34M1820.67 176.724H1833M1820.67 493.184V505.513M1820.67 505.513V517.843M1820.67 505.513H1808.34M1820.67 505.513H1833M1820.67 821.973V834.302M1820.67 834.302V846.632M1820.67 834.302H1808.34M1820.67 834.302H1833M176.724 0V12.3296M176.724 12.3296V24.6592M176.724 12.3296H164.395M176.724 12.3296H189.054M176.724 328.789V341.119M176.724 341.119V353.448M176.724 341.119H164.395M176.724 341.119H189.054M176.724 657.578V669.908M176.724 669.908V682.238M176.724 669.908H164.395M176.724 669.908H189.054M505.514 0V12.3296M505.514 12.3296V24.6592M505.514 12.3296H493.184M505.514 12.3296H517.843M505.514 328.789V341.119M505.514 341.119V353.448M505.514 341.119H493.184M505.514 341.119H517.843M505.514 657.578V669.908M505.514 669.908V682.238M505.514 669.908H493.184M505.514 669.908H517.843M834.303 0V12.3296M834.303 12.3296V24.6592M834.303 12.3296H821.973M834.303 12.3296H846.632M834.303 328.789V341.119M834.303 341.119V353.448M834.303 341.119H821.973M834.303 341.119H846.632M834.303 657.578V669.908M834.303 669.908V682.238M834.303 669.908H821.973M834.303 669.908H846.632M1163.09 0V12.3296M1163.09 12.3296V24.6592M1163.09 12.3296H1150.76M1163.09 12.3296H1175.42M1163.09 328.789V341.119M1163.09 341.119V353.448M1163.09 341.119H1150.76M1163.09 341.119H1175.42M1163.09 657.578V669.908M1163.09 669.908V682.238M1163.09 669.908H1150.76M1163.09 669.908H1175.42M1491.88 0V12.3296M1491.88 12.3296V24.6592M1491.88 12.3296H1479.55M1491.88 12.3296H1504.21M1491.88 328.789V341.119M1491.88 341.119V353.448M1491.88 341.119H1479.55M1491.88 341.119H1504.21M1491.88 657.578V669.908M1491.88 669.908V682.238M1491.88 669.908H1479.55M1491.88 669.908H1504.21M1820.67 0V12.3296M1820.67 12.3296V24.6592M1820.67 12.3296H1808.34M1820.67 12.3296H1833M1820.67 328.789V341.119M1820.67 341.119V353.448M1820.67 341.119H1808.34M1820.67 341.119H1833M1820.67 657.578V669.908M1820.67 669.908V682.238M1820.67 669.908H1808.34M1820.67 669.908H1833M12.3296 164.395V176.724M12.3296 176.724V189.054M12.3296 176.724H0M12.3296 176.724H24.6592M12.3296 493.184V505.513M12.3296 505.513V517.843M12.3296 505.513H0M12.3296 505.513H24.6592M12.3296 821.973V834.302M12.3296 834.302V846.632M12.3296 834.302H0M12.3296 834.302H24.6592M341.119 164.395V176.724M341.119 176.724V189.054M341.119 176.724H328.789M341.119 176.724H353.449M341.119 493.184V505.513M341.119 505.513V517.843M341.119 505.513H328.789M341.119 505.513H353.449M341.119 821.973V834.302M341.119 834.302V846.632M341.119 834.302H328.789M341.119 834.302H353.449M669.908 164.395V176.724M669.908 176.724V189.054M669.908 176.724H657.579M669.908 176.724H682.238M669.908 493.184V505.513M669.908 505.513V517.843M669.908 505.513H657.579M669.908 505.513H682.238M669.908 821.973V834.302M669.908 834.302V846.632M669.908 834.302H657.579M669.908 834.302H682.238M998.698 164.395V176.724M998.698 176.724V189.054M998.698 176.724H986.368M998.698 176.724H1011.03M998.698 493.184V505.513M998.698 505.513V517.843M998.698 505.513H986.368M998.698 505.513H1011.03M998.698 821.973V834.302M998.698 834.302V846.632M998.698 834.302H986.368M998.698 834.302H1011.03M1327.49 164.395V176.724M1327.49 176.724V189.054M1327.49 176.724H1315.16M1327.49 176.724H1339.82M1327.49 493.184V505.513M1327.49 505.513V517.843M1327.49 505.513H1315.16M1327.49 505.513H1339.82M1327.49 821.973V834.302M1327.49 834.302V846.632M1327.49 834.302H1315.16M1327.49 834.302H1339.82M1656.28 164.395V176.724M1656.28 176.724V189.054M1656.28 176.724H1643.95M1656.28 176.724H1668.61M1656.28 493.184V505.513M1656.28 505.513V517.843M1656.28 505.513H1643.95M1656.28 505.513H1668.61M1656.28 821.973V834.302M1656.28 834.302V846.632M1656.28 834.302H1643.95M1656.28 834.302H1668.61M12.3296 6.06124e-05V12.3297M12.3296 12.3297V24.6593M12.3296 12.3297H0M12.3296 12.3297H24.6592M12.3296 328.789V341.119M12.3296 341.119V353.448M12.3296 341.119H0M12.3296 341.119H24.6592M12.3296 657.578V669.908M12.3296 669.908V682.238M12.3296 669.908H0M12.3296 669.908H24.6592M341.119 0V12.3296M341.119 12.3296V24.6592M341.119 12.3296H328.789M341.119 12.3296H353.449M341.119 328.789V341.119M341.119 341.119V353.448M341.119 341.119H328.789M341.119 341.119H353.449M341.119 657.578V669.908M341.119 669.908V682.238M341.119 669.908H328.789M341.119 669.908H353.449M669.908 0V12.3296M669.908 12.3296V24.6592M669.908 12.3296H657.579M669.908 12.3296H682.238M669.908 328.789V341.119M669.908 341.119V353.448M669.908 341.119H657.579M669.908 341.119H682.238M669.908 657.578V669.908M669.908 669.908V682.238M669.908 669.908H657.579M669.908 669.908H682.238M998.698 0V12.3296M998.698 12.3296V24.6592M998.698 12.3296H986.368M998.698 12.3296H1011.03M998.698 328.789V341.119M998.698 341.119V353.448M998.698 341.119H986.368M998.698 341.119H1011.03M998.698 657.578V669.908M998.698 669.908V682.238M998.698 669.908H986.368M998.698 669.908H1011.03M1327.49 0V12.3296M1327.49 12.3296V24.6592M1327.49 12.3296H1315.16M1327.49 12.3296H1339.82M1327.49 328.789V341.119M1327.49 341.119V353.448M1327.49 341.119H1315.16M1327.49 341.119H1339.82M1327.49 657.578V669.908M1327.49 669.908V682.238M1327.49 669.908H1315.16M1327.49 669.908H1339.82M1656.28 0V12.3296M1656.28 12.3296V24.6592M1656.28 12.3296H1643.95M1656.28 12.3296H1668.61M1656.28 328.789V341.119M1656.28 341.119V353.448M1656.28 341.119H1643.95M1656.28 341.119H1668.61M1656.28 657.578V669.908M1656.28 669.908V682.238M1656.28 669.908H1643.95M1656.28 669.908H1668.61" stroke="white" stroke-opacity="0.6" stroke-width="1.02747"/>
</g>
</svg>
