<svg width="36" height="51" viewBox="0 0 36 51" fill="none" xmlns="http://www.w3.org/2000/svg">
<path d="M18 0.5C11.45 0.5 6.125 5.825 6.125 12.375C6.125 18.8 11.15 24 17.7 24.225C17.9 24.2 18.1 24.2 18.25 24.225C18.3 24.225 18.325 24.225 18.375 24.225C18.4 24.225 18.4 24.225 18.425 24.225C24.825 24 29.85 18.8 29.875 12.375C29.875 5.825 24.55 0.5 18 0.5Z" fill="#292D32"/>
<path d="M30.6999 30.8747C23.7249 26.2247 12.3499 26.2247 5.3249 30.8747C2.1499 32.9997 0.399902 35.8747 0.399902 38.9497C0.399902 42.0247 2.1499 44.8747 5.2999 46.9747C8.7999 49.3247 13.3999 50.4997 17.9999 50.4997C22.5999 50.4997 27.1999 49.3247 30.6999 46.9747C33.8499 44.8497 35.5999 41.9997 35.5999 38.8997C35.5749 35.8247 33.8499 32.9747 30.6999 30.8747Z" fill="#292D32"/>
</svg>
