<svg width="25" height="25" viewBox="0 0 25 25" fill="none" xmlns="http://www.w3.org/2000/svg">
<path d="M22.2949 8.04597L10.2949 20.046C10.1904 20.1509 10.0662 20.2341 9.92947 20.2909C9.79272 20.3476 9.64611 20.3769 9.49804 20.3769C9.34998 20.3769 9.20337 20.3476 9.06662 20.2909C8.92988 20.2341 8.80569 20.1509 8.70117 20.046L3.45117 14.796C3.34652 14.6913 3.26351 14.5671 3.20688 14.4304C3.15024 14.2936 3.12109 14.1471 3.12109 13.9991C3.12109 13.8511 3.15024 13.7046 3.20688 13.5678C3.26351 13.4311 3.34652 13.3069 3.45117 13.2022C3.55582 13.0976 3.68005 13.0146 3.81678 12.9579C3.95351 12.9013 4.10005 12.8721 4.24805 12.8721C4.39604 12.8721 4.54258 12.9013 4.67931 12.9579C4.81604 13.0146 4.94027 13.0976 5.04492 13.2022L9.49898 17.6563L20.703 6.4541C20.9144 6.24276 21.201 6.12402 21.4999 6.12402C21.7988 6.12402 22.0854 6.24276 22.2968 6.4541C22.5081 6.66544 22.6269 6.95209 22.6269 7.25098C22.6269 7.54986 22.5081 7.83651 22.2968 8.04785L22.2949 8.04597Z" fill="#212121"/>
</svg>
