<svg width="32" height="33" viewBox="0 0 32 33" fill="none" xmlns="http://www.w3.org/2000/svg">
<path d="M26.7071 12.7623L16.7071 22.7623C16.6142 22.8552 16.5039 22.929 16.3825 22.9793C16.2611 23.0296 16.131 23.0555 15.9996 23.0555C15.8682 23.0555 15.738 23.0296 15.6166 22.9793C15.4952 22.929 15.385 22.8552 15.2921 22.7623L5.29208 12.7623C5.10444 12.5746 4.99902 12.3201 4.99902 12.0548C4.99902 11.7894 5.10444 11.5349 5.29208 11.3473C5.47972 11.1596 5.73422 11.0542 5.99958 11.0542C6.26494 11.0542 6.51944 11.1596 6.70708 11.3473L15.9996 20.641L25.2921 11.3473C25.385 11.2543 25.4953 11.1806 25.6167 11.1304C25.7381 11.0801 25.8682 11.0542 25.9996 11.0542C26.131 11.0542 26.2611 11.0801 26.3825 11.1304C26.5039 11.1806 26.6142 11.2543 26.7071 11.3473C26.8 11.4402 26.8737 11.5505 26.924 11.6719C26.9743 11.7933 27.0001 11.9234 27.0001 12.0548C27.0001 12.1862 26.9743 12.3163 26.924 12.4377C26.8737 12.559 26.8 12.6693 26.7071 12.7623Z" fill="#FAFAFA"/>
</svg>
