<svg width="31" height="31" viewBox="0 0 31 31" fill="none" xmlns="http://www.w3.org/2000/svg">
<path d="M26.125 8.125H21.125V5.625C21.125 4.5625 20.25 3.75 19.25 3.75H11.75C10.6875 3.75 9.875 4.5625 9.875 5.625V8.125H4.875C3.5625 8.125 2.5 9.1875 2.5 10.5V24.25C2.5 25.5625 3.5625 26.625 4.875 26.625H26.125C27.4375 26.625 28.5 25.5625 28.5 24.25V10.5C28.5 9.1875 27.4375 8.125 26.125 8.125ZM12.375 6.25H18.625V8.125H12.375V6.25ZM26 24.125H5V10.625H26V24.125ZM15.5 13.75C14.125 13.75 13 14.875 13 16.25C13 17.625 14.125 18.75 15.5 18.75C16.875 18.75 18 17.625 18 16.25C18 14.875 16.875 13.75 15.5 13.75Z" fill="white"/>
</svg>
