<svg width="31" height="31" viewBox="0 0 31 31" fill="none" xmlns="http://www.w3.org/2000/svg">
<path d="M15.5 15.5C18.3984 15.5 20.75 13.1484 20.75 10.25C20.75 7.35156 18.3984 5 15.5 5C12.6016 5 10.25 7.35156 10.25 10.25C10.25 13.1484 12.6016 15.5 15.5 15.5ZM15.5 7.375C17.0859 7.375 18.375 8.66406 18.375 10.25C18.375 11.8359 17.0859 13.125 15.5 13.125C13.9141 13.125 12.625 11.8359 12.625 10.25C12.625 8.66406 13.9141 7.375 15.5 7.375ZM15.5 17.875C11.9141 17.875 4.75 19.6719 4.75 23.25V26H26.25V23.25C26.25 19.6719 19.0859 17.875 15.5 17.875ZM23.875 23.625H7.125V23.25C7.125 22.3047 11.2891 20.25 15.5 20.25C19.7109 20.25 23.875 22.3047 23.875 23.25V23.625ZM25.0625 15.5C27.1875 15.5 28.9375 13.75 28.9375 11.625C28.9375 9.5 27.1875 7.75 25.0625 7.75C22.9375 7.75 21.1875 9.5 21.1875 11.625C21.1875 13.75 22.9375 15.5 25.0625 15.5ZM27.4375 17.875C26.6875 17.75 25.875 17.625 25.0625 17.625C24 17.625 22.8125 17.8125 21.6875 18.1875C22.9375 19.25 23.875 20.625 23.875 22.125V26H28.9375V22.125C28.9375 19.875 28.5 18.625 27.4375 17.875ZM5.9375 15.5C8.0625 15.5 9.8125 13.75 9.8125 11.625C9.8125 9.5 8.0625 7.75 5.9375 7.75C3.8125 7.75 2.0625 9.5 2.0625 11.625C2.0625 13.75 3.8125 15.5 5.9375 15.5ZM9.3125 18.1875C8.1875 17.8125 7 17.625 5.9375 17.625C5.125 17.625 4.3125 17.75 3.5625 17.875C2.5 18.625 2.0625 19.875 2.0625 22.125V26H7.125V22.125C7.125 20.625 8.0625 19.25 9.3125 18.1875Z" fill="white"/>
</svg>
