<svg width="31" height="31" viewBox="0 0 31 31" fill="none" xmlns="http://www.w3.org/2000/svg">
<path d="M24.8125 4.0625H19.5C19.0625 2.5625 17.6875 1.5 16.0625 1.5H14.9375C13.3125 1.5 11.9375 2.5625 11.5 4.0625H6.1875C4.875 4.0625 3.8125 5.125 3.8125 6.4375V27.0625C3.8125 28.375 4.875 29.4375 6.1875 29.4375H24.8125C26.125 29.4375 27.1875 28.375 27.1875 27.0625V6.4375C27.1875 5.125 26.125 4.0625 24.8125 4.0625ZM15.5 4.0625C16.1562 4.0625 16.6875 4.59375 16.6875 5.25C16.6875 5.90625 16.1562 6.4375 15.5 6.4375C14.8438 6.4375 14.3125 5.90625 14.3125 5.25C14.3125 4.59375 14.8438 4.0625 15.5 4.0625ZM24.8125 27.0625H6.1875V6.4375H9.125V8.8125H21.875V6.4375H24.8125V27.0625ZM20.6875 13.5625H10.3125V11.1875H20.6875V13.5625ZM20.6875 18.25H10.3125V15.875H20.6875V18.25ZM17.125 22.9375H10.3125V20.5625H17.125V22.9375Z" fill="white"/>
</svg>
