<svg width="23" height="22" viewBox="0 0 23 22" fill="none" xmlns="http://www.w3.org/2000/svg">
<path fill-rule="evenodd" clip-rule="evenodd" d="M7.85596 0H16.106C19.9023 0 22.981 3.07862 22.981 6.875V15.125C22.981 18.9214 19.9023 22 16.106 22H7.85596C4.05958 22 0.980957 18.9214 0.980957 15.125V6.875C0.980957 3.07862 4.05958 0 7.85596 0ZM16.106 19.9375C18.7597 19.9375 20.9185 17.7787 20.9185 15.125V6.875C20.9185 4.22125 18.7597 2.0625 16.106 2.0625H7.85596C5.20221 2.0625 3.04346 4.22125 3.04346 6.875V15.125C3.04346 17.7787 5.20221 19.9375 7.85596 19.9375H16.106Z" fill="white"/>
<path fill-rule="evenodd" clip-rule="evenodd" d="M6.48096 11C6.48096 7.96263 8.94358 5.5 11.981 5.5C15.0183 5.5 17.481 7.96263 17.481 11C17.481 14.0374 15.0183 16.5 11.981 16.5C8.94358 16.5 6.48096 14.0374 6.48096 11ZM8.54346 11C8.54346 12.8948 10.0862 14.4375 11.981 14.4375C13.8757 14.4375 15.4185 12.8948 15.4185 11C15.4185 9.10388 13.8757 7.5625 11.981 7.5625C10.0862 7.5625 8.54346 9.10388 8.54346 11Z" fill="white"/>
<circle cx="17.8935" cy="5.08737" r="0.732875" fill="white"/>
</svg>
