<svg width="30" height="21" viewBox="0 0 30 21" fill="none" xmlns="http://www.w3.org/2000/svg">
<path d="M29.25 3.1875C28.875 1.875 27.9375 0.9375 26.625 0.5625C24.375 3.35276e-07 14.8125 0 14.8125 0C14.8125 0 5.43751 3.35276e-07 3.00001 0.5625C1.68751 0.9375 0.749994 1.875 0.374994 3.1875C-5.72763e-06 5.625 0 10.5 0 10.5C0 10.5 5.69969e-06 15.375 0.562506 17.8125C0.937506 19.125 1.87499 20.0625 3.18749 20.4375C5.43749 21 15 21 15 21C15 21 24.375 21 26.8125 20.4375C28.125 20.0625 29.0625 19.125 29.4375 17.8125C30 15.375 30 10.5 30 10.5C30 10.5 30 5.625 29.25 3.1875ZM12 15V6L19.875 10.5L12 15Z" fill="white"/>
</svg>
