<svg width="23" height="18" viewBox="0 0 23 18" fill="none" xmlns="http://www.w3.org/2000/svg">
<path d="M22.981 2.11613C22.1628 2.475 21.2911 2.71288 20.3822 2.82838C21.3172 2.27013 22.0308 1.39287 22.3663 0.3355C21.4946 0.85525 20.5321 1.22238 19.5063 1.42725C18.6786 0.545875 17.4988 0 16.2118 0C13.7148 0 11.7046 2.02675 11.7046 4.51137C11.7046 4.86888 11.7348 5.21263 11.8091 5.53988C8.05946 5.357 4.74158 3.55988 2.51271 0.82225C2.12358 1.49738 1.89533 2.27012 1.89533 3.102C1.89533 4.664 2.69971 6.04862 3.89871 6.85025C3.17408 6.8365 2.46321 6.62613 1.86096 6.29475C1.86096 6.3085 1.86096 6.32638 1.86096 6.34425C1.86096 8.536 3.42433 10.3565 5.47446 10.7759C5.10733 10.8763 4.70721 10.9244 4.29196 10.9244C4.00321 10.9244 3.71171 10.9079 3.43808 10.8474C4.02246 12.6335 5.68071 13.9466 7.65246 13.9893C6.11796 15.1896 4.16958 15.9129 2.06033 15.9129C1.69046 15.9129 1.33571 15.8964 0.980957 15.851C2.97883 17.1394 5.34658 17.875 7.89996 17.875C16.1995 17.875 20.737 11 20.737 5.04075C20.737 4.84137 20.7301 4.64887 20.7205 4.45775C21.6156 3.8225 22.3677 3.02913 22.981 2.11613Z" fill="white"/>
</svg>
