<svg width="27" height="30" viewBox="0 0 27 30" fill="none" xmlns="http://www.w3.org/2000/svg">
<path d="M10.4344 11.8131V10.6452C10.0343 10.5918 9.62756 10.5584 9.20744 10.5584C4.19943 10.5518 0.125 14.6296 0.125 19.6485C0.125 22.7252 1.65875 25.4483 4.00605 27.0968C2.4923 25.475 1.56539 23.2925 1.56539 20.9032C1.56539 15.9577 5.52645 11.9266 10.4344 11.8131Z" fill="#25F4EE"/>
<path d="M10.6548 25.0545C12.8888 25.0545 14.7159 23.2726 14.796 21.0568L14.8027 1.25473H18.417C18.3436 0.847608 18.3036 0.427145 18.3036 0H13.3689L13.3622 19.802C13.2823 22.0178 11.455 23.7997 9.22113 23.7997C8.52761 23.7997 7.8741 23.6262 7.29395 23.3192C8.04081 24.367 9.26781 25.0545 10.6548 25.0545Z" fill="#25F4EE"/>
<path d="M25.1727 7.97532V6.87415C23.7923 6.87415 22.5119 6.46701 21.4316 5.75952C22.3919 6.86079 23.6922 7.66171 25.1727 7.97532Z" fill="#25F4EE"/>
<path d="M21.4303 5.75973C20.3766 4.55176 19.7431 2.97667 19.7431 1.25476H18.4229C18.7629 3.13685 19.8832 4.752 21.4303 5.75973Z" fill="#FE2C55"/>
<path d="M9.21516 15.4905C6.92788 15.4905 5.06738 17.3526 5.06738 19.6418C5.06738 21.237 5.97429 22.6251 7.29464 23.3192C6.80118 22.6385 6.50777 21.8042 6.50777 20.8965C6.50777 18.6073 8.36826 16.7452 10.6556 16.7452C11.0824 16.7452 11.4958 16.8186 11.8825 16.9388V11.8933C11.4824 11.8398 11.0757 11.8064 10.6556 11.8064C10.5822 11.8064 10.5155 11.8131 10.4422 11.8131V15.6841C10.0487 15.5639 9.64194 15.4905 9.21516 15.4905Z" fill="#FE2C55"/>
<path d="M25.1726 7.97559V11.8132C22.6119 11.8132 20.2379 10.9923 18.304 9.60405V19.6486C18.304 24.6608 14.2296 28.7454 9.2149 28.7454C7.28104 28.7454 5.48057 28.1313 4.00684 27.0969C5.66728 28.8788 8.03458 30.0001 10.6553 30.0001C15.6633 30.0001 19.7444 25.9222 19.7444 20.9033V10.8588C21.6782 12.247 24.0522 13.0679 26.6129 13.0679V8.12915C26.1128 8.12915 25.6326 8.0757 25.1726 7.97559Z" fill="#FE2C55"/>
<path d="M18.3042 19.6485V9.60399C20.2381 10.9922 22.6121 11.8131 25.1728 11.8131V7.97552C23.6924 7.66192 22.392 6.861 21.4318 5.75973C19.8846 4.752 18.771 3.13685 18.4176 1.25476H14.8033L14.7966 21.0567C14.7166 23.2725 12.8894 25.0545 10.6556 25.0545C9.26847 25.0545 8.04814 24.3671 7.28795 23.3259C5.96758 22.6251 5.06068 21.2437 5.06068 19.6485C5.06068 17.3593 6.92117 15.4972 9.20846 15.4972C9.63524 15.4972 10.0487 15.5706 10.4355 15.6908V11.8198C5.52747 11.9266 1.56641 15.9577 1.56641 20.9032C1.56641 23.2925 2.49332 25.4683 4.00706 27.0968C5.48079 28.1313 7.28128 28.7453 9.21513 28.7453C14.2232 28.7453 18.3042 24.6607 18.3042 19.6485Z" fill="white"/>
</svg>
