<svg width="132" height="30" viewBox="0 0 132 30" fill="none" xmlns="http://www.w3.org/2000/svg">
<path fill-rule="evenodd" clip-rule="evenodd" d="M16.3308 1.47424L0 7.04969V22.6609L5.88427 20.652V11.0195L16.3308 7.45304V1.47424Z" fill="#F5F5F5"/>
<path fill-rule="evenodd" clip-rule="evenodd" d="M8.32544 12.4843L24.6562 6.90886V22.5201L8.32544 28.0956V12.4843Z" fill="#F5F5F5"/>
<path d="M38.4563 16.58L33.0163 7.94H36.1563L40.3763 14.86H38.5763L42.7963 7.94H45.8963L40.3963 16.58H38.4563ZM38.0963 22V15.12H40.8363V22H38.0963ZM49.0398 22.2C48.0665 22.2 47.1865 21.98 46.3998 21.54C45.6265 21.0867 45.0065 20.48 44.5398 19.72C44.0865 18.9467 43.8598 18.0867 43.8598 17.14C43.8598 16.1933 44.0865 15.3467 44.5398 14.6C44.9932 13.84 45.6132 13.24 46.3998 12.8C47.1865 12.3467 48.0598 12.12 49.0198 12.12C50.0065 12.12 50.8865 12.3467 51.6598 12.8C52.4465 13.24 53.0665 13.84 53.5198 14.6C53.9732 15.3467 54.1998 16.1933 54.1998 17.14C54.1998 18.0867 53.9732 18.9467 53.5198 19.72C53.0665 20.48 52.4465 21.0867 51.6598 21.54C50.8865 21.98 50.0132 22.2 49.0398 22.2ZM49.0198 19.76C49.5132 19.76 49.9465 19.6533 50.3198 19.44C50.7065 19.2133 50.9998 18.9067 51.1998 18.52C51.4132 18.12 51.5198 17.6667 51.5198 17.16C51.5198 16.6533 51.4132 16.2067 51.1998 15.82C50.9865 15.4333 50.6932 15.1333 50.3198 14.92C49.9465 14.6933 49.5132 14.58 49.0198 14.58C48.5398 14.58 48.1132 14.6933 47.7398 14.92C47.3665 15.1333 47.0732 15.4333 46.8598 15.82C46.6465 16.2067 46.5398 16.6533 46.5398 17.16C46.5398 17.6667 46.6465 18.12 46.8598 18.52C47.0732 18.9067 47.3665 19.2133 47.7398 19.44C48.1132 19.6533 48.5398 19.76 49.0198 19.76ZM60.0066 22.2C59.1532 22.2 58.3932 22.02 57.7266 21.66C57.0732 21.3 56.5599 20.8 56.1866 20.16C55.8132 19.52 55.6266 18.78 55.6266 17.94V12.34H58.2666V17.88C58.2666 18.28 58.3332 18.6267 58.4666 18.92C58.5999 19.2 58.7999 19.4133 59.0666 19.56C59.3332 19.7067 59.6466 19.78 60.0066 19.78C60.5532 19.78 60.9799 19.6133 61.2866 19.28C61.5932 18.9467 61.7466 18.48 61.7466 17.88V12.34H64.3666V17.94C64.3666 18.7933 64.1799 19.54 63.8066 20.18C63.4466 20.82 62.9332 21.32 62.2666 21.68C61.6132 22.0267 60.8599 22.2 60.0066 22.2ZM66.453 22V12.34H69.073V22H66.453ZM69.073 16.66L68.053 15.98C68.173 14.7933 68.5196 13.86 69.093 13.18C69.6663 12.4867 70.493 12.14 71.573 12.14C72.0396 12.14 72.4596 12.22 72.833 12.38C73.2063 12.5267 73.5463 12.7733 73.853 13.12L72.213 15C72.0663 14.84 71.8863 14.72 71.673 14.64C71.473 14.56 71.2396 14.52 70.973 14.52C70.413 14.52 69.953 14.7 69.593 15.06C69.2463 15.4067 69.073 15.94 69.073 16.66ZM79.3111 22V7.94H82.0311V22H79.3111ZM81.3111 22V19.58H88.4711V22H81.3111ZM94.4305 22.2C93.4571 22.2 92.5771 21.98 91.7905 21.54C91.0171 21.0867 90.3971 20.48 89.9305 19.72C89.4771 18.9467 89.2505 18.0867 89.2505 17.14C89.2505 16.1933 89.4771 15.3467 89.9305 14.6C90.3838 13.84 91.0038 13.24 91.7905 12.8C92.5771 12.3467 93.4505 12.12 94.4105 12.12C95.3971 12.12 96.2771 12.3467 97.0505 12.8C97.8371 13.24 98.4571 13.84 98.9105 14.6C99.3638 15.3467 99.5905 16.1933 99.5905 17.14C99.5905 18.0867 99.3638 18.9467 98.9105 19.72C98.4571 20.48 97.8371 21.0867 97.0505 21.54C96.2771 21.98 95.4038 22.2 94.4305 22.2ZM94.4105 19.76C94.9038 19.76 95.3371 19.6533 95.7105 19.44C96.0971 19.2133 96.3905 18.9067 96.5905 18.52C96.8038 18.12 96.9105 17.6667 96.9105 17.16C96.9105 16.6533 96.8038 16.2067 96.5905 15.82C96.3771 15.4333 96.0838 15.1333 95.7105 14.92C95.3371 14.6933 94.9038 14.58 94.4105 14.58C93.9305 14.58 93.5038 14.6933 93.1305 14.92C92.7571 15.1333 92.4638 15.4333 92.2505 15.82C92.0371 16.2067 91.9305 16.6533 91.9305 17.16C91.9305 17.6667 92.0371 18.12 92.2505 18.52C92.4638 18.9067 92.7571 19.2133 93.1305 19.44C93.5038 19.6533 93.9305 19.76 94.4105 19.76ZM105.317 26.28C104.291 26.28 103.384 26.0933 102.597 25.72C101.811 25.36 101.184 24.8467 100.717 24.18L102.377 22.52C102.751 22.96 103.164 23.2933 103.617 23.52C104.084 23.76 104.644 23.88 105.297 23.88C106.111 23.88 106.751 23.6733 107.217 23.26C107.697 22.8467 107.937 22.2733 107.937 21.54V19.12L108.377 17L107.957 14.88V12.34H110.557V21.5C110.557 22.46 110.331 23.2933 109.877 24C109.437 24.72 108.824 25.28 108.037 25.68C107.251 26.08 106.344 26.28 105.317 26.28ZM105.197 21.74C104.331 21.74 103.551 21.5333 102.857 21.12C102.164 20.6933 101.617 20.1133 101.217 19.38C100.831 18.6467 100.637 17.8267 100.637 16.92C100.637 16.0133 100.831 15.2 101.217 14.48C101.617 13.76 102.164 13.1933 102.857 12.78C103.551 12.3533 104.331 12.14 105.197 12.14C105.917 12.14 106.551 12.28 107.097 12.56C107.657 12.84 108.097 13.2267 108.417 13.72C108.737 14.2 108.911 14.7667 108.937 15.42V18.46C108.911 19.1 108.731 19.6733 108.397 20.18C108.077 20.6733 107.637 21.06 107.077 21.34C106.531 21.6067 105.904 21.74 105.197 21.74ZM105.717 19.36C106.197 19.36 106.611 19.26 106.957 19.06C107.317 18.8467 107.597 18.56 107.797 18.2C107.997 17.8267 108.097 17.4067 108.097 16.94C108.097 16.46 107.997 16.04 107.797 15.68C107.597 15.32 107.317 15.04 106.957 14.84C106.611 14.6267 106.197 14.52 105.717 14.52C105.237 14.52 104.817 14.6267 104.457 14.84C104.097 15.04 103.817 15.3267 103.617 15.7C103.417 16.06 103.317 16.4733 103.317 16.94C103.317 17.3933 103.417 17.8067 103.617 18.18C103.817 18.54 104.097 18.8267 104.457 19.04C104.817 19.2533 105.237 19.36 105.717 19.36ZM117.399 22.2C116.426 22.2 115.546 21.98 114.759 21.54C113.986 21.0867 113.366 20.48 112.899 19.72C112.446 18.9467 112.219 18.0867 112.219 17.14C112.219 16.1933 112.446 15.3467 112.899 14.6C113.353 13.84 113.973 13.24 114.759 12.8C115.546 12.3467 116.419 12.12 117.379 12.12C118.366 12.12 119.246 12.3467 120.019 12.8C120.806 13.24 121.426 13.84 121.879 14.6C122.333 15.3467 122.559 16.1933 122.559 17.14C122.559 18.0867 122.333 18.9467 121.879 19.72C121.426 20.48 120.806 21.0867 120.019 21.54C119.246 21.98 118.373 22.2 117.399 22.2ZM117.379 19.76C117.873 19.76 118.306 19.6533 118.679 19.44C119.066 19.2133 119.359 18.9067 119.559 18.52C119.773 18.12 119.879 17.6667 119.879 17.16C119.879 16.6533 119.773 16.2067 119.559 15.82C119.346 15.4333 119.053 15.1333 118.679 14.92C118.306 14.6933 117.873 14.58 117.379 14.58C116.899 14.58 116.473 14.6933 116.099 14.92C115.726 15.1333 115.433 15.4333 115.219 15.82C115.006 16.2067 114.899 16.6533 114.899 17.16C114.899 17.6667 115.006 18.12 115.219 18.52C115.433 18.9067 115.726 19.2133 116.099 19.44C116.473 19.6533 116.899 19.76 117.379 19.76Z" fill="white"/>
</svg>
