<svg width="31" height="31" viewBox="0 0 31 31" fill="none" xmlns="http://www.w3.org/2000/svg">
<path d="M15.1875 24C10.125 24 7.87495 21.375 7.87495 19.5C7.87495 19.125 8.06255 18.5625 8.43755 18.375C8.81254 18 9.1875 18 9.5625 18C11.625 18 11.0625 21.1875 15.1875 21.1875C17.25 21.1875 18.375 19.875 18.375 18.75C18.375 18 18 17.25 16.6875 16.875L12.1875 15.75C8.62505 14.8125 8.06252 12.75 8.06252 11.0625C8.06252 7.125 11.625 5.8125 15 5.8125C18 5.8125 21.75 7.5 21.75 9.75C21.75 10.6875 21 11.25 19.875 11.25C18 11.25 18.375 8.625 14.625 8.625C12.75 8.625 11.8125 9.5625 11.8125 10.6875C11.8125 11.8125 13.3125 12.375 14.4375 12.5625L17.8125 13.3125C21.375 14.0625 22.3125 16.3125 22.3125 18.1875C22.3125 21.75 19.875 24 15.1875 24ZM29.0625 17.4375C29.25 16.6875 29.25 15.75 29.25 15C29.25 10.875 27.375 6.9375 24.1875 4.125C21 1.3125 16.6875 0.375 12.5625 0.9375C11.4375 0.375 9.93755 0 8.43755 0C5.43755 0 2.625 1.6875 1.125 4.3125C-0.375 6.9375 -0.375 10.125 1.125 12.75C0.375 17.25 1.68745 21.9375 5.06245 25.3125C8.24995 28.5 12.9375 30 17.4375 29.25C18.75 30 20.0625 30.375 21.5625 30.375C24.5625 30.375 27.375 28.6875 28.875 26.0625C30.375 23.25 30.5625 20.0625 29.0625 17.4375Z" fill="white"/>
</svg>
