<svg width="31" height="30" viewBox="0 0 31 30" fill="none" xmlns="http://www.w3.org/2000/svg">
<path d="M6.32917 18.9649C6.32917 20.7085 4.91993 22.1177 3.1763 22.1177C1.43267 22.1177 0.0234375 20.7085 0.0234375 18.9649C0.0234375 17.2212 1.43267 15.812 3.1763 15.812H6.32917V18.9649Z" fill="#E01E5A"/>
<path d="M7.90625 18.9649C7.90625 17.2212 9.31549 15.812 11.0591 15.812C12.8027 15.812 14.212 17.2212 14.212 18.9649V26.847C14.212 28.5907 12.8027 29.9999 11.0591 29.9999C9.31549 29.9999 7.90625 28.5907 7.90625 26.847V18.9649Z" fill="#E01E5A"/>
<path d="M11.0591 6.30573C9.31549 6.30573 7.90625 4.8965 7.90625 3.15287C7.90625 1.40924 9.31549 0 11.0591 0C12.8027 0 14.212 1.40924 14.212 3.15287V6.30573H11.0591Z" fill="#36C5F0"/>
<path d="M11.0589 7.90601C12.8025 7.90601 14.2118 9.31524 14.2118 11.0589C14.2118 12.8025 12.8025 14.2117 11.0589 14.2117H3.15287C1.40924 14.2117 0 12.8025 0 11.0589C0 9.31524 1.40924 7.90601 3.15287 7.90601H11.0589Z" fill="#36C5F0"/>
<path d="M23.6934 11.0589C23.6934 9.31524 25.1026 7.90601 26.8462 7.90601C28.5899 7.90601 29.9991 9.31524 29.9991 11.0589C29.9991 12.8025 28.5899 14.2117 26.8462 14.2117H23.6934V11.0589Z" fill="#2EB67D"/>
<path d="M22.1182 11.0589C22.1182 12.8025 20.709 14.2118 18.9654 14.2118C17.2217 14.2118 15.8125 12.8025 15.8125 11.0589V3.15287C15.8125 1.40924 17.2217 0 18.9654 0C20.709 0 22.1182 1.40924 22.1182 3.15287V11.0589Z" fill="#2EB67D"/>
<path d="M18.9654 23.6943C20.709 23.6943 22.1182 25.1036 22.1182 26.8472C22.1182 28.5908 20.709 30.0001 18.9654 30.0001C17.2217 30.0001 15.8125 28.5908 15.8125 26.8472V23.6943H18.9654Z" fill="#ECB22E"/>
<path d="M18.9654 22.1177C17.2217 22.1177 15.8125 20.7085 15.8125 18.9649C15.8125 17.2212 17.2217 15.812 18.9654 15.812H26.8714C28.615 15.812 30.0243 17.2212 30.0243 18.9649C30.0243 20.7085 28.615 22.1177 26.8714 22.1177H18.9654Z" fill="#ECB22E"/>
</svg>
